**ABCDEFGHIJKLMNOPQRSTUVWXYZabcdefghijklmnopqrstuvwxyz**************************
**PARASOLID !"#$%&'()*+,-./:;<=>?@[\]^_`{|}~0123456789**************************
**PART1;
MC=unknown;
MC_MODEL=unknown;
MC_ID=unknown;
OS=iOS;
OS_RELEASE=unknown;
FRU=Shapr3D Zrt.;
APPL=Shapr3D;
SITE=Budapest, Hungary;
USER=unknown;
FORMAT=text;
GUISE=transmit;
KEY=/var/folders/85/2_5hrtnx6kqc2y0z1ld2btzc0000gn/T/com.shapr3d.shapr/export/temp_export;
FILE=/var/folders/85/2_5hrtnx6kqc2y0z1ld2btzc0000gn/T/com.shapr3d.shapr/export/temp_export;
DATE=2022-10-25 23:56 (UTC);
**PART2;
SCH=SCH_3401244_34101;
USFLD_SIZE=16;
**PART3;
**END_OF_HEADER*****************************************************************
T51 : TRANSMIT FILE created by modeller version 340124423 SCH_3401244_34101_1300
6231 0 10 21 CCCCI7 lattice222 0 CCCI4 mesh1006 0 I8 polyline1008 0 CCCCCCCCCCA1
6 mesh_offset_data206 0 Z1 3 2 3 0 0 0 0 0 0 0 0 1e3 1e-8 0 0 4 1 0 1 5 0 81 255
 1 2 2 6 1 7 0 0 0 8 70 11 CI9 list_type0 0 1 uI10 notransmit0 0 1 lCCCDCCDI12 f
inger_index0 0 1 dI12 finger_block1012 0 CZ3 0 4 T1 0 0 2 20 1 9 9 11 255 5 3 0
 1 4 0 1 0 0 0 0 10 4 3 10 11 0 0 0 0 0 0 0 0 1e3 1e-8 5 1 0 1 0 1 12 0 81 1 10
 2 6 4 13 0 0 0 14 70 11 0 4 T4 0 0 2 20 1 15 15 11 12 3 0 1 16 0 4 0 0 0 0 12 3
6 CCCI7 lattice222 0 CCCI4 mesh1006 0 I8 polyline1008 0 CCCCCCCDI5 owner1040 0 C
CCI16 boundary_lattice222 0 CCCI13 boundary_mesh1006 0 I17 boundary_polyline1008
 0 CCCA16 index_map_offset0 0 1 dA9 index_map82 0 A17 node_id_index_map82 0 A20
 schema_embedding_map82 0 A5 child12 0 A14 lowest_node_id0 0 1 dA16 mesh_offset_
data206 0 Z16 1040 17 18 0 0 0 0 0 0 0 1e3 1e-8 12 0 0 1 0 1 1 19 0 20 21 22 0 0
 23 24 25 0 0 0 0 0 0 0 81 1 17 906 6 16 26 0 0 0 27 70 18 0 4 T16 0 0 6 20 1 28
 28 13 255 19 262 0 16 0 29 0 0 30 0 51 255 20 966 0 31 32 0 0 +.283045983910490
5 .553460145010428 .00853802349108459 -.5 .866025403784438 530287619362454e-31 .
00254 -.866025403784438 -.5 -179394865676557e-47 31 255 21 964 0 33 34 0 0 -.281
326323706036 .550596683856297 .00853802349108459 -.5 .866025403784438 5302876193
62454e-31 -.866025403784438 -.5 -179394865676554e-47 .00254 29 255 22 954 0 35 3
6 0 .281326323706036 .550596683856297 .00599802349108459 19 9 CCCCCCI5 frame230
 0 CA5 owner12 0 Z23 260 0 16 30 0 37 0 V0 16 255 24 255 0 ?38 0 39 40 0 0 16 18
 255 25 231 0 41 0 42 43 ?16 17 255 41 0 44 45 46 25 47 48 0 49 -18 42 226 0 46
 25 50 51 ?16 29 43 526 0 25 51 52 .2967910381519715 .597402962325676 .011998023
49108454 29 51 525 0 42 53 43 .3022832180076395 .587890227771353 .01199802349108
454 29 52 947 0 54 43 55 .2838559839104905 .552057183856297 .00599802349108459 1
8 54 37 0 56 57 35 52 ?16 29 55 948 0 57 52 58 .286055688436103 .553327183856297
 .00853802349108459 18 57 39 0 59 60 54 55 ?16 29 58 949 0 61 55 62 .28905568843
6103 .548131031433591 .00853802349108459 18 61 212 0 63 64 65 58 ?16 29 62 950 0
 64 58 66 .2868559839104905 .546861031433591 .00599802349108459 18 64 214 0 67 6
8 61 62 ?16 29 66 951 0 68 62 69 .284326323706036 .545400531433591 .005998023491
08459 18 68 216 0 70 71 64 66 ?16 29 69 952 0 71 66 36 .2821266191804235 .544130
531433591 .00853802349108459 18 71 205 0 72 50 68 69 ?16 29 36 953 0 73 69 22 .2
791266191804235 .549326683856297 .00853802349108459 18 73 32 0 74 35 75 36 ?16 1
7 74 0 76 72 77 73 78 33 0 79 -18 35 35 0 77 54 73 22 ?16 18 75 25 0 80 73 81 82
 ?16 17 80 0 44 83 84 75 85 86 0 87 -18 81 27 0 88 75 89 90 ?16 29 82 473 0 75 9
1 90 .2937910381519715 .55779319009703 .01199802349108454 29 91 472 0 92 93 82 .
296283218007639 .562109772228646 -197650891546261e-20 29 90 474 0 81 82 94 .2937
910381519715 .55779319009703 -197650891546261e-20 29 94 476 0 95 90 96 .27912661
91804235 .549326683856297 .01199802349108454 18 95 33 0 97 98 99 94 ?16 29 96 48
0 0 60 94 100 .2860556884361025 .553327183856297 .01199802349108454 18 60 41 0 1
01 102 57 96 ?16 29 100 481 0 102 96 103 .2714645087308515 .544902962325676 -197
650891546261e-20 18 102 44 0 104 99 60 100 ?16 29 103 482 0 99 100 105 .27146450
87308515 .544902962325676 .01199802349108454 18 99 46 0 106 95 102 103 ?16 29 10
5 483 0 107 103 108 .2664801490195165 .544902962325676 .01199802349108454 18 107
 51 0 109 110 98 105 ?16 29 108 484 0 98 105 111 .2664801490195165 .544902962325
676 -197650891546261e-20 18 98 53 0 112 107 95 108 ?16 29 111 485 0 113 108 114
 .2441536195983965 .55779319009703 .01199802349108454 18 113 58 0 115 116 110 11
1 ?16 29 114 486 0 110 111 117 .2441536195983965 .55779319009703 -19765089154626
1e-20 18 110 60 0 118 113 107 114 ?16 29 117 487 0 119 114 120 .241661439742729
 .562109772228646 .01199802349108454 18 119 65 0 121 122 116 117 ?16 29 120 488
 0 116 117 123 .241661439742729 .562109772228646 -197650891546261e-20 18 116 67
 0 124 119 113 120 ?16 29 123 489 0 125 120 126 .2416614397427285 .5878891128862
37 .01199802349108454 18 125 72 0 127 128 122 123 ?16 29 126 490 0 122 123 129 .
2416614397427285 .587889112886237 -197650891546261e-20 18 122 74 0 130 125 119 1
26 ?16 29 129 491 0 131 126 132 .244154585117229 .592207367345528 .0119980234910
8454 18 131 79 0 133 134 128 129 ?16 29 132 492 0 128 129 135 .244154585117229 .
592207367345528 -197650891546261e-20 18 128 81 0 136 131 125 132 ?16 29 135 493
 0 137 132 138 .266480149019516 .605097037674323 .01199802349108454 18 137 86 0
 139 140 134 135 ?16 29 138 494 0 134 135 141 .266480149019516 .605097037674323
 -197650891546261e-20 18 134 88 0 142 137 131 138 ?16 29 141 495 0 143 138 144 .
271464508730852 .605097037674323 .01199802349108454 18 143 93 0 145 146 140 141
 ?16 29 144 496 0 140 141 147 .271464508730852 .605097037674323 -197650891546261
e-20 18 140 95 0 148 143 137 144 ?16 29 147 497 0 146 144 149 .2967910381519715
 .597402962325676 -197650891546261e-20 18 146 141 0 150 151 143 147 ?16 29 149 4
98 0 152 147 153 .2744645087308515 .61029319009703 -197650891546261e-20 18 152 1
42 0 154 155 156 149 ?16 29 153 499 0 151 149 157 .3022832180076395 .58789022777
1353 -197650891546261e-20 18 151 144 0 158 159 146 153 ?16 29 157 500 0 159 153
 160 .3022832180076395 .562109772228646 -197650891546261e-20 18 159 146 0 161 16
2 151 157 ?16 29 160 501 0 162 157 163 .296791038151972 .552597037674323 -197650
891546261e-20 18 162 148 0 164 165 159 160 ?16 29 163 502 0 165 160 166 .2744645
087308515 .539706809902969 -197650891546261e-20 18 165 150 0 167 168 162 163 ?16
 29 166 503 0 168 163 169 .2634801490195165 .539706809902969 -197650891546261e-2
0 18 168 152 0 170 171 165 166 ?16 29 169 504 0 171 166 172 .2411536195983965 .5
52597037674323 -197650891546261e-20 18 171 154 0 173 174 168 169 ?16 29 172 505
 0 174 169 175 .2356614397427285 .562109772228647 -197650891546261e-20 18 174 15
6 0 176 177 171 172 ?16 29 175 506 0 177 172 178 .2356614397427285 .587889112886
237 -197650891546261e-20 18 177 158 0 179 180 174 175 ?16 29 178 507 0 180 175 1
81 .24115458511723 .597403519768236 -197650891546261e-20 18 180 160 0 182 156 17
7 178 ?16 29 181 508 0 156 178 183 .2634801490195165 .61029319009703 -1976508915
46261e-20 18 156 162 0 184 152 180 181 ?16 29 183 509 0 185 181 186 .26348014901
95155 .61029319009703 .01199802349108454 18 185 167 0 187 188 155 183 ?16 29 186
 510 0 155 183 189 .2744645087308515 .61029319009703 .01199802349108454 18 155 1
68 0 45 185 152 186 ?16 29 189 511 0 188 186 190 .24115458511723 .59740351976823
5 .01199802349108454 18 188 174 0 191 192 185 189 ?16 29 190 512 0 192 189 193 .
2356614397427285 .587889112886237 .01199802349108454 18 192 179 0 194 195 188 19
0 ?16 29 193 513 0 195 190 196 .235661439742729 .562109772228647 .01199802349108
454 18 195 184 0 197 198 192 193 ?16 29 196 514 0 198 193 199 .2411536195983965
 .552597037674323 .01199802349108454 18 198 189 0 200 201 195 196 ?16 29 199 515
 0 201 196 202 .2634801490195165 .539706809902969 .01199802349108454 18 201 194
 0 203 204 198 199 ?16 29 202 516 0 204 199 205 .274464508730852 .53970680990296
9 .01199802349108454 18 204 199 0 206 207 201 202 ?16 29 205 517 0 207 202 208 .
2821266191804235 .544130531433591 .01199802349108454 18 207 204 0 209 210 204 20
5 ?16 29 208 519 0 210 205 211 .296791038151972 .552597037674323 .01199802349108
454 18 210 208 0 212 65 207 208 ?16 29 211 520 0 65 208 53 .289055688436103 .548
13103143359 .01199802349108454 18 65 210 0 213 61 210 211 ?16 29 53 524 0 50 211
 51 .302283218007639 .562109772228646 .01199802349108454 18 50 221 0 214 42 71 5
3 ?16 17 214 0 44 46 212 50 215 216 0 217 -15 255 44 243 0 218 219 0 17 46 0 44
 41 214 42 217 220 0 47 +17 212 0 44 214 221 210 222 223 0 215 +17 215 0 224 164
 225 210 214 216 0 226 +16 216 220 0 ?215 227 228 229 0 0 16 17 217 0 230 161 23
1 50 46 220 0 225 -15 230 224 0 217 232 0 17 161 0 230 233 217 159 225 227 0 234
 -17 231 0 230 217 233 42 158 235 0 0 +16 220 225 0 ?46 235 227 236 0 0 16 17 22
5 0 224 215 234 50 161 227 0 0 +15 224 219 0 215 237 0 17 234 0 224 225 164 159
 238 239 0 240 -16 227 222 0 ?225 220 216 241 0 0 16 30 255 241 808 0 227 229 23
6 0 +.3022832180076395 .562109772228646 -197650891546261e-20 0 -612323399573677e
-31 1 31 229 807 0 216 242 241 0 +.2992832180076395 .5575 .01199802349108454 0 6
12323399573677e-31 -1 0 1 612323399573677e-31 .00549999999999959 30 236 809 0 22
0 241 243 0 +.3022832180076395 .575 .01199802349108454 0 1 612323399573677e-31 3
0 243 810 0 235 236 244 0 +.3022832180076395 .587890227771353 -197650891546261e-
20 0 -612323399573677e-31 1 16 235 227 0 ?231 48 220 243 0 0 16 31 244 811 0 48
 243 245 0 +.29928321800764 .5925 .01199802349108454 0 612323399573677e-31 -1 0
 1 612323399573677e-31 .00549999999999982 16 48 230 0 ?47 246 235 244 0 0 16 30
 245 812 0 246 244 247 0 +.2967910381519715 .597402962325676 -197650891546261e-2
0 0 -612323399573677e-31 1 16 246 232 0 ?248 249 48 245 0 0 16 30 247 813 0 249
 245 250 0 +.2856277734414115 .603848076211353 .01199802349108454 -.866025403784
439 .5 3061616997868385e-32 16 249 235 0 ?45 251 246 247 0 0 16 30 250 814 0 251
 247 252 0 +.1506983797122335 .771770919741825 .01199802349108456 -.5 .866025403
784438 530287619362454e-31 16 251 244 0 ?253 254 249 250 0 0 16 30 252 815 0 254
 250 255 0 +.157627448967913 .775771419741825 .01199802349108456 .5 -.8660254037
84438 -530287619362454e-31 16 254 245 0 ?221 256 251 252 0 0 16 30 255 955 0 39
 252 40 0 +.284326323706036 .545400531433591 .00599802349108459 .5 -.86602540378
4438 -530287619362454e-31 16 39 254 0 ?257 24 258 255 0 0 16 30 40 956 0 24 255
 259 0 -.2838559839104905 .552057183856297 .00599802349108459 .5 -.8660254037844
38 -530287619362454e-31 30 259 957 0 260 40 261 0 +.2826277734414115 .5513480762
11353 .00599802349108459 -.866025403784438 -.5 -1084066664152474e-31 16 260 36 0
 ?262 263 33 259 0 0 16 31 261 958 0 263 259 264 0 -.2838559839104905 .552057183
856297 .00853802349108459 -.5 .866025403784438 530287619362454e-31 -.86602540378
4438 -.5 -179394865676554e-47 .00254 16 263 38 0 ?265 266 260 261 0 0 16 30 264
 959 0 258 261 267 0 +.289055688436103 .548131031433591 .00853802349108459 .5 -.
866025403784438 -530287619362454e-31 16 258 251 0 ?268 39 256 264 0 0 16 31 267
 960 0 269 264 270 0 -.2868559839104905 .54686103143359 .00853802349108459 .5 -.
866025403784438 -530287619362454e-31 .866025403784438 .5 179394865676554e-47 .00
254 16 269 213 0 ?271 272 273 267 0 0 16 30 270 961 0 272 267 274 0 +.2856277734
414115 .546151923788646 .00599802349108459 .866025403784438 .5 1084066664152474e
-31 16 272 215 0 ?275 228 269 270 0 0 16 31 274 962 0 228 270 34 0 -.28432632370
6036 .54540053143359 .00853802349108459 .5 -.866025403784438 -530287619362454e-3
1 .866025403784438 .5 179394865676554e-47 .00254 16 228 217 0 ?276 216 272 274 0
 0 16 30 34 963 0 256 274 21 0 -.2791266191804235 .549326683856297 .008538023491
08459 .5 -.866025403784438 -530287619362454e-31 16 256 248 0 ?79 258 254 34 0 0
 16 17 79 0 277 97 278 73 72 256 0 279 +15 277 247 0 278 280 0 17 97 0 277 209 7
9 95 279 281 0 253 +17 278 0 277 79 209 71 282 283 0 276 +17 72 0 76 70 74 71 79
 256 0 278 -17 279 0 284 78 285 73 97 281 0 0 -15 284 30 0 279 286 0 17 78 0 284
 287 279 35 74 33 0 0 +17 285 0 284 279 288 95 106 289 0 0 -16 281 31 0 ?97 33 2
90 291 0 0 16 16 33 34 0 ?78 260 281 21 0 0 16 16 290 28 0 ?292 281 293 294 0 0
 16 30 291 728 0 281 294 295 0 +.2791266191804235 .549326683856297 -197650891546
261e-20 2651438096812275e-32 -459242549680258e-31 1 30 294 727 0 290 296 291 0 +
.2937910381519715 .55779319009703 -197650891546261e-20 0 -612323399573677e-31 1
 30 295 732 0 266 291 297 0 +.286055688436103 .553327183856297 -197650891546261e
-20 -2651438096812275e-32 459242549680258e-31 -1 16 266 40 0 ?298 299 263 295 0
 0 16 30 297 733 0 299 295 300 0 +.2826277734414115 .551348076211353 .0119980234
9108454 -.866025403784439 -.5 -3061616997868395e-32 16 299 42 0 ?83 301 266 297
 0 0 16 30 300 734 0 301 297 302 0 +.2826277734414115 .551348076211353 -19765089
1546261e-20 -.866025403784439 -.5 -3061616997868395e-32 16 301 43 0 ?303 304 299
 300 0 0 16 30 302 735 0 304 300 305 0 +.2714645087308515 .544902962325676 -1976
50891546261e-20 0 -612323399573677e-31 1 16 304 45 0 ?288 289 301 302 0 0 16 30
 305 736 0 289 302 306 0 +.2826277734414115 .551348076211353 .01199802349108454
 -.866025403784439 -.5 -3061616997868395e-32 16 289 47 0 ?106 307 304 305 0 0 16
 31 306 737 0 307 305 308 0 +.2689723288751835 .54 .01199802349108454 0 61232339
9573677e-31 -1 0 1 612323399573677e-31 .00549999999999485 16 307 50 0 ?309 310 2
89 306 0 0 16 31 308 738 0 310 306 311 0 +.2689723288751835 .54 -197650891546261
e-20 0 612323399573677e-31 -1 0 1 612323399573677e-31 .00549999999999485 16 310
 52 0 ?104 312 307 308 0 0 16 30 311 739 0 312 308 313 0 +.2664801490195165 .544
902962325676 -197650891546261e-20 0 -612323399573677e-31 1 16 312 54 0 ?314 315
 310 311 0 0 16 30 313 740 0 315 311 316 0 +.2553168843089565 .551348076211353 .
01199802349108454 -.866025403784438 .5 306161699786841e-31 16 315 57 0 ?115 317
 312 313 0 0 16 30 316 741 0 317 313 318 0 +.2553168843089565 .551348076211353 -
197650891546261e-20 -.866025403784438 .5 306161699786841e-31 16 317 59 0 ?319 32
0 315 316 0 0 16 30 318 742 0 320 316 321 0 +.2441536195983965 .55779319009703 -
197650891546261e-20 0 -612323399573677e-31 1 16 320 61 0 ?322 323 317 318 0 0 16
 31 321 743 0 323 318 324 0 +.238661439742729 .5575 .01199802349108454 0 6123233
99573677e-31 -1 0 1 612323399573677e-31 .00549999999999866 16 323 64 0 ?325 326
 320 321 0 0 16 31 324 744 0 326 321 327 0 +.238661439742729 .5575 -197650891546
261e-20 0 612323399573677e-31 -1 0 1 612323399573677e-31 .00549999999999866 16 3
26 66 0 ?118 328 323 324 0 0 16 30 327 745 0 328 324 329 0 +.241661439742729 .56
2109772228646 -197650891546261e-20 0 -612323399573677e-31 1 16 328 68 0 ?330 331
 326 327 0 0 16 30 329 746 0 331 327 332 0 +.2416614397427285 .574999442557442 .
01199802349108454 -861327711496938e-29 1 612323399573677e-31 16 331 71 0 ?127 33
3 328 329 0 0 16 30 332 747 0 333 329 334 0 +.2416614397427285 .574999442557442
 -197650891546261e-20 -861327711496938e-29 1 612323399573677e-31 16 333 73 0 ?33
5 336 331 332 0 0 16 30 334 748 0 336 332 337 0 +.2416614397427285 .587889112886
237 -197650891546261e-20 0 -612323399573677e-31 1 16 336 75 0 ?338 339 333 334 0
 0 16 31 337 749 0 339 334 340 0 +.2386614397427235 .5925 .01199802349108454 0 6
12323399573677e-31 -1 0 1 612323399573677e-31 .00550093446388123 16 339 78 0 ?34
1 342 336 337 0 0 16 31 340 750 0 342 337 343 0 +.2386614397427235 .5925 -197650
891546261e-20 0 612323399573677e-31 -1 0 1 612323399573677e-31 .0055009344638812
3 16 342 80 0 ?130 344 339 340 0 0 16 30 343 751 0 344 340 345 0 +.2441545851172
29 .592207367345528 -197650891546261e-20 0 -612323399573677e-31 1 16 344 82 0 ?3
46 347 342 343 0 0 16 30 345 752 0 347 343 348 0 +.2553173670683725 .59865220250
9925 .01199802349108454 .866025403784439 .5 306161699786835e-31 16 347 85 0 ?139
 349 344 345 0 0 16 30 348 753 0 349 345 350 0 +.2553173670683725 .5986522025099
25 -197650891546261e-20 .866025403784439 .5 306161699786835e-31 16 349 87 0 ?351
 352 347 348 0 0 16 30 350 754 0 352 348 353 0 +.266480149019516 .60509703767432
3 -197650891546261e-20 0 -612323399573677e-31 1 16 352 89 0 ?354 355 349 350 0 0
 16 31 353 755 0 355 350 356 0 +.268972328875185 .609999999999988 .0119980234910
8454 0 612323399573677e-31 -1 0 1 612323399573677e-31 .00549999999998901 16 355
 92 0 ?357 358 352 353 0 0 16 31 356 756 0 358 353 359 0 +.268972328875185 .6099
99999999988 -197650891546261e-20 0 612323399573677e-31 -1 0 1 612323399573677e-3
1 .00549999999998901 16 358 94 0 ?142 360 355 356 0 0 16 30 359 757 0 360 356 36
1 0 +.271464508730852 .605097037674323 -197650891546261e-20 0 -612323399573677e-
31 1 16 360 96 0 ?362 363 358 359 0 0 16 30 361 758 0 363 359 364 0 +.2826277734
41412 .598651923788646 .01199802349108454 .866025403784439 -.5 -3061616997868385
e-32 16 363 99 0 ?365 366 360 361 0 0 16 30 364 759 0 366 361 367 0 +.2826277734
41412 .598651923788646 -197650891546261e-20 .866025403784439 -.5 -30616169978683
85e-32 16 366 100 0 ?368 369 363 364 0 0 16 31 367 760 0 369 364 370 0 +.2386614
397427285 .5925 .01199802349108454 0 612323399573677e-31 -1 0 1 612323399573677e
-31 .002500934463876175 16 369 103 0 ?371 372 366 367 0 0 16 31 370 761 0 372 36
7 373 0 +.2386614397427285 .5925 -197650891546261e-20 0 -612323399573677e-31 1 0
 1 612323399573677e-31 .002500934463876225 16 372 105 0 ?374 375 369 370 0 0 16
 31 373 762 0 375 370 376 0 +.2992832180076395 .5575 .01199802349108454 0 612323
399573677e-31 -1 0 1 612323399573677e-31 .002499999999999945 16 375 108 0 ?377 3
78 372 373 0 0 16 31 376 763 0 378 373 379 0 +.2992832180076395 .5575 -197650891
546261e-20 0 -612323399573677e-31 1 0 1 612323399573677e-31 .002499999999999945
 16 378 110 0 ?380 381 375 376 0 0 16 31 379 764 0 381 376 382 0 +.2386614397427
29 .5575 .01199802349108454 0 612323399573677e-31 -1 0 1 612323399573677e-31 .00
2499999999999945 16 381 113 0 ?383 384 378 379 0 0 16 31 382 765 0 384 379 385 0
 +.238661439742729 .5575 -197650891546261e-20 0 -612323399573677e-31 1 0 1 61232
3399573677e-31 .002499999999999945 16 384 115 0 ?386 387 381 382 0 0 16 31 385 7
66 0 387 382 388 0 +.268972328875184 .54 .01199802349108454 0 612323399573677e-3
1 -1 0 1 612323399573677e-31 .002499999999999945 16 387 118 0 ?389 390 384 385 0
 0 16 31 388 767 0 390 385 391 0 +.268972328875184 .54 -197650891546261e-20 0 -6
12323399573677e-31 1 0 1 612323399573677e-31 .002499999999999945 16 390 120 0 ?3
92 393 387 388 0 0 16 31 391 768 0 393 388 394 0 +.2992832180076395 .5925 .01199
802349108454 0 612323399573677e-31 -1 0 1 612323399573677e-31 .00249999999999994
5 16 393 123 0 ?395 396 390 391 0 0 16 31 394 769 0 396 391 397 0 +.299283218007
6395 .5925 -197650891546261e-20 0 -612323399573677e-31 1 0 1 612323399573677e-31
 .002499999999999945 16 396 125 0 ?398 399 393 394 0 0 16 31 397 770 0 399 394 4
00 0 +.268972328875184 .61 .01199802349108454 0 612323399573677e-31 -1 0 1 61232
3399573677e-31 .002499999999999945 16 399 128 0 ?401 402 396 397 0 0 16 31 400 7
71 0 402 397 403 0 +.268972328875184 .61 -197650891546261e-20 0 -612323399573677
e-31 1 0 1 612323399573677e-31 .002499999999999945 16 402 130 0 ?404 405 399 400
 0 0 16 30 403 772 0 405 400 406 0 +.2856277734414115 .603848076211353 -19765089
1546261e-20 -.866025403784439 .5 3061616997868385e-32 16 405 140 0 ?154 407 402
 403 0 0 16 31 406 773 0 407 403 408 0 +.29928321800764 .5925 -197650891546261e-
20 0 612323399573677e-31 -1 0 1 612323399573677e-31 .00549999999999982 16 407 14
3 0 ?409 410 405 406 0 0 16 30 408 774 0 410 406 411 0 +.3022832180076395 .575 -
197650891546261e-20 0 1 612323399573677e-31 16 410 145 0 ?233 239 407 408 0 0 16
 31 411 775 0 239 408 412 0 +.2992832180076395 .5575 -197650891546261e-20 0 6123
23399573677e-31 -1 0 1 612323399573677e-31 .00549999999999959 16 239 147 0 ?238
 413 410 411 0 0 16 30 412 776 0 413 411 414 0 +.2856277734414115 .5461519237886
46 -197650891546261e-20 .866025403784439 .5 3061616997868395e-32 16 413 149 0 ?4
15 416 239 412 0 0 16 31 414 777 0 416 412 417 0 +.2689723288751845 .54 -1976508
91546261e-20 0 612323399573677e-31 -1 0 1 612323399573677e-31 .00549999999999969
 16 416 151 0 ?418 419 413 414 0 0 16 30 417 778 0 419 414 420 0 +.2523168843089
565 .546151923788646 -197650891546261e-20 -.866025403784438 .5 306161699786841e-
31 16 419 153 0 ?421 422 416 417 0 0 16 31 420 779 0 422 417 423 0 +.23866143974
2729 .5575 -197650891546261e-20 0 612323399573677e-31 -1 0 1 612323399573677e-31
 .00550000000000039 16 422 155 0 ?424 425 419 420 0 0 16 30 423 780 0 425 420 42
6 0 +.2356614397427285 .574999442557442 -197650891546261e-20 86132771149694e-28
 -1 -612323399573677e-31 16 425 157 0 ?427 428 422 423 0 0 16 31 426 781 0 428 4
23 429 0 +.238661439742729 .5925 -197650891546261e-20 0 612323399573677e-31 -1 0
 1 612323399573677e-31 .00550093446387726 16 428 159 0 ?430 431 425 426 0 0 16 3
0 429 782 0 431 426 432 0 +.2523173670683725 .603848354932632 -197650891546261e-
20 -.866025403784439 -.5 -306161699786836e-31 16 431 161 0 ?433 434 428 429 0 0
 16 31 432 783 0 434 429 435 0 +.268972328875183 .61 -197650891546261e-20 0 6123
23399573677e-31 -1 0 1 612323399573677e-31 .00549999999999931 16 434 163 0 ?436
 437 431 432 0 0 16 31 435 784 0 437 432 438 0 +.268972328875183 .61 .0119980234
9108454 0 612323399573677e-31 -1 0 1 612323399573677e-31 .00549999999999931 16 4
37 166 0 ?439 440 434 435 0 0 16 30 438 785 0 440 435 441 0 +.2744645087308515 .
61029319009703 -197650891546261e-20 0 -612323399573677e-31 1 16 440 169 0 ?442 4
43 437 438 0 0 16 30 441 786 0 443 438 444 0 +.2634801490195165 .61029319009703
 -197650891546261e-20 0 -612323399573677e-31 1 16 443 170 0 ?445 446 440 441 0 0
 16 30 444 787 0 446 441 447 0 +.2523173670683725 .603848354932632 .011998023491
08454 -.866025403784439 -.5 -306161699786836e-31 16 446 173 0 ?191 448 443 444 0
 0 16 30 447 788 0 448 444 449 0 +.24115458511723 .597403519768236 -197650891546
261e-20 0 -612323399573677e-31 1 16 448 175 0 ?450 451 446 447 0 0 16 31 449 789
 0 451 447 452 0 +.238661439742729 .5925 .01199802349108454 0 612323399573677e-3
1 -1 0 1 612323399573677e-31 .00550093446387726 16 451 178 0 ?453 454 448 449 0
 0 16 30 452 790 0 454 449 455 0 +.2356614397427285 .587889112886237 -1976508915
46261e-20 0 -612323399573677e-31 1 16 454 180 0 ?456 457 451 452 0 0 16 30 455 7
91 0 457 452 458 0 +.2356614397427285 .574999442557442 .01199802349108454 861327
71149694e-28 -1 -612323399573677e-31 16 457 183 0 ?197 459 454 455 0 0 16 30 458
 792 0 459 455 460 0 +.2356614397427285 .562109772228647 -197650891546261e-20 0
 -612323399573677e-31 1 16 459 185 0 ?461 462 457 458 0 0 16 31 460 793 0 462 45
8 463 0 +.238661439742729 .5575 .01199802349108454 0 612323399573677e-31 -1 0 1
 612323399573677e-31 .00550000000000039 16 462 188 0 ?464 465 459 460 0 0 16 30
 463 794 0 465 460 466 0 +.2411536195983965 .552597037674323 -197650891546261e-2
0 0 -612323399573677e-31 1 16 465 190 0 ?467 468 462 463 0 0 16 30 466 795 0 468
 463 469 0 +.2523168843089565 .546151923788646 .01199802349108454 -.866025403784
438 .5 306161699786841e-31 16 468 193 0 ?470 471 465 466 0 0 16 30 469 796 0 471
 466 472 0 +.2634801490195165 .539706809902969 -197650891546261e-20 0 -612323399
573677e-31 1 16 471 195 0 ?473 474 468 469 0 0 16 31 472 797 0 474 469 475 0 +.2
689723288751845 .54 .01199802349108454 0 612323399573677e-31 -1 0 1 612323399573
677e-31 .00549999999999969 16 474 198 0 ?476 477 471 472 0 0 16 30 475 798 0 477
 472 478 0 +.2744645087308515 .539706809902969 -197650891546261e-20 0 -612323399
573677e-31 1 16 477 200 0 ?479 283 474 475 0 0 16 30 478 799 0 283 475 480 0 +.2
821266191804235 .544130531433591 .00599854349108454 0 0 -1 16 283 203 0 ?278 481
 477 478 0 0 16 30 480 800 0 481 478 482 0 +.2856277734414115 .546151923788646 .
01199802349108454 .866025403784439 .5 3061616997868395e-32 16 481 206 0 ?218 483
 283 480 0 0 16 30 482 801 0 483 480 484 0 +.296791038151972 .552597037674323 -1
97650891546261e-20 0 -612323399573677e-31 1 16 483 207 0 ?226 223 481 482 0 0 16
 30 484 802 0 223 482 242 0 +.2856277734414115 .546151923788646 .011998023491084
54 .866025403784439 .5 3061616997868395e-32 16 223 209 0 ?212 273 483 484 0 0 16
 30 242 803 0 273 484 229 0 +.289055688436103 .548131031433591 .0059985434910845
4 0 0 1 16 273 211 0 ?213 269 223 242 0 0 16 17 213 0 485 101 268 65 486 273 0 2
21 +15 485 250 0 298 487 0 17 101 0 485 298 213 60 221 254 0 83 -17 268 0 485 21
3 298 61 59 258 0 486 +17 486 0 488 271 222 61 213 273 0 0 -17 221 0 44 212 83 6
5 101 254 0 222 +17 83 0 44 221 80 60 87 299 0 489 +17 222 0 488 486 226 65 212
 223 0 0 -15 488 202 0 282 490 0 17 226 0 488 222 415 210 164 483 0 0 +17 415 0
 488 226 167 162 491 413 0 238 +17 164 0 224 234 215 162 226 483 0 415 -17 167 0
 488 415 492 165 479 477 0 493 -17 491 0 494 418 238 165 415 413 0 0 -17 238 0 4
94 491 240 162 234 239 0 0 +15 494 139 0 495 496 0 17 240 0 494 238 409 159 233
 410 0 0 -17 409 0 494 240 495 151 497 407 0 0 +17 233 0 230 231 161 151 240 410
 0 409 +17 495 0 494 409 436 146 154 405 0 0 -17 497 0 498 248 158 146 409 407 0
 495 -15 498 229 0 47 499 0 17 248 0 498 47 497 25 150 246 0 0 +17 158 0 498 497
 47 151 231 235 0 233 -17 47 0 498 158 248 42 41 48 0 231 +17 150 0 500 154 49 1
46 248 246 0 497 -15 500 234 0 49 501 0 17 154 0 500 442 150 152 495 405 0 502 +
17 49 0 500 150 442 25 45 249 0 248 -17 442 0 500 49 154 155 502 440 0 439 +17 4
5 0 44 187 41 155 49 249 0 442 +17 187 0 44 191 45 185 439 437 0 503 -17 191 0 4
4 194 187 188 503 446 0 453 +17 439 0 504 502 445 155 187 437 0 0 +17 503 0 505
 184 450 185 191 446 0 445 -15 505 172 0 503 506 0 17 184 0 505 433 503 156 445
 443 0 507 -17 450 0 505 503 433 188 182 448 0 0 +17 445 0 504 439 507 185 184 4
43 0 0 +15 504 165 0 439 508 0 17 507 0 504 445 502 156 436 434 0 509 -17 502 0
 504 507 439 152 442 440 0 436 -17 436 0 494 495 509 152 507 434 0 0 +17 509 0 4
94 436 430 156 433 431 0 0 -17 430 0 494 509 510 180 511 428 0 0 +17 433 0 505 4
50 184 180 509 431 0 430 +17 510 0 494 430 424 177 427 425 0 0 -17 511 0 512 456
 182 177 430 428 0 510 -15 512 177 0 453 513 0 17 456 0 512 453 511 192 179 454
 0 0 +17 182 0 512 511 453 180 450 448 0 433 -17 453 0 512 182 456 188 194 451 0
 450 +17 194 0 44 197 191 192 453 451 0 514 -17 197 0 44 200 194 195 514 457 0 4
64 +17 514 0 515 179 461 192 197 457 0 456 -15 515 182 0 514 516 0 17 179 0 515
 427 514 177 456 454 0 511 -17 461 0 515 514 427 195 176 459 0 0 +17 427 0 515 4
61 179 174 510 425 0 424 +17 176 0 517 518 464 174 461 459 0 427 -15 517 187 0 4
64 519 0 17 518 0 517 467 176 171 424 422 0 421 -17 464 0 517 176 467 195 200 46
2 0 461 +17 467 0 517 464 518 198 173 465 0 0 +17 200 0 44 203 197 198 464 462 0
 470 -17 203 0 44 206 200 201 470 468 0 476 -17 470 0 520 173 473 198 203 468 0
 467 +15 520 192 0 470 521 0 17 173 0 520 522 470 171 467 465 0 518 -17 473 0 52
0 470 522 201 170 471 0 0 +17 522 0 520 473 173 168 421 419 0 418 -17 170 0 523
 493 476 168 473 471 0 522 -15 523 197 0 476 524 0 17 493 0 523 479 170 165 418
 416 0 491 -17 476 0 523 170 479 201 206 474 0 473 +17 479 0 523 476 493 204 167
 477 0 0 +17 206 0 44 218 203 204 476 474 0 492 -17 218 0 44 253 206 207 492 481
 0 282 +17 492 0 488 167 282 204 218 481 0 479 -17 282 0 488 492 276 207 278 283
 0 0 -17 276 0 488 282 525 71 70 228 0 0 +17 525 0 488 276 271 68 275 272 0 0 -1
7 70 0 76 77 72 68 276 228 0 257 -15 76 257 0 74 526 0 17 77 0 76 74 70 35 257 3
9 0 262 -17 257 0 527 275 262 68 77 39 0 525 +15 527 253 0 262 528 0 17 275 0 52
7 38 257 64 525 272 0 271 +17 262 0 527 257 38 35 287 260 0 78 +17 38 0 527 262
 275 54 67 24 0 287 +17 287 0 284 265 78 54 262 260 0 0 -17 265 0 284 489 287 57
 56 263 0 0 +17 489 0 284 87 265 60 298 266 0 0 -17 56 0 529 67 59 54 265 263 0
 38 -15 529 259 0 56 31 0 17 67 0 529 63 56 64 38 24 0 275 -17 59 0 529 56 63 57
 268 258 0 298 -17 63 0 529 59 67 61 271 269 0 268 -17 298 0 485 268 101 57 489
 266 0 265 +17 271 0 488 525 486 64 63 269 0 0 +14 255 31 258 530 ?0 526 529 19
 20 -0 0 0 526 37 81 1 530 1040 531 31 532 0 533 0 534 14 526 256 533 ?31 528 76
 19 32 -0 0 31 528 37 13 37 4 0 0 0 0 0 0 23 29 14 29 5 535 ?536 0 537 19 538 +0
 0 536 0 37 81 1 535 968 531 29 539 0 0 540 541 14 536 15 540 ?542 29 543 19 544
 +0 0 542 29 37 15 537 6 0 545 29 0 51 538 527 0 29 0 544 0 +.2992832180076355 .
5925 -197650891546261e-20 0 -612323399573677e-31 1 .00549999999999453 0 -1 -6123
23399573677e-31 50 255 544 538 0 536 538 546 0 +.2962832180076395 .575 -19765089
1546261e-20 -1 0 0 0 1 612323399573677e-31 51 546 543 0 542 544 547 0 +.29928321
800764 .5575 -197650891546261e-20 0 -612323399573677e-31 1 .0055000000000006 0 -
1 -612323399573677e-31 14 542 22 548 ?286 536 549 19 546 +0 0 286 536 37 50 547
 548 0 286 546 550 0 +.2826277734414115 .551348076211353 -197650891546261e-20 -.
5 .866025403784438 530287619362454e-31 .866025403784438 .5 30616169978684e-30 14
 286 29 551 ?552 542 284 19 547 +0 0 552 542 37 51 550 553 0 552 547 553 0 +.268
9723288751835 .54 -197650891546261e-20 0 -612323399573677e-31 1 .005499999999994
85 0 -1 -612323399573677e-31 14 552 48 554 ?555 286 556 19 550 +0 0 555 286 37 5
0 553 558 0 555 550 557 0 +.2553168843089565 .551348076211353 -197650891546261e-
20 .5 .866025403784438 530287619362453e-31 .866025403784438 -.5 -306161699786841
e-31 14 555 55 558 ?559 552 560 19 553 +0 0 559 552 37 51 557 563 0 559 553 561
 0 +.238661439742729 .5575 -197650891546261e-20 0 -612323399573677e-31 1 .005499
99999999866 0 -1 -612323399573677e-31 14 559 62 562 ?563 555 564 19 557 +0 0 563
 555 37 50 561 568 0 563 557 565 0 +.2416614397427285 .574999442557442 -19765089
1546261e-20 1 861327711496938e-29 52741111245082e-44 861327711496938e-29 -1 -612
323399573677e-31 14 563 69 566 ?567 559 568 19 561 +0 0 567 559 37 51 565 573 0
 567 561 569 0 +.2386614397427235 .5925 -197650891546261e-20 0 -612323399573677e
-31 1 .00550093446388123 0 -1 -612323399573677e-31 14 567 76 570 ?571 563 572 19
 565 +0 0 571 563 37 50 569 578 0 571 565 573 0 +.2553173670683725 .598652202509
925 -197650891546261e-20 .5 -.866025403784439 -530287619362454e-31 -.86602540378
4439 -.5 -306161699786835e-31 14 571 83 574 ?575 567 576 19 569 +0 0 575 567 37
 51 573 583 0 575 569 577 0 +.268972328875185 .609999999999988 -197650891546261e
-20 0 -612323399573677e-31 1 .00549999999998901 0 -1 -612323399573677e-31 14 575
 90 578 ?579 571 580 19 573 +0 0 579 571 37 50 577 588 0 579 573 581 0 +.2826277
73441412 .598651923788646 -197650891546261e-20 -.5 -.866025403784439 -5302876193
62453e-31 -.866025403784439 .5 3061616997868385e-32 14 579 97 582 ?583 575 584 1
9 577 +0 0 583 575 37 51 581 593 0 583 577 585 0 +.2386614397427285 .5925 .03699
80234910844 0 0 -1 .002500934463876175 -1 0 0 14 583 101 586 ?587 579 588 19 581
 -0 0 587 579 37 51 585 598 0 587 581 589 0 +.2992832180076395 .5575 .0369980234
910844 0 0 -1 .002499999999999945 -1 0 0 14 587 106 590 ?591 583 592 19 585 -0 0
 591 583 37 51 589 603 0 591 585 593 0 +.238661439742729 .5575 .0369980234910844
 0 0 -1 .002499999999999945 -1 0 0 14 591 111 594 ?595 587 596 19 589 -0 0 595 5
87 37 51 593 608 0 595 589 597 0 +.268972328875184 .54 .0369980234910844 0 0 -1
 .002499999999999945 -1 0 0 14 595 116 598 ?599 591 600 19 593 -0 0 599 591 37 5
1 597 613 0 599 593 601 0 +.2992832180076395 .5925 .0369980234910844 0 0 -1 .002
499999999999945 -1 0 0 14 599 121 602 ?603 595 604 19 597 -0 0 603 595 37 51 601
 618 0 603 597 605 0 +.268972328875184 .61 .0369980234910844 0 0 -1 .00249999999
9999945 -1 0 0 14 603 126 606 ?496 599 607 19 601 -0 0 496 599 37 50 605 623 0 4
96 601 608 0 +-.346 .485001976508915 -197650891546261e-20 0 612323399573677e-31
 -1 -1 0 0 14 496 131 609 ?508 603 610 19 605 +0 0 508 603 37 51 608 628 0 508 6
05 611 0 +.268972328875183 .61 -197650891546261e-20 0 -612323399573677e-31 1 .00
549999999999931 0 -1 -612323399573677e-31 14 508 164 612 ?506 496 504 19 608 +0
 0 506 496 37 50 611 633 0 506 608 613 0 +.2523173670683725 .603848354932632 -19
7650891546261e-20 -.5 .866025403784439 530287619362453e-31 .866025403784439 .5 3
06161699786836e-31 14 506 171 614 ?513 508 505 19 611 +0 0 513 508 37 51 613 638
 0 513 611 615 0 +.238661439742729 .5925 -197650891546261e-20 0 -612323399573677
e-31 1 .00550093446387726 0 -1 -612323399573677e-31 14 513 176 616 ?516 506 512
 19 613 +0 0 516 506 37 50 615 643 0 516 613 617 0 +.2356614397427285 .574999442
557442 -197650891546261e-20 -1 -86132771149694e-28 -527411112450821e-45 -8613277
1149694e-28 1 612323399573677e-31 14 516 181 618 ?519 513 515 19 615 +0 0 519 51
3 37 51 617 648 0 519 615 619 0 +.238661439742729 .5575 -197650891546261e-20 0 -
612323399573677e-31 1 .00550000000000039 0 -1 -612323399573677e-31 14 519 186 62
0 ?521 516 517 19 617 +0 0 521 516 37 50 619 653 0 521 617 621 0 +.2523168843089
565 .546151923788646 -197650891546261e-20 .5 .866025403784438 530287619362453e-3
1 .866025403784438 -.5 -306161699786841e-31 14 521 191 622 ?524 519 520 19 619 -
0 0 524 519 37 51 621 658 0 524 619 623 0 +.2689723288751845 .54 -19765089154626
1e-20 0 -612323399573677e-31 1 .00549999999999969 0 -1 -612323399573677e-31 14 5
24 196 624 ?490 521 523 19 621 +0 0 490 521 37 50 623 663 0 490 621 625 0 +.2856
277734414115 .546151923788646 -197650891546261e-20 .5 -.866025403784438 -5302876
19362454e-31 -.866025403784438 -.5 -30616169978684e-30 14 490 201 626 ?237 524 4
88 19 623 +0 0 237 524 37 51 625 668 0 237 623 627 0 +.2992832180076395 .5575 -1
97650891546261e-20 0 -612323399573677e-31 1 .00549999999999959 0 -1 -61232339957
3677e-31 14 237 218 628 ?232 490 224 19 625 +0 0 232 490 37 50 627 673 0 232 625
 629 0 +.3022832180076395 .575 -197650891546261e-20 1 0 0 0 -1 -612323399573677e
-31 14 232 223 630 ?499 237 230 19 627 +0 0 499 237 37 51 629 678 0 499 627 631
 0 +.29928321800764 .5925 -197650891546261e-20 0 -612323399573677e-31 1 .0054999
9999999982 0 -1 -612323399573677e-31 14 499 228 632 ?501 232 498 19 629 +0 0 501
 232 37 50 631 683 0 501 629 633 0 +.2856277734414115 .603848076211353 -19765089
1546261e-20 .5 .866025403784439 530287619362453e-31 .866025403784439 -.5 -306161
6997868385e-32 14 501 233 634 ?219 499 500 19 631 +0 0 219 499 37 50 633 688 0 2
19 631 635 0 +-.346 .485001976508915 .01199802349108454 0 612323399573677e-31 -1
 -1 0 0 14 219 236 636 ?280 501 637 19 633 -0 0 280 501 37 50 635 693 0 280 633
 638 0 +.2783166191804235 .550729645010428 .00599854349108454 -.866025403784438
 -.5 0 .5 -.866025403784438 0 14 280 246 639 ?487 219 277 19 635 -0 0 487 219 37
 50 638 698 0 487 635 640 0 +.285245688436103 .554730145010428 .0059985434910845
4 .866025403784438 .5 0 -.5 .866025403784438 0 14 487 249 641 ?528 280 485 19 63
8 -0 0 528 280 37 50 640 946 0 528 638 32 0 +.2783166191804235 .550729645010428
 .00599802349108459 673685460870668e-31 1001275881756496e-31 -1 845407106211525e
-64 1 1001275881756496e-31 14 528 252 642 ?526 487 527 19 640 -0 0 526 487 37 51
 32 965 0 526 640 20 0 +.280516323706036 .551999645010428 .00853802349108459 -.5
 .866025403784438 530287619362454e-31 .00254 -.866025403784438 -.5 4369027165273
605e-48 81 1 642 1036 531 528 643 0 641 533 644 80 7 CCCCCDI12 legal_owners0 16
 1 lCZ1 531 645 646 8015 0 0 0 0 3 5 0 0 0 FFFFTFFFFFFFFFFF2 81 1 643 1035 647 5
28 648 642 649 650 651 81 1 641 1034 531 487 649 0 639 642 652 81 1 533 1038 531
 526 650 0 642 530 653 83 255 1 644 0 81 1 650 1037 647 526 654 533 643 532 655
 83 1 653 0 80 1 647 0 656 8001 0 0 0 0 3 5 0 0 0 FFFFTFTFFFFFFFFF2 81 1 654 894
 657 526 0 650 648 658 659 81 1 532 1039 647 31 658 530 650 0 660 83 3 655 1 1 1
 81 1 658 896 657 31 0 532 654 661 662 83 3 660 1 1 1 80 1 657 663 664 9000 0 0
 0 0 3 6 0 0 0 TFTTTTTTFFFFTTFF3 81 1 661 898 657 499 0 665 658 666 667 84 255 1
1 662 {66}@3b@{2}81 1 665 1025 647 499 661 632 668 669 670 81 1 666 900 657 232
 0 668 661 671 672 84 12 667 {66}@1e@{1d}81 1 668 1023 647 232 666 630 673 665 6
74 81 1 671 902 657 237 0 673 666 675 676 84 12 672 {66}@1e@{1c}81 1 673 1021 64
7 237 671 628 677 668 678 81 1 675 904 657 490 0 677 671 0 679 84 12 676 {66}@1e
@{1b}81 1 677 1019 647 490 675 626 680 673 681 84 12 679 {66}@1e@{1a}81 1 626 10
20 531 490 677 0 624 628 682 81 1 680 1017 647 524 683 624 684 677 685 83 3 681
 .1529411764705885 .1529411764705885 .1529411764705885 81 1 683 834 657 524 0 68
0 686 687 688 81 1 624 1018 531 524 680 0 622 626 689 81 1 684 1015 647 521 686
 622 690 680 691 83 3 685 .1529411764705885 .1529411764705885 .1529411764705885
 81 1 686 832 657 521 0 684 692 683 693 81 1 622 1016 531 521 684 0 620 624 694
 81 1 690 1013 647 519 687 620 695 684 696 83 3 691 .1529411764705885 .152941176
4705885 .1529411764705885 81 1 687 836 657 519 0 690 683 697 698 81 1 620 1014 5
31 519 690 0 618 622 699 81 1 695 1011 647 516 700 618 701 690 702 83 3 696 .152
9411764705885 .1529411764705885 .1529411764705885 81 1 700 882 657 516 0 695 703
 704 705 81 1 618 1012 531 516 695 0 616 620 706 81 1 701 1009 647 513 703 616 7
07 695 708 83 3 702 .1529411764705885 .1529411764705885 .1529411764705885 81 1 7
03 880 657 513 0 701 709 700 710 81 1 616 1010 531 513 701 0 614 618 711 81 1 70
7 1007 647 506 709 614 712 701 713 83 3 708 .1529411764705885 .1529411764705885
 .1529411764705885 81 1 709 878 657 506 0 707 714 703 715 81 1 614 1008 531 506
 707 0 612 616 716 81 1 712 1005 647 508 714 612 717 707 718 83 3 713 .152941176
4705885 .1529411764705885 .1529411764705885 81 1 714 876 657 508 0 712 719 709 7
20 81 1 612 1006 531 508 712 0 609 614 721 81 1 717 1003 647 496 719 609 722 712
 723 83 3 718 .1529411764705885 .1529411764705885 .1529411764705885 81 1 719 874
 657 496 0 717 724 714 725 81 1 609 1004 531 496 717 0 606 612 726 81 1 722 1001
 647 603 724 606 727 717 728 83 3 723 .1529411764705885 .1529411764705885 .15294
11764705885 81 1 724 872 657 603 0 722 729 719 730 81 1 606 1002 531 603 722 0 6
02 609 731 81 1 727 999 647 599 729 602 732 722 733 83 3 728 .1529411764705885 .
1529411764705885 .1529411764705885 81 1 729 870 657 599 0 727 734 724 735 81 1 6
02 1000 531 599 727 0 598 606 736 81 1 732 997 647 595 734 598 737 727 738 83 3
 733 .1529411764705885 .1529411764705885 .1529411764705885 81 1 734 868 657 595
 0 732 739 729 740 81 1 598 998 531 595 732 0 594 602 741 81 1 737 995 647 591 7
39 594 742 732 743 83 3 738 .1529411764705885 .1529411764705885 .152941176470588
5 81 1 739 866 657 591 0 737 744 734 745 81 1 594 996 531 591 737 0 590 598 746
 81 1 742 993 647 587 744 590 747 737 748 83 3 743 .1529411764705885 .1529411764
705885 .1529411764705885 81 1 744 864 657 587 0 742 749 739 750 81 1 590 994 531
 587 742 0 586 594 751 81 1 747 991 647 583 749 586 752 742 753 83 3 748 .152941
1764705885 .1529411764705885 .1529411764705885 81 1 749 862 657 583 0 747 754 74
4 755 81 1 586 992 531 583 747 0 582 590 756 81 1 752 989 647 579 754 582 757 74
7 758 83 3 753 .1529411764705885 .1529411764705885 .1529411764705885 81 1 754 86
0 657 579 0 752 759 749 760 81 1 582 990 531 579 752 0 578 586 761 81 1 757 987
 647 575 759 578 762 752 763 83 3 758 .1529411764705885 .1529411764705885 .15294
11764705885 81 1 759 858 657 575 0 757 764 754 765 81 1 578 988 531 575 757 0 57
4 582 766 81 1 762 985 647 571 764 574 767 757 768 83 3 763 .1529411764705885 .1
529411764705885 .1529411764705885 81 1 764 856 657 571 0 762 769 759 770 81 1 57
4 986 531 571 762 0 570 578 771 81 1 767 983 647 567 769 570 772 762 773 83 3 76
8 .1529411764705885 .1529411764705885 .1529411764705885 81 1 769 854 657 567 0 7
67 774 764 775 81 1 570 984 531 567 767 0 566 574 776 81 1 772 981 647 563 774 5
66 777 767 778 83 3 773 .1529411764705885 .1529411764705885 .1529411764705885 81
 1 774 852 657 563 0 772 779 769 780 81 1 566 982 531 563 772 0 562 570 781 81 1
 777 979 647 559 779 562 782 772 783 83 3 778 .1529411764705885 .152941176470588
5 .1529411764705885 81 1 779 850 657 559 0 777 784 774 785 81 1 562 980 531 559
 777 0 558 566 786 81 1 782 977 647 555 784 558 787 777 788 83 3 783 .1529411764
705885 .1529411764705885 .1529411764705885 81 1 784 848 657 555 0 782 789 779 79
0 81 1 558 978 531 555 782 0 554 562 791 81 1 787 975 647 552 789 554 792 782 79
3 83 3 788 .1529411764705885 .1529411764705885 .1529411764705885 81 1 789 846 65
7 552 0 787 794 784 795 81 1 554 976 531 552 787 0 551 558 796 81 1 792 973 647
 286 794 551 797 787 798 83 3 793 .1529411764705885 .1529411764705885 .152941176
4705885 81 1 794 844 657 286 0 792 799 789 800 81 1 551 974 531 286 792 0 548 55
4 801 81 1 797 971 647 542 799 548 802 792 803 83 3 798 .1529411764705885 .15294
11764705885 .1529411764705885 81 1 799 842 657 542 0 797 804 794 805 81 1 548 97
2 531 542 797 0 540 551 806 81 1 802 969 647 536 804 540 539 797 807 83 3 803 .1
529411764705885 .1529411764705885 .1529411764705885 81 1 804 840 657 536 0 802 6
97 799 808 81 1 540 970 531 536 802 0 535 548 809 81 1 539 967 647 29 697 535 0
 802 810 83 3 807 .1529411764705885 .1529411764705885 .1529411764705885 81 1 697
 838 657 29 0 539 687 804 811 83 3 810 .1529411764705885 .1529411764705885 .1529
411764705885 84 11 811 {66}@1e@{0}83 1 809 0 84 11 808 {66}@1e@{1}83 1 806 0 84
 11 805 {66}@1e@{2}83 1 801 0 84 11 800 {66}@1e@{3}83 1 796 0 84 11 795 {66}@1e@
{4}83 1 791 0 84 11 790 {66}@1e@{5}83 1 786 0 84 11 785 {66}@1e@{6}83 1 781 0 84
 11 780 {66}@1e@{7}83 1 776 0 84 11 775 {66}@1e@{8}83 1 771 0 84 11 770 {66}@1e@
{9}83 1 766 0 84 11 765 {66}@1e@{a}83 1 761 0 84 11 760 {66}@1e@{b}83 1 756 0 84
 11 755 {66}@1e@{c}83 1 751 0 84 11 750 {66}@1e@{d}83 1 746 0 84 11 745 {66}@1e@
{e}83 1 741 0 84 11 740 {66}@1e@{f}83 1 736 0 84 12 735 {66}@1e@{10}83 1 731 0 8
4 12 730 {66}@1e@{11}83 1 726 0 84 12 725 {66}@1e@{12}83 1 721 0 84 12 720 {66}@
1e@{13}83 1 716 0 84 12 715 {66}@1e@{14}83 1 711 0 84 12 710 {66}@1e@{15}83 1 70
6 0 81 1 704 884 657 219 0 812 700 813 814 84 12 705 {66}@1e@{16}81 1 812 1029 6
47 219 704 636 669 815 816 81 1 813 886 657 280 0 815 704 817 818 84 12 814 {66}
@1e@{1f}81 1 815 1031 647 280 813 639 812 649 819 81 1 817 888 657 501 0 669 813
 820 821 84 22 818 {66}@39@{5;ffffffff;0}81 1 669 1027 647 501 817 634 665 812 8
22 81 1 820 890 657 487 0 649 817 648 823 84 12 821 {66}@1e@{1e}81 1 649 1033 64
7 487 820 641 815 643 824 81 1 648 892 657 528 0 643 820 654 825 84 22 823 {66}@
39@{4;ffffffff;0}84 22 825 {66}@39@{3;ffffffff;0}83 3 824 1 1 1 81 1 634 1028 53
1 501 669 0 632 636 826 83 3 822 .1529411764705885 .1529411764705885 .1529411764
705885 81 1 632 1026 531 499 665 0 630 634 827 81 1 636 1030 531 219 812 0 634 6
39 828 83 1 826 0 81 1 639 1032 531 280 815 0 636 641 829 83 1 828 0 83 1 829 0
 81 1 630 1024 531 232 668 0 628 632 830 83 1 827 0 81 1 628 1022 531 237 673 0
 626 630 831 83 1 830 0 83 1 831 0 83 3 819 1 1 1 83 3 816 .1529411764705885 .15
29411764705885 .1529411764705885 83 1 699 0 84 12 698 {66}@1e@{17}83 1 694 0 81
 1 692 830 657 16 832 26 0 686 833 84 12 693 {66}@1e@{18}81 1 832 829 834 16 0 6
92 0 0 835 81 1 26 831 663 16 692 17 0 0 836 84 3 833 10280 1 663 837 838 9000 0
 0 0 0 3 6 0 0 0 TFTTTTTTFFFFTTFF3 84 12 836 Frame Spacer79 255 21 838 H3DX_BRID
GE/PART_NAME80 1 834 839 840 8017 0 0 0 0 0 0 0 0 0 TTTTTTTTTTTTTFTF3 84 12 835
 Frame Spacer79 13 840 SDL/TYSA_NAME83 1 689 0 84 12 688 {66}@1e@{19}83 1 682 0
 83 3 678 .1529411764705885 .1529411764705885 .1529411764705885 83 3 674 .152941
1764705885 .1529411764705885 .1529411764705885 83 3 670 .1529411764705885 .15294
11764705885 .1529411764705885 79 25 664 H3DX_BRIDGE/PERSISTENT_ID84 11 659 {66}@
3b@{1}79 15 656 SDL/TYSA_COLOUR83 1 652 0 83 3 651 1 1 1 79 21 646 SDL/TYSA_TRAN
SLUCENCY15 637 237 0 401 219 841 17 401 0 637 401 401 0 842 399 0 0 +15 841 238
 0 371 219 843 17 371 0 841 371 371 0 844 369 0 0 +15 843 239 0 389 219 845 17 3
89 0 843 389 389 0 846 387 0 0 +15 845 240 0 377 219 847 17 377 0 845 377 377 0
 848 375 0 0 +15 847 241 0 383 219 849 17 383 0 847 383 383 0 850 381 0 0 +15 84
9 242 0 395 219 44 17 395 0 849 395 395 0 851 393 0 0 +17 851 0 604 851 851 0 39
5 393 0 0 -15 604 122 0 851 599 852 15 852 124 0 853 599 0 17 853 0 852 853 853
 0 398 396 0 0 -17 398 0 854 398 398 0 853 396 0 0 +15 854 133 0 398 496 855 15
 855 134 0 392 496 856 17 392 0 855 392 392 0 857 390 0 0 +15 856 135 0 386 496
 858 17 386 0 856 386 386 0 859 384 0 0 +15 858 136 0 380 496 860 17 380 0 858 3
80 380 0 861 378 0 0 +15 860 137 0 374 496 862 17 374 0 860 374 374 0 863 372 0
 0 +15 862 138 0 148 496 494 17 148 0 862 142 864 140 368 366 0 865 -17 142 0 86
2 136 148 134 866 358 0 867 +17 864 0 862 148 868 869 870 871 0 368 +17 368 0 58
4 872 865 869 148 366 0 873 +17 865 0 584 368 874 140 362 360 0 866 -15 584 98 0
 874 579 0 17 874 0 584 865 872 143 365 363 0 362 -17 362 0 580 357 866 143 865
 360 0 0 +17 866 0 580 362 867 140 142 358 0 0 -15 580 91 0 357 575 0 17 867 0 5
80 866 357 134 354 352 0 351 -17 357 0 580 867 362 137 145 355 0 354 +17 354 0 5
76 875 351 137 867 352 0 0 +17 351 0 576 354 876 134 136 349 0 0 +15 576 84 0 87
5 571 0 17 876 0 576 351 875 128 346 344 0 877 -17 136 0 862 130 142 128 351 349
 0 876 -17 130 0 862 124 136 122 877 342 0 878 +17 124 0 862 118 130 116 335 333
 0 879 -17 877 0 572 346 878 128 130 342 0 0 -17 878 0 572 877 341 122 338 336 0
 335 -15 572 77 0 341 567 0 17 341 0 572 878 346 125 133 339 0 338 +17 338 0 568
 880 335 125 878 336 0 0 +17 335 0 568 338 879 122 124 333 0 0 +15 568 70 0 880
 563 0 17 879 0 568 335 880 116 330 328 0 881 -17 880 0 568 879 338 119 127 331
 0 330 -17 330 0 564 325 881 119 879 328 0 0 +17 881 0 564 330 882 116 118 326 0
 0 -15 564 63 0 325 559 0 17 882 0 564 881 325 110 322 320 0 319 -17 118 0 862 1
12 124 110 881 326 0 882 +17 112 0 862 104 118 98 319 317 0 883 -17 104 0 862 88
 112 102 884 310 0 885 +17 319 0 560 322 883 110 112 317 0 0 +17 883 0 560 319 8
86 98 314 312 0 884 -15 560 56 0 886 555 0 17 886 0 560 883 322 107 115 315 0 31
4 -17 314 0 556 309 884 107 883 312 0 0 +17 884 0 556 314 885 98 104 310 0 0 -15
 556 49 0 309 552 0 17 885 0 556 884 309 102 288 304 0 303 -17 309 0 556 885 314
 99 109 307 0 288 +17 288 0 284 285 303 99 885 304 0 0 +17 303 0 284 288 887 102
 88 301 0 0 +17 887 0 284 303 87 81 292 290 0 888 -17 88 0 862 889 104 81 303 30
1 0 887 -17 889 0 862 868 88 92 888 293 0 890 +17 868 0 862 864 889 891 892 893
 0 894 -18 92 20 0 889 89 895 91 ?16 17 888 0 549 292 890 81 889 293 0 0 -16 293
 26 0 ?889 290 86 296 0 0 16 17 890 0 549 888 85 92 896 897 0 892 -15 549 23 0 8
5 542 0 17 85 0 549 890 292 89 80 86 0 896 +17 896 0 543 898 892 89 890 897 0 0
 +16 897 21 0 ?896 86 893 899 0 0 16 17 892 0 543 896 894 92 868 893 0 0 +15 543
 16 0 898 536 0 17 894 0 543 892 898 891 900 901 0 870 -16 893 19 0 ?892 897 902
 903 0 0 16 16 902 17 0 ?84 893 901 904 0 0 16 30 903 723 0 893 904 899 0 +.2962
832180076395 .575 -197650891546261e-20 0 -1 -612323399573677e-31 30 904 722 0 90
2 905 903 0 +.2962832180076395 .575 .01199802349108454 0 -1 -612323399573677e-31
 30 899 724 0 897 903 906 0 +.296283218007639 .562109772228646 -197650891546261e
-20 0 -612323399573677e-31 1 31 906 725 0 86 899 296 0 +.29928321800764 .5575 .0
1199802349108454 0 612323399573677e-31 -1 0 1 612323399573677e-31 .0055000000000
006 16 86 24 0 ?85 293 897 906 0 0 16 31 296 726 0 293 906 294 0 +.2992832180076
4 .5575 -197650891546261e-20 0 612323399573677e-31 -1 0 1 612323399573677e-31 .0
055000000000006 30 905 721 0 901 907 904 0 +.2962832180076395 .587890227771354 -
197650891546261e-20 0 -612323399573677e-31 1 16 901 14 0 ?900 902 871 905 0 0 16
 31 907 720 0 871 908 905 0 +.2992832180076355 .5925 -197650891546261e-20 0 6123
23399573677e-31 -1 0 1 612323399573677e-31 .00549999999999453 16 871 12 0 ?864 9
01 909 907 0 0 16 30 908 719 0 909 910 907 0 +.293791038151973 .59220680990297 -
197650891546261e-20 0 -612323399573677e-31 1 16 909 10 0 ?872 871 911 908 0 0 16
 31 910 718 0 911 0 908 0 +.2992832180076355 .5925 .01199802349108454 0 61232339
9573677e-31 -1 0 1 612323399573677e-31 .00549999999999453 16 911 7 0 ?545 909 0
 910 0 0 16 17 545 0 537 873 900 912 913 911 0 0 +17 873 0 537 870 545 869 872 9
09 0 0 -17 900 0 537 545 870 895 894 901 0 0 +18 912 9 0 365 869 0 914 ?16 17 91
3 0 44 84 365 895 545 911 0 898 -17 84 0 44 80 913 89 898 902 0 85 +17 365 0 44
 913 145 912 874 363 0 872 +18 895 8 0 913 92 891 915 ?16 17 898 0 543 894 896 8
95 84 902 0 900 -18 891 13 0 868 895 869 916 ?16 29 915 467 0 895 0 914 .2962832
180076395 .587890227771354 .01199802349108454 29 914 468 0 912 915 917 .29379103
8151973 .59220680990297 .01199802349108454 29 917 469 0 869 914 916 .29379103815
1973 .59220680990297 -197650891546261e-20 18 869 11 0 864 891 912 917 ?16 29 916
 470 0 891 917 93 .2962832180076395 .587890227771354 -197650891546261e-20 29 93
 471 0 89 916 91 .2962832180076395 .562109772228646 .01199802349108454 18 89 18
 0 84 81 92 93 ?16 17 145 0 44 365 139 143 357 355 0 874 -17 872 0 584 874 368 9
12 873 909 0 545 +17 139 0 44 145 133 137 875 347 0 357 +17 133 0 44 139 127 131
 341 339 0 875 -17 875 0 576 876 354 131 139 347 0 346 -17 346 0 572 341 877 131
 876 344 0 0 +17 127 0 44 133 121 125 880 331 0 341 +17 121 0 44 127 115 119 325
 323 0 880 -17 115 0 44 121 109 113 886 315 0 325 +17 325 0 564 882 330 113 121
 323 0 322 +17 322 0 560 886 319 113 882 320 0 0 +17 109 0 44 115 106 107 309 30
7 0 886 -17 106 0 44 109 253 99 285 289 0 309 +17 253 0 44 106 218 95 209 251 0
 285 +17 209 0 277 278 97 207 253 251 0 218 -17 870 0 537 900 873 891 864 871 0
 0 -17 292 0 549 85 888 75 887 290 0 0 +17 87 0 284 887 489 75 83 299 0 292 -17
 863 0 918 863 863 0 374 372 0 0 -15 918 104 0 863 583 0 17 861 0 919 861 861 0
 380 378 0 0 -15 919 109 0 861 587 0 17 859 0 920 859 859 0 386 384 0 0 -15 920
 114 0 859 591 0 17 857 0 921 857 857 0 392 390 0 0 -15 921 119 0 857 595 0 17 8
50 0 596 850 850 0 383 381 0 0 -15 596 112 0 850 591 920 17 848 0 592 848 848 0
 377 375 0 0 -15 592 107 0 848 587 919 17 846 0 600 846 846 0 389 387 0 0 -15 60
0 117 0 846 595 921 17 844 0 588 844 844 0 371 369 0 0 -15 588 102 0 844 583 918
 17 842 0 607 842 842 0 401 399 0 0 -15 607 127 0 842 603 922 15 922 129 0 923 6
03 0 17 923 0 922 923 923 0 404 402 0 0 -17 404 0 610 404 404 0 923 402 0 0 +15
 610 132 0 404 496 854 83 1 541 0 83 1 534 0 17 418 0 494 421 491 168 493 416 0
 0 +17 421 0 494 424 418 171 522 419 0 0 +17 424 0 494 510 421 174 518 422 0 0 +
19 30 261 0 16 0 23 19 0 S0 74 4 CI16 index_map_offset0 0 1 dCCZ20 28 6 0 0 832
 675 26 17 532 530 0 0 0 0 0 0 0 0 0 0 0 0 0 0 80 1 6 834 924 8038 0 0 0 0 0 0 0
 0 0 TTTTTTTTTTTTTFTF10 98 255 12 27 70 114 97 109 101 32 83 112 97 99 101 114 7
9 14 924 SDL/TYSA_UNAME74 20 15 2 0 0 13 10 0 0 0 0 0 0 0 0 0 0 0 0 0 0 0 0 0 0
 81 1 13 1 834 4 0 10 0 0 925 84 19 925 Frame Spacer.SLDPRT98 19 14 70 114 97 10
9 101 32 83 112 97 99 101 114 46 83 76 68 80 82 84 74 20 9 2 0 0 7 2 0 0 0 0 0 0
 0 0 0 0 0 0 0 0 0 0 0 0 81 1 7 1 834 1 0 2 0 0 926 84 4 926 root98 4 8 114 111
 111 116 1 0 
