**ABCDEFGHIJKLMNOPQRSTUVWXYZabcdefghijklmnopqrstuvwxyz**************************
**PARASOLID !"#$%&'()*+,-./:;<=>?@[\]^_`{|}~0123456789**************************
**PART1;
MC=unknown;
MC_MODEL=unknown;
MC_ID=unknown;
OS=iOS;
OS_RELEASE=unknown;
FRU=Shapr3D Zrt.;
APPL=Shapr3D;
SITE=Budapest, Hungary;
USER=unknown;
FORMAT=text;
GUISE=transmit;
KEY=/var/folders/85/2_5hrtnx6kqc2y0z1ld2btzc0000gn/T/com.shapr3d.shapr/export/temp_export;
FILE=/var/folders/85/2_5hrtnx6kqc2y0z1ld2btzc0000gn/T/com.shapr3d.shapr/export/temp_export;
DATE=2022-10-26 01:34 (UTC);
**PART2;
SCH=SCH_3401244_34101;
USFLD_SIZE=16;
**PART3;
**END_OF_HEADER*****************************************************************
T51 : TRANSMIT FILE created by modeller version 340124423 SCH_3401244_34101_1300
6231 0 10 21 CCCCI7 lattice222 0 CCCI4 mesh1006 0 I8 polyline1008 0 CCCCCCCCCCA1
6 mesh_offset_data206 0 Z1 3 2 3 0 0 0 0 0 0 0 0 1e3 1e-8 0 0 4 1 0 1 5 0 81 255
 1 2 2 6 1 7 0 0 0 8 70 11 CI9 list_type0 0 1 uI10 notransmit0 0 1 lCCCDCCDI12 f
inger_index0 0 1 dI12 finger_block1012 0 CZ3 0 4 T1 0 0 2 20 1 9 9 11 255 5 3 0
 1 4 0 1 0 0 0 0 10 4 3 10 11 0 0 0 0 0 0 0 0 1e3 1e-8 5 1 0 1 0 1 12 0 81 1 10
 2 6 4 13 0 0 0 14 70 11 0 4 T4 0 0 2 20 1 15 15 11 12 3 0 1 16 0 4 0 0 0 0 12 3
6 CCCI7 lattice222 0 CCCI4 mesh1006 0 I8 polyline1008 0 CCCCCCCDI5 owner1040 0 C
CCI16 boundary_lattice222 0 CCCI13 boundary_mesh1006 0 I17 boundary_polyline1008
 0 CCCA16 index_map_offset0 0 1 dA9 index_map82 0 A17 node_id_index_map82 0 A20
 schema_embedding_map82 0 A5 child12 0 A14 lowest_node_id0 0 1 dA16 mesh_offset_
data206 0 Z16 575 17 18 0 0 0 0 0 0 0 1e3 1e-8 12 0 0 1 0 1 1 19 0 20 21 22 0 0
 23 24 25 0 0 0 0 0 0 0 81 1 17 502 6 16 26 0 0 0 27 70 18 0 4 T16 0 0 6 20 1 28
 28 13 255 19 131 0 16 0 29 0 0 30 0 124 255 20 527 0 16 31 0 32 +33 34 38 12 CC
CCCCCCCCCA17 intersection_data204 0 Z21 535 0 35 36 0 0 +31 37 38 39 40 41 29 25
5 22 531 0 42 43 0 .0285766432938575 .468760820330323 .01308218703315656 19 9 CC
CCCCI5 frame230 0 CA5 owner12 0 Z23 129 0 16 30 0 44 0 V0 16 255 24 124 0 ?45 0
 46 36 0 0 16 18 255 25 105 0 47 0 48 49 ?16 17 255 47 0 50 51 52 25 53 54 0 55
 -18 48 106 0 52 25 56 57 ?16 29 49 265 0 25 58 57 .0500000000000006 .4861747079
56272 -387055706735362e-20 29 58 264 0 56 59 49 .0500000000000006 .5120466765926
41 .02499612944293255 29 57 266 0 48 49 60 .0500000000000006 .484168172726634 .0
01996129442932095 29 60 528 0 61 57 62 .0329570023782484 .468037066049923 .01312
703399711232 18 61 39 0 63 64 65 60 ?16 29 62 529 0 64 60 43 .0145764657930099 .
471074029863467 .01308000172717342 18 64 27 0 66 67 61 62 ?16 29 43 530 0 68 62
 22 .01895682487740185 .470350275583066 .01304932816014134 18 68 9 0 69 42 0 43
 ?16 17 69 0 70 71 66 68 45 24 0 72 -18 42 11 0 73 74 68 22 ?16 17 73 0 75 63 76
 42 77 78 0 79 -18 74 13 0 76 80 42 81 ?16 17 76 0 75 73 82 74 83 84 0 85 +18 80
 15 0 86 87 74 88 ?16 29 81 237 0 74 89 88 .0285766432938573 .468760820330323 .0
2499612944293255 29 89 234 0 90 0 81 .01895682487740175 .470350275583066 .024996
12944293255 29 88 238 0 80 81 91 .03205333253161665 .471429396282386 .0249961294
4293255 29 91 239 0 87 88 92 .03205333253161665 .471429396282386 .00299612944293
254 18 87 17 0 93 94 80 91 ?16 29 92 240 0 94 91 95 .01849902323017745 .48324354
0675321 .00299612944293254 18 94 19 0 96 97 87 92 ?16 29 95 241 0 97 92 98 .0184
9902323017745 .483243540675321 .02499612944293255 18 97 21 0 99 90 94 95 ?16 29
 98 242 0 100 95 101 .01457646579300964 .471074029863467 .02499612944293255 18 1
00 26 0 102 103 90 98 ?16 29 101 244 0 103 98 104 .0163320309735687 .48531818391
2074 .02499612944293255 18 103 29 0 105 106 100 101 ?16 29 104 245 0 106 101 107
 .0163320309735687 .485318183912074 .001996129442932535 18 106 31 0 108 109 103
 104 ?16 29 107 246 0 109 104 110 .03440444337548895 .46956599138816 .0019961294
42932535 18 109 33 0 111 112 106 107 ?16 29 110 247 0 112 107 113 .0344044433754
8895 .46956599138816 .02499612944293255 18 112 35 0 114 65 109 110 ?16 29 113 24
8 0 65 110 115 .0329570023782486 .468037066049923 .02499612944293255 18 65 37 0
 82 61 112 113 ?16 29 115 250 0 67 113 116 .04297606991268205 .480381055877717 .
02499612944293255 18 67 45 0 117 118 64 115 ?16 29 116 251 0 118 115 119 .050000
0000000006 .48416817272664 .02499612944293255 18 118 47 0 120 121 67 116 ?16 29
 119 252 0 121 116 122 .0500000000000006 .48717722431975 .02499612944293255 18 1
21 49 0 123 124 118 119 ?16 29 122 253 0 124 119 125 .04062495906880975 .4822444
60771943 .02499612944293255 18 124 51 0 126 127 121 122 ?16 29 125 254 0 127 122
 128 .04297606991268205 .480381055877717 .001996129442932535 18 127 56 0 129 130
 124 125 ?16 29 128 255 0 130 125 131 .04062495906880975 .482244460771943 .00299
612944293254 18 130 61 0 132 133 127 128 ?16 29 131 256 0 133 128 134 .017776692
4779735 .483935088420906 -387055706735362e-20 18 133 66 0 135 136 130 131 ?16 29
 134 257 0 136 131 137 .03283703614624075 .470808261317644 -387055706735362e-20
 18 136 68 0 138 139 133 134 ?16 29 137 258 0 139 134 140 .04140866268343385 .48
1623325807201 -387055706735362e-20 18 139 73 0 141 142 136 137 ?16 29 140 259 0
 143 137 144 .0500000000000006 .508547835052393 .00299612944293254 18 143 78 0 1
45 146 142 140 ?16 29 144 260 0 142 140 147 .0500000000000006 .508547835052393 .
02499612944293255 18 142 79 0 148 143 139 144 ?16 29 147 261 0 146 144 149 .0500
000000000006 .48717722431975 .00299612944293254 18 146 85 0 150 151 143 147 ?16
 29 149 262 0 152 147 59 .0500000000000006 .512046676592641 .001996129442932535
 18 152 93 0 153 56 151 149 ?16 29 59 263 0 151 149 58 .0500000000000006 .509716
805775393 -387055706735362e-20 18 151 94 0 51 152 146 59 ?16 17 51 0 50 153 47 1
51 55 154 0 155 +15 255 50 120 0 145 156 0 17 153 0 50 157 51 152 158 159 0 160
 -17 55 0 161 141 155 25 51 154 0 162 -16 154 118 0 ?51 46 163 164 0 0 16 17 155
 0 161 55 135 151 165 166 0 158 -15 161 117 0 141 167 0 17 135 0 161 155 138 133
 168 169 0 165 -17 165 0 170 171 158 133 155 166 0 172 +16 166 95 0 ?165 173 159
 174 0 0 16 17 158 0 170 165 175 151 153 159 0 0 +15 170 91 0 158 176 0 17 175 0
 170 158 171 152 108 173 0 0 +16 159 92 0 ?158 166 177 178 0 0 16 16 177 89 0 ?1
79 159 180 181 0 0 16 38 178 435 0 159 181 174 0 +182 183 184 185 186 187 30 255
 181 429 0 177 188 178 0 +.0500000000000006 .322019610965065 .00299612944293265
 0 1 0 31 255 174 438 0 166 178 189 0 -.1307056440681496 .375818741933908 -38705
5706735362e-20 0 0 -1 -1 0 0 .1563396702214545 50 255 182 430 0 16 190 183 191 +
.0500000000000006 .0900196109650652 -387055706735362e-20 -1 0 0 0 1 0 54 255 183
 431 0 16 182 192 193 +.1307056440681496 .375818741933908 .00199612944293265 0 0
 1 .1563396702214545 .002 -1 0 0 40 255 20 184 0 1 20 .000176426982151094 .39803
1360187118 ??.0500000000000006 .507570584824824 .001198749754354244 .05000000000
00006 .507392809424103 .0017577130331467 .0500000000000006 .507412020376593 .002
34485780104826 .0500000000000006 .507618139755516 .002880965242941735 .050000000
0000006 .507996872763961 .00335171926272543 .0500000000000006 .508557164974879 .
003732758475491425 .0500000000000006 .509299274283 .00396392785410521 .050000000
0000006 .510171482404336 .003957818128337 .0500000000000006 .511030041387437 .00
3648915194087885 .0500000000000006 .511674163309124 .00308188825487338 .05000000
00000006 .511993979918809 .00241955174755243 .0500000000000006 .512034818769754
 .001794379366546085 .0500000000000006 .511872493036365 .001236598625845964 .050
0000000000006 .511535549663055 .000745150950635709 .0500000000000006 .5110212880
61032 .0003382472203967145 .0500000000000006 .510326438667829 655707225986624e-1
9 .0500000000000006 .509483735133934 611124023192078e-20 .0500000000000006 .5086
05147991461 .000236712288864849 .0500000000000006 .50788414721057 .0007529679309
46868 .0500000000000006 .507570584824824 .001198749754354244 41 3 CI8 term_use0
 0 1 cCZ1 185 H?.0500000000000006 .507570584824824 .001198749754354244 41 1 186
 H?.0500000000000006 .507570584824824 .001198749754354244 204 2 17 INTERSECTION_
DATA17 Intersection data7 uv_type0 0 1 u6 values0 1 1 fT80 187 4 .41755097385975
9 -.001202620311421598 5.26199116261998 -2.73150485944196 .4173731984590375 -.00
1761583590214055 5.26259277112067 -3.02210029118958 .4173924094115275 -.00234872
8358115615 5.26252770253907 2.966332634850975 .417598528790451 -.002884835800009
09 5.26183043237481 2.68329965280024 .417977261798896 -.003355589819792785 5.260
55336355359 2.39683327914353 .4185375540098135 -.00373662903255878 5.25867383418
298 2.08979856371942 .4192796633179345 -.003967798411172565 5.25620215294605 1.7
50485986018845 .420151871439271 -.003961688685404355 5.25332276979792 1.37474976
0045222 .421010430422372 -.00365278575115524 5.25051515102849 .972671339999813 .
421654552344059 -.003085758811940735 5.24842597136878 .573861961974539 .42197436
8953744 -.002423422304619785 5.24739409060277 .2133254686129715 .422015207804689
 -.00179824992361344 5.24726258317073 -.1010469066185566 .4218528820713 -.001240
469182913318 5.24778564252352 -.389542693591575 .42151593869799 -.00074902150770
3063 5.24887432149429 -.675758426962583 .421001677095967 -.000342117777464068 5.
25054364316082 -.977211902254151 .420306827702764 -69441279666016e-18 5.25281408
94768 -1.306510717593086 .419464124168869 -99817972992744e-19 5.25559090335387 -
1.670746871519905 .418585537026396 -.0002405828459322025 5.25851341085747 -2.066
34366086524 .417864536245505 -.000756838488014222 5.26093291112058 -2.4708336188
18505 .417550973859759 -.001202620311421598 5.26199116261998 -2.73150485944196 5
4 192 442 0 16 183 31 194 +.0508914764203843 .474107592733821 .00199612944293253
5 0 0 1 .0121 .002 -1 0 0 141 255 193 178 193 193 183 60 255 31 526 0 195 192 20
 196 +VF20 .003 ?141 194 197 194 194 192 38 197 446 0 54 198 199 0 +182 192 200
 201 202 203 16 54 104 0 ?53 204 205 197 0 0 16 30 198 441 0 205 206 197 0 -.050
0000000000006 .512046676592641 .02499612944293255 0 0 -1 31 199 449 0 204 197 20
7 0 -.0508914764203843 .474107592733821 .001996129442932535 0 0 -1 -1 0 0 .0101
 40 20 200 0 1 20 .0001136730883472808 .338251515416523 ??.0500000000000006 .484
35574355434 .00115203550679016 .0500000000000006 .484178106380627 .0017974292277
5311 .0500000000000006 .48422418990904 .002465262044427595 .0500000000000006 .48
4488463308722 .003079874842209785 .0500000000000006 .484941685413517 .0035737356
68368995 .0500000000000006 .48553452114306 .00389152106702678 .0500000000000006
 .486200998288464 .003995957576081455 .0500000000000006 .486865182174752 .003873
81255761804 .0500000000000006 .48745081924691 .003538704598561925 .0500000000000
006 .487891243005417 .003029337415689725 .0500000000000006 .48813724022863 .0024
04127386822995 .0500000000000006 .488162078141232 .00173386831502914 .0500000000
000006 .487963751268838 .00109365244737364 .0500000000000006 .487564691500311 .0
00554826194506364 .0500000000000006 .487009196847096 .0001775681971262765 .05000
00000000006 .486358880805428 458187177326819e-20 .0500000000000006 .485686472710
868 562906578264744e-19 .0500000000000006 .485068230428308 .00032789089694768 .0
500000000000006 .484575185403412 .000788850002208907 .0500000000000006 .48435574
355434 .00115203550679016 41 1 201 H?.0500000000000006 .48435574355434 .00115203
550679016 41 1 202 H?.0500000000000006 .48435574355434 .00115203550679016 204 80
 203 4 .394336132589275 -.001155906063857514 4.79915955626725 -2.70589060083783
 .394158495415562 -.001801299784820465 4.80068225766718 -3.042078377485495 .3942
04578943975 -.00246913260149495 4.80028213346144 2.90482025621746 .3944688523436
57 -.00308374539927714 4.79805564618746 2.568928957929065 .394922074448452 -.003
57760622543635 4.79448838666155 2.232733375874815 .395514910177995 -.00389539162
4094135 4.79024668076582 1.89565509960364 .396181387323399 -.00399982813314881 4
.78597180114493 1.55768643309931 .396845571209687 -.003877683114685395 4.7821536
9954287 1.219250579152146 .397431208281845 -.00354257515562928 4.77910099518805
 .88086162456999 .397871632040352 -.00303320797275708 4.77697539170512 .54287991
7499676 .398117629263565 -.00240799794389035 4.77584599187147 .205441067371955 .
398142467176167 -.001737738872096495 4.77573414693091 -.1315093052315288 .397944
140303773 -.001097523004440994 4.77663834751363 -.468152675687359 .3975450805352
46 -.000558696751573718 4.77853813892547 -.804741751767834 .396989585882031 -.00
018143875419363 4.78137743051341 -1.14155227557929 .396339269840363 -84524288406
2181e-20 4.78502689196025 -1.47882682538898 .395666861745803 -60161214893828e-18
 4.7892289848362 -1.81669320000003 .395048619463243 -.0003317614540150335 4.7935
4469623135 -2.155058524341645 .394555574438347 -.000792720559276261 4.7973493380
632 -2.493534089681975 .394336132589275 -.001155906063857514 4.79915955626725 -2
.70589060083783 16 204 107 0 ?208 209 54 199 0 0 16 31 207 450 0 209 199 210 0 +
.0508914764203843 .474107592733821 -387055706735362e-20 0 0 -1 -1 0 0 .0121 16 2
09 108 0 ?162 211 204 207 0 0 16 30 210 451 0 211 207 212 0 -.0500000000000006 .
48416817272664 .02499612944293255 0 0 -1 16 211 111 0 ?213 214 209 210 0 0 16 30
 212 452 0 214 210 215 0 +.01962008536455385 .470240686938083 .02499612944293255
 -.986623267215758 .1630169579783155 0 16 214 114 0 ?102 163 211 212 0 0 16 30 2
15 453 0 163 212 164 0 +.0500000000000006 .322019610965065 .02499612944293255 0
 1 0 16 163 115 0 ?216 154 214 215 0 0 16 30 164 454 0 154 215 217 0 +.050000000
0000006 .322019610965065 -387055706735362e-20 0 1 0 38 217 532 0 46 164 218 0 +3
1 190 219 220 221 222 16 46 123 0 ?79 24 154 217 0 0 16 38 218 533 0 223 217 36
 0 +31 224 225 226 226 227 50 190 370 0 228 229 182 230 +.01962008536455385 .470
240686938083 .02499612944293245 -.1630169579783155 -.986623267215758 -1407903221
954964e-31 -.986623267215758 .1630169579783155 -1008626830365196e-31 40 3 219 0
 1 3 977437093159247e-19 .01378964255578554 ??.04148276773268 .466628378074787 .
01316455853588082 .0307905307604171 .46839502599717 .01310438752599794 .02009827
637586085 .470161676796537 .01304592613952022 41 1 220 L?.04148276773268 .466628
378074787 .01316455853588082 41 1 221 L?.02009827637586085 .470161676796537 .013
04592613952022 204 12 222 4 -.1625206229001775 1.01052363881675 -.02215909871031
355 .01183157090705162 .1517831874170625 .954655570072843 -.0113218953647689 .01
18917419169345 .479473720244007 .936681026362619 ??14 255 228 127 231 ?0 232 75
 19 190 +232 232 0 232 44 50 229 352 0 156 233 190 0 +.0500000000000006 .0900196
109650652 -387055706735362e-20 -1 0 0 0 1 0 141 230 217 234 234 190 141 234 36 2
30 230 190 38 36 534 0 24 218 21 0 +31 190 235 236 237 238 40 3 235 .01263600596
734094 1.000021765308826 3 .000323579694749869 .0506972648435541 ??.029216565771
8113 .468655087758262 .0130883394273406 .01674999595832705 .470714903652482 .013
06157731797724 .00428394051755731 .472774634558361 .01316762449873102 41 1 236 L
?.0292165657718113 .468655087758262 .0130883394273406 41 1 237 L?.00428394051755
731 .472774634558361 .01316762449873102 204 12 238 4 .199395034024178 .949396335
535309 ??.58348843688436 .939740707790493 .00290900235337667 .01193455212495522
 .969710156008784 1.00187916552098 ??14 156 119 239 ?195 167 50 19 229 -0 0 195
 167 44 50 233 347 0 167 240 229 0 +.84 .322019610965065 -387055706735362e-20 0
 0 1 -1 0 0 14 167 116 241 ?156 242 161 19 233 -0 0 156 242 44 51 255 240 338 0
 243 244 233 0 +.0508914764203843 .474107592733821 .02499612944293255 0 0 -1 .01
01 1 0 0 14 243 109 245 ?242 246 247 19 240 -0 0 242 246 44 54 244 333 0 246 248
 240 0 +.0508914764203843 .474107592733821 .001996129442932535 0 0 1 .0121 .002
 -1 0 0 14 246 102 249 ?243 250 251 19 244 +0 0 243 250 44 51 248 328 0 250 252
 244 0 +.1307056440681496 .375818741933908 .02499612944293255 0 0 -1 .1583396702
214545 1 0 0 14 250 97 253 ?246 176 254 19 248 +0 0 246 176 44 54 252 323 0 176
 255 248 0 +.1307056440681496 .375818741933908 .00199612944293265 0 0 1 .1563396
702214545 .002 -1 0 0 14 176 90 256 ?250 257 170 19 252 +0 0 250 257 44 50 255 3
18 0 257 258 252 0 +1.17 .322019610965065 .00299612944293265 0 0 1 -1 0 0 14 257
 87 259 ?176 260 261 19 255 +0 0 176 260 44 51 258 313 0 260 262 255 0 +.0508914
764203857 .474107592733819 .02499612944293255 0 0 -1 .01310000000000234 1 0 0 14
 260 82 263 ?257 264 265 19 258 +0 0 257 264 44 51 262 308 0 264 266 258 0 +.130
7056440681482 .375818741933912 .02499612944293255 0 0 -1 .1553396702214505 1 0 0
 14 264 75 267 ?260 268 269 19 262 -0 0 260 268 44 51 266 303 0 268 270 262 0 +.
0371228494148375 .476215793562423 .001996129442932535 -.621134964742154 -.783703
614624026 0 .002 -.783703614624026 .621134964742154 0 14 268 70 271 ?264 272 273
 19 266 +0 0 264 272 44 54 270 298 0 272 274 266 0 +.02500000000000065 .47701961
0965065 .001996129442932535 0 0 1 .01 .002 -1 0 0 14 272 63 275 ?268 276 277 19
 270 +0 0 268 276 44 50 274 293 0 276 278 270 0 +.0363391458002134 .476836928527
165 .02499612944293255 -.783703614624023 .621134964742157 0 .621134964742157 .78
3703614624023 0 14 276 58 279 ?272 280 281 19 274 +0 0 272 280 44 50 278 288 0 2
80 282 274 0 +.03869025664408525 .474973523632938 .02499612944293255 -.783703614
624026 .621134964742154 0 .621134964742154 .783703614624026 0 14 280 53 283 ?276
 284 285 19 278 -0 0 276 284 44 50 282 283 0 242 224 278 0 +.84 .322019610965065
 .02499612944293255 0 0 1 -1 0 0 14 242 112 286 ?167 243 287 19 282 +284 284 167
 243 44 51 224 278 0 288 37 282 289 +.02500000000000065 .477019610965065 .024996
12944293255 0 0 -1 .012 1 0 0 14 288 23 290 ?284 29 291 19 224 +0 0 284 29 44 51
 37 267 0 29 0 224 292 +.0250000000000011 .477019610965065 .02499612944293255 0
 0 -1 .00899999999999954 1 0 0 141 289 218 289 289 224 14 29 5 293 ?288 0 294 19
 37 -0 0 288 0 44 141 292 21 292 292 37 81 1 293 537 295 29 296 0 0 290 297 15 2
94 6 0 298 29 0 13 44 4 0 0 0 0 0 0 23 29 17 298 0 294 299 300 68 71 301 0 0 +17
 299 0 294 77 298 42 72 35 0 0 -17 300 0 294 298 302 90 99 303 0 0 -17 71 0 70 1
02 69 90 298 301 0 304 -16 301 7 0 ?298 35 0 305 0 0 16 16 35 10 0 ?72 78 301 21
 0 0 16 30 305 379 0 301 0 306 0 +.01895682487740175 .470350275583066 .024996129
44293255 0 0 -1 30 306 389 0 78 305 307 0 -.0285766432938573 .468760820330323 .0
2499612944293255 0 0 -1 16 78 12 0 ?77 308 35 306 0 0 16 31 307 390 0 308 306 30
9 0 +.0250000000000011 .477019610965065 .02499612944293255 0 0 -1 -1 0 0 .008999
99999999954 16 308 14 0 ?85 310 78 307 0 0 16 30 309 391 0 310 307 311 0 +.03205
333253161665 .471429396282386 .02499612944293255 0 0 -1 16 310 16 0 ?312 313 308
 309 0 0 16 31 311 392 0 313 309 314 0 +.0250000000000011 .477019610965065 .0029
9612944293254 0 0 -1 -1 0 0 .00899999999999954 16 313 18 0 ?315 316 310 311 0 0
 16 30 314 393 0 316 311 317 0 +.01849902323017745 .483243540675321 .02499612944
293255 0 0 -1 16 316 20 0 ?318 303 313 314 0 0 16 31 317 394 0 303 314 319 0 +.0
250000000000011 .477019610965065 .02499612944293255 0 0 -1 -1 0 0 .0089999999999
9954 16 303 22 0 ?99 320 316 317 0 0 16 30 319 395 0 320 317 321 0 +.01457646579
300964 .471074029863467 .02499612944293255 0 0 -1 16 320 25 0 ?66 322 303 319 0
 0 16 31 321 396 0 322 319 323 0 +.02500000000000065 .477019610965065 .024996129
44293255 0 0 -1 -1 0 0 .012 16 322 28 0 ?324 325 320 321 0 0 16 30 323 397 0 325
 321 326 0 +.0163320309735687 .485318183912074 .02499612944293255 0 0 -1 16 325
 30 0 ?327 328 322 323 0 0 16 31 326 398 0 328 323 329 0 +.02500000000000065 .47
7019610965065 .001996129442932535 0 0 -1 -1 0 0 .012 16 328 32 0 ?330 331 325 32
6 0 0 16 30 329 399 0 331 326 332 0 +.03440444337548895 .46956599138816 .0249961
2944293255 0 0 -1 16 331 34 0 ?333 334 328 329 0 0 16 31 332 400 0 334 329 335 0
 +.02500000000000065 .477019610965065 .02499612944293255 0 0 -1 -1 0 0 .012 16 3
34 36 0 ?336 337 331 332 0 0 16 30 335 401 0 337 332 338 0 -.0329570023782486 .4
68037066049923 .02499612944293255 0 0 -1 16 337 38 0 ?82 223 334 335 0 0 16 30 3
38 409 0 84 335 339 0 +.01962008536455385 .470240686938083 .02499612944293255 -.
986623267215758 .1630169579783155 0 16 84 43 0 ?76 340 223 338 0 0 16 30 339 410
 0 340 338 341 0 +.03869025664408525 .474973523632938 .02499612944293255 -.62113
4964742154 -.783703614624026 0 16 340 44 0 ?114 342 84 339 0 0 16 31 341 411 0 3
42 339 343 0 +.0508914764203843 .474107592733821 .02499612944293255 0 0 -1 -1 0
 0 .0101 16 342 46 0 ?344 345 340 341 0 0 16 30 343 412 0 345 341 346 0 +.050000
0000000006 .322019610965065 .02499612944293255 0 1 0 16 345 48 0 ?347 348 342 34
3 0 0 16 31 346 413 0 348 343 349 0 +.0508914764203857 .474107592733819 .0249961
2944293255 0 0 -1 -1 0 0 .01310000000000234 16 348 50 0 ?350 351 345 346 0 0 16
 30 349 414 0 351 346 352 0 +.0363391458002134 .476836928527165 .024996129442932
55 -.621134964742157 -.783703614624023 0 16 351 52 0 ?353 354 348 349 0 0 16 30
 352 415 0 354 349 355 0 +.04297606991268205 .480381055877717 .02499612944293255
 0 0 -1 16 354 55 0 ?129 356 351 352 0 0 16 30 355 416 0 356 352 357 0 +.0386902
5664408525 .474973523632938 .001996129442932535 -.621134964742154 -.783703614624
026 0 16 356 57 0 ?111 358 354 355 0 0 16 30 357 417 0 358 355 359 0 +.036339145
8002134 .476836928527165 .00299612944293254 -.621134964742157 -.783703614624023
 0 16 358 60 0 ?360 361 356 357 0 0 16 30 359 418 0 361 357 362 0 +.040624959068
80975 .482244460771943 .02499612944293255 0 0 -1 16 361 62 0 ?363 364 358 359 0
 0 16 31 362 419 0 364 359 365 0 +.0177766924779735 .483935088420906 .0019961294
42932535 .691547745584054 .722330752202627 0 -.722330752202627 .691547745584054
 0 .002 16 364 65 0 ?171 169 361 362 0 0 16 31 365 420 0 169 362 366 0 -.0250000
0000000065 .477019610965065 -387055706735362e-20 0 0 -1 -1 0 0 .01 16 169 67 0 ?
168 367 364 365 0 0 16 31 366 421 0 367 365 368 0 +.03283703614624075 .470808261
317644 .001996129442932535 -.621134964742183 -.783703614624003 0 .78370361462400
3 -.621134964742183 0 .002 16 367 69 0 ?369 370 169 366 0 0 16 30 368 422 0 370
 366 371 0 -.2718192952119515 .772338960589357 -387055706735362e-20 -.6211349647
42154 -.783703614624026 0 16 370 72 0 ?372 373 367 368 0 0 16 31 371 423 0 373 3
68 374 0 +.04140866268343385 .481623325807201 .001996129442932535 -.621134964742
166 -.783703614624016 0 .783703614624016 -.621134964742166 0 .002 16 373 74 0 ?3
75 376 370 371 0 0 16 30 374 424 0 376 371 377 0 -.0500000000000006 .50854783505
2393 .02499612944293255 0 0 -1 16 376 77 0 ?378 379 373 374 0 0 16 31 377 425 0
 379 374 380 0 +.1307056440681482 .375818741933912 .02499612944293255 0 0 -1 -1
 0 0 .1553396702214505 16 379 80 0 ?381 382 376 377 0 0 16 31 380 426 0 382 377
 383 0 +.1307056440681482 .375818741933912 .00299612944293265 0 0 -1 -1 0 0 .155
3396702214505 16 382 81 0 ?384 385 379 380 0 0 16 31 383 427 0 385 380 188 0 +.0
508914764203857 .474107592733819 .00299612944293254 0 0 -1 -1 0 0 .0131000000000
0234 16 385 84 0 ?386 180 382 383 0 0 16 30 188 428 0 180 383 181 0 -.0500000000
000006 .48717722431975 .02499612944293255 0 0 -1 16 180 86 0 ?123 177 385 188 0
 0 16 17 123 0 50 120 150 121 387 180 0 350 +17 120 0 50 52 123 118 347 345 0 21
3 -17 150 0 50 123 145 146 179 177 0 386 -17 387 0 265 388 350 146 123 180 0 0 -
17 350 0 265 387 126 121 389 348 0 347 +15 265 83 0 388 260 0 17 126 0 265 350 3
88 124 363 361 0 390 -17 389 0 391 353 347 124 350 348 0 0 -17 347 0 391 389 344
 121 120 345 0 0 +15 391 42 0 83 284 0 17 344 0 391 347 392 118 117 342 0 0 +17
 392 0 391 344 393 67 114 340 0 0 -17 117 0 247 129 213 67 344 342 0 394 -15 247
 110 0 213 243 0 17 129 0 247 395 117 127 394 354 0 208 +17 213 0 247 117 395 11
8 52 211 0 344 +17 394 0 285 114 396 67 129 354 0 392 -15 285 54 0 394 280 0 17
 114 0 285 333 394 112 392 340 0 393 +17 396 0 285 394 333 127 111 356 0 0 -17 3
33 0 285 396 114 109 397 331 0 398 +17 111 0 273 399 375 109 396 356 0 369 +15 2
73 71 0 399 268 0 17 399 0 273 372 111 136 369 367 0 168 -17 375 0 273 111 372 1
27 400 373 0 396 +17 369 0 277 330 168 109 399 367 0 333 +15 277 64 0 172 272 0
 17 330 0 277 172 369 106 398 328 0 327 +17 168 0 277 369 172 136 135 169 0 0 +1
7 172 0 277 168 330 133 171 364 0 0 -17 171 0 170 175 165 106 172 364 0 330 +17
 398 0 291 397 327 109 330 328 0 0 -17 327 0 291 398 324 106 401 325 0 0 +15 291
 24 0 402 288 0 17 324 0 291 327 402 103 403 322 0 0 +17 401 0 254 404 108 103 3
27 325 0 324 -15 254 98 0 108 250 0 17 404 0 254 160 401 56 105 405 0 0 +17 108
 0 254 401 160 106 175 173 0 171 -17 160 0 254 108 404 152 157 205 0 175 -16 173
 96 0 ?175 405 166 189 0 0 16 16 405 99 0 ?404 205 173 206 0 0 16 31 189 439 0 1
73 174 206 0 +.1307056440681496 .375818741933908 .00199612944293265 0 0 -1 -1 0
 0 .1583396702214545 31 206 440 0 405 189 198 0 +.1307056440681496 .375818741933
908 .02499612944293255 0 0 -1 -1 0 0 .1583396702214545 16 205 101 0 ?157 54 405
 198 0 0 16 17 157 0 50 148 153 56 160 205 0 216 +17 148 0 50 145 157 142 216 16
3 0 381 -18 56 100 0 157 48 152 58 ?16 17 216 0 287 105 381 56 148 163 0 404 +15
 287 113 0 304 242 0 17 105 0 287 403 216 103 404 405 0 401 -17 381 0 287 216 99
 142 406 379 0 378 +17 99 0 287 381 304 97 300 303 0 406 +17 406 0 269 318 378 9
7 381 379 0 302 -17 378 0 269 406 384 142 145 376 0 0 +15 269 76 0 378 264 0 17
 384 0 269 378 318 143 96 382 0 0 +17 145 0 50 150 148 143 378 376 0 179 -17 179
 0 261 96 386 143 150 177 0 384 +15 261 88 0 179 257 0 17 96 0 261 93 179 94 384
 382 0 318 -17 386 0 261 179 132 146 388 385 0 387 +17 132 0 261 386 93 130 360
 358 0 388 -17 388 0 265 126 387 130 386 385 0 363 -17 363 0 281 360 390 130 126
 361 0 0 +15 281 59 0 360 276 0 17 360 0 281 86 363 87 132 358 0 312 +17 390 0 2
81 363 86 124 353 351 0 389 -17 86 0 281 390 360 80 312 310 0 353 -17 353 0 391
 85 389 80 390 351 0 407 +17 85 0 391 83 353 74 407 308 0 77 +17 407 0 294 312 7
7 80 85 308 0 0 -17 312 0 294 315 407 87 86 310 0 0 +17 77 0 294 407 299 74 73 7
8 0 0 +17 315 0 294 302 312 94 93 313 0 0 +17 302 0 294 300 315 97 318 316 0 0 -
17 93 0 261 132 96 87 315 313 0 360 -17 318 0 269 384 406 94 302 316 0 315 +17 8
3 0 391 393 85 65 76 84 0 336 -17 393 0 391 392 83 112 336 334 0 397 -17 336 0 2
91 408 397 65 393 334 0 0 +17 408 0 291 409 336 61 82 337 0 0 -17 397 0 291 336
 398 112 333 331 0 0 -17 409 0 291 402 408 64 410 223 0 0 +17 82 0 75 76 63 65 4
08 337 0 83 +15 75 128 0 82 228 0 17 63 0 75 82 73 61 79 46 0 410 -17 79 0 411 7
2 410 42 63 46 0 299 +17 410 0 411 79 45 61 409 223 0 408 -15 411 122 0 79 195 0
 17 45 0 411 410 72 64 69 24 0 409 +16 223 40 0 ?409 84 337 218 0 0 16 17 72 0 4
11 45 79 68 299 35 0 298 +14 195 121 412 ?232 156 411 19 31 -0 0 232 156 44 81 1
 412 571 295 195 413 0 239 414 415 14 232 125 414 ?228 195 70 19 190 +228 228 22
8 195 44 81 1 414 573 295 232 416 0 412 231 417 15 70 126 0 66 232 0 17 66 0 70
 69 102 64 402 320 0 45 +17 102 0 70 66 71 100 304 214 0 403 +17 402 0 291 324 4
09 100 66 320 0 0 -17 304 0 287 99 403 90 102 214 0 300 -17 403 0 287 304 105 10
0 324 322 0 402 -18 90 8 0 71 100 97 89 ?16 80 7 CCCCCDI12 legal_owners0 16 1 lC
Z1 295 418 419 8015 0 0 0 0 3 5 0 0 0 FFFFTFFFFFFFFFFF2 81 1 416 572 420 232 421
 414 413 422 423 81 1 231 575 295 228 422 0 414 0 424 83 255 1 417 0 81 1 422 57
4 420 228 425 231 416 0 426 83 1 424 0 80 1 420 0 427 8001 0 0 0 0 3 5 0 0 0 FFF
FTFTFFFFFFFFF2 81 1 425 482 428 228 0 422 429 421 430 83 3 426 .717647058823529
 .717647058823529 .717647058823529 80 1 428 431 432 9000 0 0 0 0 3 6 0 0 0 TFTTT
TTTFFFFTTFF3 81 1 429 480 428 16 433 26 0 425 434 81 1 421 483 428 232 0 416 425
 435 436 84 255 12 430 {65}@1e@{13}81 1 435 484 428 29 0 296 421 437 438 84 12 4
36 {65}@1e@{12}81 1 296 536 420 29 435 293 0 439 440 81 1 437 485 428 288 0 439
 435 441 442 84 11 438 {65}@1e@{0}81 1 439 538 420 288 437 290 296 443 444 81 1
 441 486 428 242 0 445 437 446 447 84 11 442 {65}@1e@{1}81 1 445 564 420 242 441
 286 448 449 450 81 1 446 487 428 280 0 451 441 452 453 84 11 447 {65}@1e@{e}81
 1 451 542 420 280 446 283 443 454 455 81 1 452 488 428 276 0 454 446 456 457 84
 11 453 {65}@1e@{3}81 1 454 544 420 276 452 279 451 458 459 81 1 456 489 428 272
 0 458 452 460 461 84 11 457 {65}@1e@{4}81 1 458 546 420 272 456 275 454 462 463
 81 1 460 490 428 268 0 462 456 464 465 84 11 461 {65}@1e@{5}81 1 462 548 420 26
8 460 271 458 466 467 81 1 464 491 428 264 0 466 460 468 469 84 11 465 {65}@1e@{
6}81 1 466 550 420 264 464 267 462 470 471 81 1 468 492 428 260 0 470 464 472 47
3 84 11 469 {65}@1e@{7}81 1 470 552 420 260 468 263 466 474 475 81 1 472 493 428
 257 0 474 468 476 477 84 11 473 {65}@1e@{8}81 1 474 554 420 257 472 259 470 478
 479 81 1 476 494 428 176 0 478 472 480 481 84 11 477 {65}@1e@{9}81 1 478 556 42
0 176 476 256 474 482 483 81 1 480 495 428 250 0 482 476 484 485 84 11 481 {65}@
1e@{a}81 1 482 558 420 250 480 253 478 486 487 81 1 484 496 428 246 0 486 480 48
8 489 84 11 485 {65}@1e@{b}81 1 486 560 420 246 484 249 482 448 490 81 1 488 497
 428 243 0 448 484 491 492 84 11 489 {65}@1e@{c}81 1 448 562 420 243 488 245 486
 445 493 81 1 491 498 428 167 0 449 488 494 495 84 11 492 {65}@1e@{d}81 1 449 56
6 420 167 491 241 445 496 497 81 1 494 499 428 156 0 496 491 498 499 84 11 495 {
65}@1e@{f}81 1 496 568 420 156 494 239 449 413 500 81 1 498 500 428 195 0 413 49
4 501 502 84 12 499 {65}@1e@{10}81 1 413 570 420 195 498 412 496 416 503 81 1 50
1 501 428 284 0 443 498 0 504 84 12 502 {65}@1e@{11}14 284 41 505 ?280 288 391 1
9 282 +242 242 280 288 44 81 1 443 540 420 284 501 505 439 451 506 84 11 504 {65
}@1e@{2}81 1 505 541 295 284 443 0 290 283 507 83 3 506 .717647058823529 .717647
058823529 .717647058823529 81 1 290 539 295 288 439 0 293 505 508 81 1 283 543 2
95 280 451 0 505 279 509 83 1 507 0 81 1 279 545 295 276 454 0 283 275 510 83 1
 509 0 81 1 275 547 295 272 458 0 279 271 511 83 1 510 0 81 1 271 549 295 268 46
2 0 275 267 512 83 1 511 0 81 1 267 551 295 264 466 0 271 263 513 83 1 512 0 81
 1 263 553 295 260 470 0 267 259 514 83 1 513 0 81 1 259 555 295 257 474 0 263 2
56 515 83 1 514 0 81 1 256 557 295 176 478 0 259 253 516 83 1 515 0 81 1 253 559
 295 250 482 0 256 249 517 83 1 516 0 81 1 249 561 295 246 486 0 253 245 518 83
 1 517 0 81 1 245 563 295 243 448 0 249 286 519 83 1 518 0 81 1 286 565 295 242
 445 0 245 241 520 83 1 519 0 81 1 241 567 295 167 449 0 286 239 521 83 1 520 0
 81 1 239 569 295 156 496 0 241 412 522 83 1 521 0 83 1 522 0 83 1 508 0 83 3 50
3 .717647058823529 .717647058823529 .717647058823529 83 3 500 .717647058823529 .
717647058823529 .717647058823529 83 3 497 .717647058823529 .717647058823529 .717
647058823529 83 3 493 .717647058823529 .717647058823529 .717647058823529 83 3 49
0 .717647058823529 .717647058823529 .717647058823529 83 3 487 .717647058823529 .
717647058823529 .717647058823529 83 3 483 .717647058823529 .717647058823529 .717
647058823529 83 3 479 .717647058823529 .717647058823529 .717647058823529 83 3 47
5 .717647058823529 .717647058823529 .717647058823529 83 3 471 .717647058823529 .
717647058823529 .717647058823529 83 3 467 .717647058823529 .717647058823529 .717
647058823529 83 3 463 .717647058823529 .717647058823529 .717647058823529 83 3 45
9 .717647058823529 .717647058823529 .717647058823529 83 3 455 .717647058823529 .
717647058823529 .717647058823529 83 3 450 .717647058823529 .717647058823529 .717
647058823529 83 3 444 .717647058823529 .717647058823529 .717647058823529 83 3 44
0 .717647058823529 .717647058823529 .717647058823529 81 1 433 479 523 16 0 429 0
 0 524 81 1 26 481 431 16 429 17 0 0 525 84 3 434 10180 1 431 526 527 9000 0 0 0
 0 3 6 0 0 0 TFTTTTTTFFFFTTFF3 84 32 525 Wiring Cover-1/Left Ear-1-solid179 255
 21 527 H3DX_BRIDGE/PART_NAME80 1 523 528 529 8017 0 0 0 0 0 0 0 0 0 TTTTTTTTTTT
TTFTF3 84 32 524 Wiring Cover-1/Left Ear-1-solid179 13 529 SDL/TYSA_NAME79 25 43
2 H3DX_BRIDGE/PERSISTENT_ID79 15 427 SDL/TYSA_COLOUR83 3 423 .717647058823529 .7
17647058823529 .717647058823529 79 21 419 SDL/TYSA_TRANSLUCENCY83 1 415 0 17 372
 0 273 375 399 139 138 370 0 0 +17 400 0 251 162 208 139 375 373 0 372 -15 251 1
03 0 53 246 0 17 162 0 251 53 400 25 141 209 0 0 +17 208 0 251 400 53 127 395 20
4 0 375 +17 53 0 251 208 162 48 47 54 0 0 +17 395 0 247 213 129 48 208 204 0 53
 -17 141 0 161 138 55 139 162 209 0 400 -17 138 0 161 135 141 136 372 370 0 399
 -17 52 0 50 47 120 48 213 211 0 395 -83 1 297 0 40 20 225 0 1 20 .0011792104720
35154 .3913515005172645 ??.02110932762853145 .465667841565633 .010149103620998 .
0179721853131156 .467292852988904 .01088208260947022 .01557362890255585 .4695937
42131503 .01221906719114248 .0137373453725577 .472878039917389 .0140896469241968
8 .0130013273078838 .477198086810661 .01638815497558575 .01390624877951374 .4815
94398813481 .01885884243854915 .01638341027140385 .485371519815678 .021475695150
81765 .0202645317590389 .488045731794208 .0240375545571831 .02385548186499455 .4
88964906199539 .0255352096672784 .02704663427142155 .488843793311384 .0261945333
5985125 .0301654832324165 .487850944353693 .02610131619624085 .032604225386765 .
486302700766812 .02533485713336775 .03504854943747235 .483579081538416 .02354675
75132076 .03676670525158185 .479374318488802 .0205186698894938 .0367942615093194
 .474807056909276 .0173439007360968 .03479821476270225 .470091769492863 .0143839
2881161692 .03138316702103745 .466858155420629 .01234210895319216 .0272897486491
832 .465240092675951 .01087721544875962 .02379168672746165 .465080600158662 .010
186598500373 .0211093276285317 .465667841565633 .01014910362099792 41 1 226 H?.0
2110932762853145 .465667841565633 .010149103620998 204 80 227 4 .370634608970914
 .552860750976366 1.90098624966051 .01484702582193456 .49491320504265 .645898512
355292 2.196479573129505 .01411404683346232 .602311008209114 .820798270556477 2.
474349947115655 .01277706225179006 .696182012900955 1.101360756992678 ??.7566982
33542738 1.495723021180366 ??.767365649205158 1.916217795953715 ??.7382473206471
76 2.29585239093396 ??.677292795723689 2.587672563147295 ??.613004482485999 2.71
2665059739205 ??.548587195849641 2.73690993676671 ??.475988343125378 2.680739645
159405 ??.4084886319862385 2.567417623059205 ??.321732736407712 2.34996283284359
5 ??.2196721793040275 1.995967678281215 ??.135774852066142 1.596215123019255 ??.
0854683293607749 1.16450886341621 ??.1019475732820906 .83895996301029 1.00991749
776221 .01265402048974038 .179802341008661 .629742255395827 1.378806653530964 .0
1411891399417292 .27851887158073 .550360615488921 1.67166003514815 .014809530942
55954 .37063460897091 .552860750976363 ??141 196 217 530 531 31 141 530 21 532 1
96 31 141 531 218 196 532 31 141 532 36 531 530 31 141 191 197 533 533 182 141 5
33 178 191 191 182 19 30 130 0 16 0 23 19 0 S0 40 5 38 0 1 5 .000521751690012635
 .369165458372747 ??.0285766432938575 .468760820330323 .01308218703315656 .02598
298521652475 .468073453126971 .01234741086985834 .02320477338788695 .46820047487
2956 .01208338361850032 .02080958948156755 .469054659007458 .01237562314444152 .
01895682487740145 .470350275583066 .01304932816014122 41 1 39 L?.028576643293857
5 .468760820330323 .01308218703315656 41 1 40 L?.01895682487740145 .470350275583
066 .01304932816014122 204 20 41 4 .21883084541368 .947523866738413 1.1621093209
82764 .011913942409776 .276219581653287 .844827446360264 1.46135742197124 .01264
87185730742 .357117480741953 .809812581210666 1.771612964282805 .012912745824432
22 .440933069825867 .847767189127143 2.055110107507195 .01262050629849102 .51488
711206361 .937223071842779 2.30697882821829 .01194680128279132 141 32 31 32 32 2
0 126 255 33 FF3 1 34 3 1 1 17 3 FFF2 3 534 535 536 537 538 125 255 34 0 1 0 1.0
47979627203322 0 1 0 1.047979627203322 2 BBBBBBBB????0 0 0 0 45 255 306 534 .025
33157652543955 .456856354181782 .01078805962229162 .035892557123617 .46653846647
4069 .01599612944293245 .0363992690356191 .467003010612394 .0162460106913757 .02
49008508067716 .456940338961265 .0105631396145604 .03520999012181145 .4666512450
7959 .01599612944293245 .03570461878293415 .467117170734953 .01625680226949725 .
0244623858128325 .457025832778399 .01035360475931596 .03452742312000475 .4667640
2368511 .01599612944293245 .0350103398577904 .467231258454449 .0162668556737379
 .02357212911775725 .45719941891217 .00996633366149596 .03316228911639245 .46698
9580896152 .01599612944293245 .0336224214179472 .467459309218403 .01628543679663
8 .02312033785407115 .45728751114351 .00978859761614476 .03247972211458645 .4671
02359501672 .01599612944293245 .03292878188225865 .467573272266954 .016293964505
8345 .0222056472297147 .457465861511394 .00946579699631872 .0311145881109742 .46
7327916712714 .01599612944293245 .03154203577323345 .467801094444732 .0163094523
592348 .02174274823683835 .457556119576224 .00932073255164084 .03043202110916795
 .467440695318234 .01599612944293245 .03084892918225025 .467914953577399 .016316
4124972109 .02080811515018905 .457738358412397 .00906398747943676 .0290668871055
5565 .467666252529276 .01599612944293245 .0294631399051314 .468142589187917 .016
32873103006155 .020336381432229 .457830339110462 .00895230695514687 .02838432010
374965 .467779031134796 .01599612944293245 .0287704572009644 .468256365669284 .0
1633408941998275 .0193863952750912 .458015571555289 .00876287814318782 .02701918
61001374 .468004588345837 .01599612944293245 .027385404558444 .468483857647576 .
01634317814376215 .0189081432179 .458108823227571 .00868512993168741 .0263366190
9833135 .468117366951358 .01599612944293245 .0266930346017633 .468597573148074 .
01634690847396575 .0179474687712948 .458296139721702 .00856394754502904 .0249714
850947191 .468342924162399 .01599612944293245 .025308494779387 .468824965134456
 .0163527227597012 .0174650467681647 .458390204468232 .00852051341859822 .024288
91809291305 .46845570276792 .01599612944293245 .0246163248951579 .46893864162395
5 .0163548067128952 .01649840129654005 .458578685218868 .00846817250727699 .0229
237840893008 .468681259978961 .01599612944293245 .0232320715603361 .469165977749
744 .0163573180103079 .01601417821673065 .458673101147185 .00845926574343275 .02
224121708749455 .468794038584482 .01599612944293245 .02253998809109445 .46927963
7389672 .0163577453535167 .0150463083044616 .458861820644599 .00847602332055125
 .0208760830838823 .469019595795523 .01599612944293245 .0211557935044782 .469506
96206048 .01635694133121375 .01456266186117978 .458956124137811 .008501687654775
94 .02019351608207625 .469132374401044 .01599612944293245 .0204636823684311 .469
620627095002 .01635570996602525 .0135983201050946 .459144155699941 .008587461434
47448 .018828382078464 .469357931612085 .01599612944293245 .01907931850219655 .4
69847984772688 .01635159457205145 .01311762518005016 .459237883693253 .008647570
84545903 .018145815076658 .469470710217606 .01599612944293245 .0183870657534047
 .469961677419481 .016348710544921 .01216154685243404 .459424304016055 .00880193
964696913 .0167806810730457 .469696267428647 .01599612944293245 .017002305410952
8 .470189112403829 .0163413039873727 .0116861638342986 .459516996270586 .0088961
9897542365 .01609811407123945 .469809046034168 .01599612944293245 .0163097977988
475 .470302854744982 .01633678145993305 .0107430436309674 .459700889961791 .0091
1840479122078 .0147329800676272 .470034603245209 .01599612944293245 .01492441573
04231 .470530410956174 .01632612010772865 .0102753068249974 .459792091324521 .00
924635118921507 .01405041306582118 .47014738185073 .01599612944293245 .014231541
25590882 .470644224829759 .01631998128725095 .00934977581261638 .459972555398549
 .00953530290711352 .0126852790622089 .470372939061771 .01599612944293245 .01284
531526465982 .470871945592704 .01630611749154635 .00889198197835834 .46006181803
7283 .00969630811083094 .0120027120604029 .470485717667292 .01599612944293245 .0
1215196373006956 .470985852485544 .0162983925218943 .00798858485420335 .46023796
6349234 .01005058687174582 .01063757805679062 .470711274878333 .0159961294429324
5 .01076467576311492 .471213780317144 .0162813943590195 .0075429819275596 .46032
4851951624 .01024386028648888 .00995501105498459 .470824053483854 .0159961294429
3245 .01007073931332198 .471327801259303 .01627212117263185 .00666615470338434 .
460495819548578 .01066172645155544 .00858987705137233 .471049610694895 .01599612
944293245 .00868217653247151 .471555977659677 .016252072109811 .0062349307584225
8 .460579901474397 .01088631903385622 .00790731004956608 .471162389300415 .01599
612944293245 .00798755018449771 .471670133121192 .0162412962414396 .005388978978
01123 .460744848842645 .01136572072669566 .00654217604595382 .471387946511457 .0
1599612944293245 .00659750601136567 .471898598369895 .01621829472693655 .0049742
5148271642 .460825714218749 .0116205296444683 .00585960904414779 .47150072511697
7 .01599612944293245 .00590208816988692 .472012908160266 .0162060690900537 .0041
633290800815 .460983831406117 .01215911282665466 .004494475040535525 .4717262823
28019 .01599612944293245 .004510363300268 .472241701118501 .01618022806975445 .0
0376713457003026 .461061083139916 .01244288681959776 .003811908038728835 .471839
060933539 .01599612944293245 .00381405625306559 .472356184290083 .01616661269936
3 .003381178949831205 .461136338450309 .01274044688963254 .00312934103692326 .47
195183953906 .01599612944293245 .003117257947746265 .472470763249315 .0161523358
781322 127 255 17 535 4 2 2 2 2 2 2 2 2 2 2 2 2 2 2 2 4 127 3 536 2 1 2 128 255
 17 537 0 .0625 .125 .1875 .25 .3125 .375 .4375 .5 .5625 .625 .6875 .75 .8125 .8
75 .9375 1 128 3 538 0 1 1.047979627203322 74 4 CI16 index_map_offset0 0 1 dCCZ2
0 28 6 0 0 433 501 26 17 422 231 0 0 0 0 0 0 0 0 0 0 0 0 0 0 80 1 6 523 539 8038
 0 0 0 0 0 0 0 0 0 TTTTTTTTTTTTTFTF10 98 255 32 27 87 105 114 105 110 103 32 67
 111 118 101 114 45 49 47 76 101 102 116 32 69 97 114 45 49 45 115 111 108 105 1
00 49 79 14 539 SDL/TYSA_UNAME74 20 15 2 0 0 13 10 0 0 0 0 0 0 0 0 0 0 0 0 0 0 0
 0 0 0 81 1 13 1 523 4 0 10 0 0 540 84 15 540 Left Ear.SLDPRT98 15 14 76 101 102
 116 32 69 97 114 46 83 76 68 80 82 84 74 20 9 2 0 0 7 2 0 0 0 0 0 0 0 0 0 0 0 0
 0 0 0 0 0 0 81 1 7 1 523 1 0 2 0 0 541 84 4 541 root98 4 8 114 111 111 116 1 0
 
