**ABCDEFGHIJKLMNOPQRSTUVWXYZabcdefghijklmnopqrstuvwxyz**************************
**PARASOLID !"#$%&'()*+,-./:;<=>?@[\]^_`{|}~0123456789**************************
**PART1;
MC=unknown;
MC_MODEL=unknown;
MC_ID=unknown;
OS=iOS;
OS_RELEASE=unknown;
FRU=Shapr3D Zrt.;
APPL=Shapr3D;
SITE=Budapest, Hungary;
USER=unknown;
FORMAT=text;
GUISE=transmit;
KEY=/var/folders/85/2_5hrtnx6kqc2y0z1ld2btzc0000gn/T/com.shapr3d.shapr/export/temp_export;
FILE=/var/folders/85/2_5hrtnx6kqc2y0z1ld2btzc0000gn/T/com.shapr3d.shapr/export/temp_export;
DATE=2022-10-25 23:48 (UTC);
**PART2;
SCH=SCH_3401244_34101;
USFLD_SIZE=16;
**PART3;
**END_OF_HEADER*****************************************************************
T51 : TRANSMIT FILE created by modeller version 340124423 SCH_3401244_34101_1300
6231 0 10 21 CCCCI7 lattice222 0 CCCI4 mesh1006 0 I8 polyline1008 0 CCCCCCCCCCA1
6 mesh_offset_data206 0 Z1 3 2 3 0 0 0 0 0 0 0 0 1e3 1e-8 0 0 4 1 0 1 5 0 81 255
 1 2 2 6 1 7 0 0 0 8 70 11 CI9 list_type0 0 1 uI10 notransmit0 0 1 lCCCDCCDI12 f
inger_index0 0 1 dI12 finger_block1012 0 CZ3 0 4 T1 0 0 2 20 1 9 9 11 255 5 3 0
 1 4 0 1 0 0 0 0 10 4 3 10 11 0 0 0 0 0 0 0 0 1e3 1e-8 5 1 0 1 0 1 12 0 81 1 10
 2 6 4 13 0 0 0 14 70 11 0 4 T4 0 0 2 20 1 15 15 11 12 3 0 1 16 0 4 0 0 0 0 12 3
6 CCCI7 lattice222 0 CCCI4 mesh1006 0 I8 polyline1008 0 CCCCCCCDI5 owner1040 0 C
CCI16 boundary_lattice222 0 CCCI13 boundary_mesh1006 0 I17 boundary_polyline1008
 0 CCCA16 index_map_offset0 0 1 dA9 index_map82 0 A17 node_id_index_map82 0 A20
 schema_embedding_map82 0 A5 child12 0 A14 lowest_node_id0 0 1 dA16 mesh_offset_
data206 0 Z16 476 17 18 0 0 0 0 0 0 0 1e3 1e-8 12 0 0 1 0 1 1 19 0 20 21 22 0 0
 23 24 25 0 0 0 0 0 0 0 81 1 17 413 6 16 26 0 0 0 27 70 18 0 4 T16 0 0 6 20 1 28
 28 13 255 19 123 0 16 0 29 0 0 30 0 51 255 20 326 0 31 32 0 0 +.0585 .01465625
 .003 0 0 -1 .002 -1 0 0 31 255 21 380 0 24 33 0 0 -.0535 .01124512565135992 0 0
 0 1 1 0 0 .003 29 255 22 239 0 25 34 0 .0585 .01665625 0 19 9 CCCCCCI5 frame230
 0 CA5 owner12 0 Z23 121 0 16 30 0 35 0 V0 16 255 24 107 0 ?36 0 37 21 0 0 16 18
 255 25 83 0 38 0 39 22 ?16 17 255 38 0 40 41 42 25 43 37 0 44 -18 39 81 0 41 25
 45 34 ?16 17 41 0 40 46 38 39 47 48 0 49 -18 45 66 0 50 39 51 52 ?16 29 34 238
 0 39 53 22 .0585 .01665625 .003 29 53 237 0 51 54 34 .0565 .01124512565135992 .
003 18 51 71 0 55 45 56 53 ?16 29 54 236 0 56 57 53 .0565 .01465625 .003 18 56 6
9 0 46 51 58 54 ?16 29 57 235 0 58 52 54 .0565 .01465625 0 18 58 67 0 42 56 59 5
7 ?16 29 52 234 0 45 60 57 .0565 .01124512565135992 0 29 60 233 0 61 62 52 .0535
 .00824512565135993 0 18 61 61 0 63 59 64 60 ?16 29 62 232 0 64 65 60 .04 .00824
512565135993 0 18 64 59 0 66 61 67 62 ?16 29 65 231 0 59 68 62 .0535 .0082451256
5135993 .003 18 59 57 0 69 58 61 65 ?16 29 68 230 0 67 70 65 .04 .00824512565135
993 .003 18 67 56 0 71 64 72 68 ?16 29 70 229 0 73 74 68 .037 .01124512565135992
 0 18 73 51 0 75 72 76 70 ?16 29 74 228 0 76 77 70 .037 .01465625 0 18 76 49 0 7
8 73 79 74 ?16 29 77 227 0 79 80 74 .037 .01465625 .003 18 79 47 0 81 76 82 77 ?
16 29 80 226 0 72 83 77 .037 .01124512565135992 .003 18 72 46 0 84 67 73 80 ?16
 29 83 225 0 82 85 80 .035 .01665625 .003 18 82 41 0 86 79 87 83 ?16 29 85 224 0
 87 88 83 .035 .01665625 0 18 87 39 0 89 82 90 85 ?16 29 88 223 0 90 91 85 .0192
5 .01665625 .003 18 90 34 0 92 87 93 88 ?16 29 91 222 0 93 94 88 .01925 .0166562
5 0 18 93 32 0 95 90 96 91 ?16 29 94 221 0 96 97 91 .014900956108544 .0338948791
52536 .003 18 96 27 0 98 93 99 94 ?16 29 97 220 0 99 100 94 .014900956108544 .03
3894879152536 0 18 99 25 0 101 96 102 97 ?16 29 100 219 0 102 103 97 .04675 .041
65625 .003 18 102 20 0 104 99 105 100 ?16 29 103 218 0 105 106 100 .04675 .04165
625 0 18 105 18 0 107 102 108 103 ?16 29 106 217 0 109 110 103 .07425 .01665625
 .003 18 109 13 0 111 108 112 106 ?16 29 110 216 0 112 113 106 .078599043891456
 .033894879152536 .003 18 112 11 0 114 109 115 110 ?16 29 113 215 0 115 116 110
 .078599043891456 .033894879152536 0 18 115 9 0 117 112 0 113 ?16 29 116 214 0 1
08 0 113 .07425 .01665625 0 18 108 8 0 118 105 109 116 ?16 17 118 0 119 44 117 1
08 120 121 0 122 -15 255 119 103 0 123 124 125 17 44 0 119 43 118 25 122 126 0 4
7 +17 117 0 119 118 107 115 127 128 0 129 -17 120 0 130 131 132 115 118 121 0 0
 +16 121 7 0 ?120 133 0 134 0 0 16 17 122 0 135 136 47 108 44 126 0 132 -15 135
 79 0 137 138 0 17 136 0 135 137 122 109 132 139 0 140 -17 47 0 135 122 137 25 4
1 48 0 0 +16 126 84 0 ?44 141 48 142 0 0 16 17 132 0 130 120 140 108 136 139 0 0
 +15 130 6 0 120 29 0 17 140 0 130 132 131 109 114 143 0 0 -16 139 14 0 ?132 128
 143 144 0 0 16 16 128 17 0 ?127 145 139 146 0 0 16 16 143 12 0 ?114 139 133 147
 0 0 16 30 255 144 339 0 139 147 146 0 +.07425 .01665625 .003 0 0 -1 31 147 338
 0 143 148 144 0 +.07425 .02582416338312375 .003 0 0 1 1 0 0 .00916791338312348
 31 146 340 0 128 144 149 0 +.0478009983934164 -.02325843492563205 0 0 0 1 1 0 0
 .0649231924401213 30 149 341 0 145 146 150 0 +.04675 .04165625 .003 0 0 -1 16 1
45 19 0 ?151 152 128 149 0 0 16 31 150 342 0 152 149 153 0 +.0478009983934164 -.
02325843492563205 .003 0 0 1 1 0 0 .0649231924401213 16 152 21 0 ?104 154 145 15
0 0 0 16 31 153 343 0 154 150 155 0 +.0456990016065836 -.02325843492563105 0 0 0
 1 1 0 0 .0649231924401209 16 154 24 0 ?156 157 152 153 0 0 16 30 155 344 0 157
 153 158 0 +.014900956108544 .033894879152536 .003 0 0 -1 16 157 26 0 ?159 160 1
54 155 0 0 16 31 158 345 0 160 155 161 0 +.0456990016065836 -.02325843492563105
 .003 0 0 1 1 0 0 .0649231924401209 16 160 28 0 ?98 162 157 158 0 0 16 31 161 34
6 0 162 158 163 0 +.01925 .02582416338312375 0 0 0 1 1 0 0 .00916791338312351 16
 162 31 0 ?164 165 160 161 0 0 16 30 163 347 0 165 161 166 0 +.01925 .01665625 .
003 0 0 -1 16 165 33 0 ?167 168 162 163 0 0 16 31 166 348 0 168 163 169 0 +.0192
5 .02582416338312375 .003 0 0 1 1 0 0 .00916791338312351 16 168 35 0 ?92 170 165
 166 0 0 16 30 169 349 0 170 166 171 0 +.028125 .01665625 0 -1 -3127388801761005
e-30 0 16 170 38 0 ?95 172 168 169 0 0 16 30 171 350 0 172 169 173 0 -.035 .0166
5625 .003 0 0 -1 16 172 40 0 ?174 175 170 171 0 0 16 30 173 351 0 175 171 176 0
 +.028125 .01665625 .003 -1 -3127388801761005e-30 0 16 175 42 0 ?177 178 172 173
 0 0 16 30 176 352 0 178 173 179 0 +.037 .01245068782567992 .003 0 1 0 16 178 45
 0 ?180 181 175 176 0 0 16 30 179 353 0 181 176 182 0 +.037 .01465625 0 0 0 -1 1
6 181 48 0 ?183 184 178 179 0 0 16 30 182 354 0 184 179 185 0 +.037 .01245068782
567992 0 0 1 0 16 184 50 0 ?186 187 181 182 0 0 16 30 185 355 0 187 182 188 0 -.
037 .01124512565135992 .003 0 0 -1 16 187 52 0 ?189 190 184 185 0 0 16 30 188 35
6 0 190 185 191 0 +.04675 .00824512565135993 .003 1 0 0 16 190 55 0 ?192 193 187
 188 0 0 16 30 191 357 0 193 188 194 0 +.04 .00824512565135993 0 0 0 -1 16 193 5
8 0 ?195 196 190 191 0 0 16 30 194 358 0 196 191 197 0 +.04675 .0082451256513599
3 0 1 0 0 16 196 60 0 ?198 199 193 194 0 0 16 30 197 359 0 199 194 200 0 -.0535
 .00824512565135993 .003 0 0 -1 16 199 62 0 ?201 202 196 197 0 0 16 30 200 360 0
 202 197 203 0 +.0565 .01245068782567992 0 0 1 0 16 202 65 0 ?204 205 199 200 0
 0 16 30 203 361 0 205 200 206 0 -.0565 .01465625 .003 0 0 -1 16 205 68 0 ?207 2
08 202 203 0 0 16 30 206 362 0 208 203 209 0 +.0565 .01245068782567992 .003 0 1
 0 16 208 70 0 ?210 211 205 206 0 0 16 30 209 363 0 211 206 212 0 +.0565 .011245
12565135992 .003 0 0 -1 16 211 72 0 ?213 214 208 209 0 0 16 31 212 364 0 214 209
 215 0 +.04175 .01299512565135974 .003 0 0 1 1 0 0 .00165 16 214 75 0 ?216 217 2
11 212 0 0 16 31 215 365 0 217 212 218 0 +.04175 .01299512565135974 0 0 0 1 1 0
 0 .00165 16 217 77 0 ?219 220 214 215 0 0 16 30 218 366 0 220 215 221 0 +.04675
 .01665625 .003 -1 0 0 16 220 80 0 ?137 48 217 218 0 0 16 30 221 367 0 48 218 14
2 0 +.0585 .01665625 .003 0 0 -1 16 48 82 0 ?47 126 220 221 0 0 16 30 142 368 0
 126 221 222 0 +.04675 .01665625 0 -1 0 0 31 222 369 0 141 142 223 0 +.05175 .01
299512565135974 .003 0 0 1 1 0 0 .00165 16 141 87 0 ?224 225 126 222 0 0 16 31 2
23 370 0 225 222 226 0 +.05175 .01299512565135974 0 0 0 1 1 0 0 .00165 16 225 89
 0 ?227 228 141 223 0 0 16 31 226 372 0 228 223 229 0 +.04 .01124512565135992 .0
03 0 0 1 1 0 0 .003 16 228 94 0 ?230 231 225 226 0 0 16 31 229 373 0 231 226 232
 0 +.0535 .01124512565135992 .003 0 0 1 1 0 0 .003 16 231 95 0 ?233 234 228 229
 0 0 16 31 232 374 0 234 229 235 0 -.0585 .01465625 .003 0 0 1 1 0 0 .002 16 234
 96 0 ?49 236 231 232 0 0 16 31 235 375 0 236 232 237 0 -.035 .01465625 .003 0 0
 1 1 0 0 .002 16 236 97 0 ?238 239 234 235 0 0 16 31 237 377 0 239 235 240 0 -.0
4 .01124512565135992 0 0 0 1 1 0 0 .003 16 239 104 0 ?241 242 236 237 0 0 16 31
 240 378 0 242 237 33 0 +.035 .01465625 0 0 0 1 1 0 0 .002 16 242 105 0 ?243 37
 239 240 0 0 16 31 33 379 0 37 240 21 0 +.0585 .01465625 0 0 0 1 1 0 0 .002 16 3
7 106 0 ?43 24 242 33 0 0 16 17 43 0 119 244 44 58 38 37 0 204 +17 244 0 119 36
 43 45 204 202 0 213 -17 204 0 245 207 213 58 244 202 0 0 +15 245 64 0 204 246 0
 17 207 0 245 247 204 56 42 205 0 0 +17 213 0 245 204 247 45 55 211 0 0 +17 247
 0 245 213 207 51 210 208 0 0 -17 55 0 248 69 50 51 213 211 0 233 -15 248 113 0
 69 249 0 17 69 0 248 63 55 59 233 231 0 192 -17 50 0 248 55 63 45 36 24 0 244 -
17 233 0 250 210 192 51 69 231 0 247 +15 250 93 0 251 252 253 17 210 0 250 49 23
3 56 247 208 0 207 +17 192 0 250 233 230 59 254 190 0 201 +17 230 0 250 192 251
 67 84 228 0 254 +17 254 0 255 195 201 67 192 190 0 0 -17 201 0 255 254 198 59 6
3 199 0 0 +15 255 54 0 254 256 0 17 198 0 255 201 195 61 123 196 0 0 +17 63 0 24
8 50 69 61 201 199 0 36 -17 36 0 119 123 244 61 50 24 0 198 +17 123 0 119 241 36
 64 198 196 0 195 -17 241 0 119 186 123 73 66 239 0 257 +17 195 0 255 198 254 64
 71 193 0 0 +17 71 0 258 84 66 67 195 193 0 230 -15 258 111 0 84 259 0 17 84 0 2
58 75 71 72 230 228 0 251 -17 66 0 258 71 75 64 241 239 0 123 -17 75 0 258 66 84
 73 189 187 0 241 -17 189 0 260 180 257 72 75 187 0 0 +15 260 44 0 180 261 0 17
 180 0 260 183 189 79 251 178 0 0 +17 257 0 260 189 183 73 186 184 0 0 -17 183 0
 260 257 180 76 81 181 0 0 +17 186 0 119 243 241 76 257 184 0 183 +17 243 0 119
 95 186 87 78 242 0 262 +17 95 0 119 101 243 93 262 170 0 167 +17 78 0 263 81 89
 76 243 242 0 186 -17 262 0 264 174 167 87 95 170 0 0 -15 264 37 0 262 265 0 17
 174 0 264 177 262 82 89 172 0 0 +17 167 0 264 262 177 93 266 165 0 164 +17 177
 0 264 167 174 90 267 175 0 266 +17 266 0 268 269 164 90 167 165 0 0 -17 164 0 2
68 266 159 93 101 162 0 0 +15 268 30 0 164 270 0 17 159 0 268 164 269 99 271 157
 0 156 +17 101 0 119 107 95 99 164 162 0 159 -17 107 0 119 117 101 105 156 154 0
 151 -17 156 0 272 271 151 99 107 154 0 0 +17 151 0 272 156 273 105 274 145 0 12
7 +15 272 23 0 156 275 0 17 273 0 272 151 271 102 98 160 0 274 -17 274 0 276 277
 127 102 151 145 0 0 -17 127 0 276 274 129 105 117 128 0 0 +15 276 16 0 127 278
 0 17 129 0 276 127 277 115 131 133 0 120 +17 277 0 276 129 274 112 104 152 0 13
1 -17 131 0 130 140 120 112 129 133 0 0 -16 133 10 0 ?129 143 121 148 0 0 16 30
 148 337 0 133 134 147 0 +.078599043891456 .033894879152536 .003 0 0 -1 31 134 3
36 0 121 0 148 0 +.07425 .02582416338312375 0 0 0 1 1 0 0 .00916791338312348 17
 104 0 250 98 114 102 277 152 0 273 +17 98 0 250 92 104 96 273 160 0 269 +17 114
 0 250 104 111 112 140 143 0 277 +17 111 0 250 114 49 109 137 220 0 136 -17 49 0
 250 111 210 39 46 234 0 137 +17 137 0 135 47 136 39 111 220 0 0 +17 46 0 40 42
 41 56 49 234 0 210 -15 40 117 0 46 31 0 17 42 0 40 38 46 58 207 205 0 43 -14 25
5 31 116 279 ?0 280 40 19 20 -0 0 0 280 35 81 1 279 476 281 31 282 0 283 0 284 1
4 280 114 283 ?31 249 263 19 32 -0 0 31 249 35 13 35 4 0 0 0 0 0 0 23 29 14 29 5
 285 ?278 0 130 19 286 +0 0 278 0 35 81 1 285 444 281 29 287 0 0 288 289 14 278
 15 288 ?275 29 276 19 290 +0 0 275 29 35 51 286 240 0 29 0 290 0 +.07425 .02582
416338312375 .003 0 0 -1 .00916791338312348 -1 0 0 51 290 251 0 278 286 291 0 +.
0478009983934164 -.02325843492563205 .003 0 0 -1 .0649231924401213 -1 0 0 51 291
 256 0 275 290 292 0 +.0456990016065836 -.02325843492563105 .003 0 0 -1 .0649231
924401209 -1 0 0 14 275 22 293 ?270 278 272 19 291 +0 0 270 278 35 51 292 261 0
 270 291 294 0 +.01925 .02582416338312375 .003 0 0 -1 .00916791338312351 -1 0 0
 14 270 29 295 ?265 275 268 19 292 +0 0 265 275 35 50 255 294 266 0 265 292 296
 0 +.028125 .01665625 .003 3127388801761005e-30 -1 0 1 3127388801761005e-30 0 14
 265 36 297 ?261 270 264 19 294 +0 0 261 270 35 50 296 271 0 261 294 298 0 +.037
 .01245068782567992 .003 -1 0 0 0 0 1 14 261 43 299 ?256 265 260 19 296 +0 0 256
 265 35 50 298 276 0 256 296 300 0 +.04675 .00824512565135993 .003 0 1 0 0 0 1 1
4 256 53 301 ?246 261 255 19 298 -0 0 246 261 35 50 300 281 0 246 298 302 0 +.05
65 .01245068782567992 .003 -1 0 0 0 0 1 14 246 63 303 ?304 256 245 19 300 -0 0 3
04 256 35 51 302 286 0 304 300 305 0 +.04175 .01299512565135974 .003 0 0 -1 .001
65 -1 0 0 14 304 73 306 ?138 246 307 19 302 -0 0 138 246 35 50 305 291 0 138 302
 308 0 +.04675 .01665625 .003 0 -1 0 0 0 -1 14 138 78 309 ?310 304 135 19 305 +0
 0 310 304 35 51 308 296 0 310 305 311 0 +.05175 .01299512565135974 .003 0 0 -1
 .00165 -1 0 0 14 310 85 312 ?252 138 313 19 308 -0 0 252 138 35 50 311 301 0 25
2 308 314 0 +-.045 -.206 .003 0 0 1 1 0 0 14 252 90 315 ?124 310 250 19 311 +0 0
 124 310 35 50 314 306 0 124 311 316 0 +-.045 -.206 0 0 0 1 1 0 0 14 124 100 317
 ?259 252 119 19 314 -0 0 259 252 35 51 316 311 0 259 314 318 0 +.04 .0112451256
5135992 .003 0 0 1 .003 1 0 0 14 259 110 319 ?249 124 258 19 316 +0 0 249 124 35
 51 318 316 0 249 316 32 0 +.0535 .01124512565135992 .003 0 0 -1 .003 -1 0 0 14
 249 112 320 ?280 259 248 19 318 +0 0 280 259 35 51 32 321 0 280 318 20 0 +.035
 .01465625 .003 0 0 1 .002 1 0 0 81 1 320 472 281 249 321 0 319 283 322 80 7 CCC
CCDI12 legal_owners0 16 1 lCZ1 281 323 324 8015 0 0 0 0 3 5 0 0 0 FFFFTFFFFFFFFF
FF2 81 1 321 471 325 249 326 320 327 328 329 81 1 319 470 281 259 327 0 317 320
 330 81 1 283 474 281 280 328 0 320 279 331 83 255 1 322 0 81 1 328 473 325 280
 332 283 321 282 333 83 1 331 0 80 1 325 0 334 8001 0 0 0 0 3 5 0 0 0 FFFFTFTFFF
FFFFFF2 81 1 332 397 335 280 0 328 336 337 338 81 1 282 475 325 31 336 279 328 0
 339 83 3 333 .713725490196078 .713725490196078 .713725490196078 81 1 336 395 33
5 31 0 282 340 332 341 83 3 339 .713725490196078 .713725490196078 .7137254901960
78 80 1 335 342 343 9000 0 0 0 0 3 6 0 0 0 TFTTTTTTFFFFTTFF3 81 1 340 393 335 16
 344 26 0 336 345 84 255 12 341 {65}@1e@{10}81 1 344 392 346 16 0 340 0 0 347 81
 1 26 394 342 16 340 17 0 0 348 84 3 345 10180 1 342 349 350 9000 0 0 0 0 3 6 0
 0 0 TFTTTTTTFFFFTTFF3 84 26 348 Shifters-1/Paddle-1-solid179 255 21 350 H3DX_BR
IDGE/PART_NAME80 1 346 351 352 8017 0 0 0 0 0 0 0 0 0 TTTTTTTTTTTTTFTF3 84 26 34
7 Shifters-1/Paddle-1-solid179 13 352 SDL/TYSA_NAME79 25 343 H3DX_BRIDGE/PERSIST
ENT_ID81 1 337 398 335 29 0 287 332 353 354 84 11 338 {65}@1e@{f}81 1 287 443 32
5 29 337 285 0 355 356 81 1 353 399 335 278 0 355 337 357 358 84 11 354 {65}@1e@
{0}81 1 355 445 325 278 353 288 287 359 360 81 1 357 400 335 275 0 359 353 361 3
62 84 11 358 {65}@1e@{1}81 1 359 447 325 275 357 293 355 363 364 81 1 361 401 33
5 270 0 363 357 365 366 84 11 362 {65}@1e@{2}81 1 363 449 325 270 361 295 359 36
7 368 81 1 365 402 335 265 0 367 361 369 370 84 11 366 {65}@1e@{3}81 1 367 451 3
25 265 365 297 363 371 372 81 1 369 403 335 261 0 371 365 373 374 84 11 370 {65}
@1e@{4}81 1 371 453 325 261 369 299 367 375 376 81 1 373 404 335 256 0 375 369 3
77 378 84 11 374 {65}@1e@{5}81 1 375 455 325 256 373 301 371 379 380 81 1 377 40
5 335 246 0 379 373 381 382 84 11 378 {65}@1e@{6}81 1 379 457 325 246 377 303 37
5 383 384 81 1 381 406 335 304 0 383 377 385 386 84 11 382 {65}@1e@{7}81 1 383 4
59 325 304 381 306 379 387 388 81 1 385 407 335 138 0 387 381 389 390 84 11 386
 {65}@1e@{8}81 1 387 461 325 138 385 309 383 391 392 81 1 389 408 335 310 0 391
 385 393 394 84 11 390 {65}@1e@{9}81 1 391 463 325 310 389 312 387 395 396 81 1
 393 409 335 252 0 395 389 397 398 84 11 394 {65}@1e@{a}81 1 395 465 325 252 393
 315 391 399 400 81 1 397 410 335 124 0 399 393 401 402 84 11 398 {65}@1e@{b}81
 1 399 467 325 124 397 317 395 327 403 81 1 401 411 335 259 0 327 397 326 404 84
 11 402 {65}@1e@{c}81 1 327 469 325 259 401 319 399 321 405 81 1 326 412 335 249
 0 321 401 0 406 84 11 404 {65}@1e@{d}84 11 406 {65}@1e@{e}83 3 405 .71372549019
6078 .713725490196078 .713725490196078 81 1 317 468 281 124 399 0 315 319 407 83
 3 403 .713725490196078 .713725490196078 .713725490196078 81 1 315 466 281 252 3
95 0 312 317 408 83 1 407 0 81 1 312 464 281 310 391 0 309 315 409 83 1 408 0 81
 1 309 462 281 138 387 0 306 312 410 83 1 409 0 81 1 306 460 281 304 383 0 303 3
09 411 83 1 410 0 81 1 303 458 281 246 379 0 301 306 412 83 1 411 0 81 1 301 456
 281 256 375 0 299 303 413 83 1 412 0 81 1 299 454 281 261 371 0 297 301 414 83
 1 413 0 81 1 297 452 281 265 367 0 295 299 415 83 1 414 0 81 1 295 450 281 270
 363 0 293 297 416 83 1 415 0 81 1 293 448 281 275 359 0 288 295 417 83 1 416 0
 81 1 288 446 281 278 355 0 285 293 418 83 1 417 0 83 1 418 0 83 3 400 .71372549
0196078 .713725490196078 .713725490196078 83 3 396 .713725490196078 .71372549019
6078 .713725490196078 83 3 392 .713725490196078 .713725490196078 .71372549019607
8 83 3 388 .713725490196078 .713725490196078 .713725490196078 83 3 384 .71372549
0196078 .713725490196078 .713725490196078 83 3 380 .713725490196078 .71372549019
6078 .713725490196078 83 3 376 .713725490196078 .713725490196078 .71372549019607
8 83 3 372 .713725490196078 .713725490196078 .713725490196078 83 3 368 .71372549
0196078 .713725490196078 .713725490196078 83 3 364 .713725490196078 .71372549019
6078 .713725490196078 83 3 360 .713725490196078 .713725490196078 .71372549019607
8 83 3 356 .713725490196078 .713725490196078 .713725490196078 79 15 334 SDL/TYSA
_COLOUR83 1 330 0 83 3 329 .713725490196078 .713725490196078 .713725490196078 79
 21 324 SDL/TYSA_TRANSLUCENCY15 313 86 0 224 310 419 17 224 0 313 224 224 0 420
 141 0 0 +15 419 88 0 421 310 0 17 421 0 419 421 421 0 227 225 0 0 -17 227 0 422
 227 227 0 421 225 0 0 +15 422 109 0 227 124 0 17 420 0 423 420 420 0 224 141 0
 0 -15 423 99 0 420 252 0 15 307 74 0 216 304 424 17 216 0 307 216 216 0 425 214
 0 0 +15 424 76 0 426 304 0 17 426 0 424 426 426 0 219 217 0 0 -17 219 0 125 219
 219 0 426 217 0 0 +15 125 108 0 219 124 422 17 425 0 253 425 425 0 216 214 0 0
 -15 253 98 0 425 252 423 83 1 289 0 15 263 115 0 86 280 0 17 86 0 263 89 81 82
 238 236 0 267 -17 89 0 263 78 86 87 174 172 0 243 -17 81 0 263 86 78 79 183 181
 0 238 -17 238 0 250 251 267 79 86 236 0 180 +17 267 0 250 238 92 82 177 175 0 1
74 -17 92 0 250 267 98 90 269 168 0 177 +17 269 0 268 159 266 96 92 168 0 271 -1
7 271 0 272 273 156 96 159 157 0 0 -17 251 0 250 230 238 72 180 178 0 189 -83 1
 284 0 19 30 122 0 16 0 23 19 0 S0 74 4 CI16 index_map_offset0 0 1 dCCZ20 28 6 0
 0 344 326 26 17 282 279 0 0 0 0 0 0 0 0 0 0 0 0 0 0 80 1 6 346 427 8038 0 0 0 0
 0 0 0 0 0 TTTTTTTTTTTTTFTF10 98 255 26 27 83 104 105 102 116 101 114 115 45 49
 47 80 97 100 100 108 101 45 49 45 115 111 108 105 100 49 79 14 427 SDL/TYSA_UNA
ME74 20 15 2 0 0 13 10 0 0 0 0 0 0 0 0 0 0 0 0 0 0 0 0 0 0 81 1 13 1 346 4 0 10
 0 0 428 84 13 428 Paddle.SLDPRT98 13 14 80 97 100 100 108 101 46 83 76 68 80 82
 84 74 20 9 2 0 0 7 2 0 0 0 0 0 0 0 0 0 0 0 0 0 0 0 0 0 0 81 1 7 1 346 1 0 2 0 0
 429 84 4 429 root98 4 8 114 111 111 116 1 0 
