**ABCDEFGHIJKLMNOPQRSTUVWXYZabcdefghijklmnopqrstuvwxyz**************************
**PARASOLID !"#$%&'()*+,-./:;<=>?@[\]^_`{|}~0123456789**************************
**PART1;
MC=unknown;
MC_MODEL=unknown;
MC_ID=unknown;
OS=iOS;
OS_RELEASE=unknown;
FRU=Shapr3D Zrt.;
APPL=Shapr3D;
SITE=Budapest, Hungary;
USER=unknown;
FORMAT=text;
GUISE=transmit;
KEY=/var/folders/85/2_5hrtnx6kqc2y0z1ld2btzc0000gn/T/com.shapr3d.shapr/export/temp_export;
FILE=/var/folders/85/2_5hrtnx6kqc2y0z1ld2btzc0000gn/T/com.shapr3d.shapr/export/temp_export;
DATE=2022-10-25 23:25 (UTC);
**PART2;
SCH=SCH_3401244_34101;
USFLD_SIZE=16;
**PART3;
**END_OF_HEADER*****************************************************************
T51 : TRANSMIT FILE created by modeller version 340124423 SCH_3401244_34101_1300
6231 0 10 21 CCCCI7 lattice222 0 CCCI4 mesh1006 0 I8 polyline1008 0 CCCCCCCCCCA1
6 mesh_offset_data206 0 Z1 3 2 3 0 0 0 0 0 0 0 0 1e3 1e-8 0 0 4 1 0 1 5 0 81 255
 1 2 2 6 1 7 0 0 0 8 70 11 CI9 list_type0 0 1 uI10 notransmit0 0 1 lCCCDCCDI12 f
inger_index0 0 1 dI12 finger_block1012 0 CZ3 0 4 T1 0 0 2 20 1 9 9 11 255 5 3 0
 1 4 0 1 0 0 0 0 10 4 3 10 11 0 0 0 0 0 0 0 0 1e3 1e-8 5 1 0 1 0 1 12 0 81 1 10
 2 6 4 13 0 0 0 14 70 11 0 4 T4 0 0 2 20 1 15 15 11 12 3 0 1 16 0 4 0 0 0 0 12 3
6 CCCI7 lattice222 0 CCCI4 mesh1006 0 I8 polyline1008 0 CCCCCCCDI5 owner1040 0 C
CCI16 boundary_lattice222 0 CCCI13 boundary_mesh1006 0 I17 boundary_polyline1008
 0 CCCA16 index_map_offset0 0 1 dA9 index_map82 0 A17 node_id_index_map82 0 A20
 schema_embedding_map82 0 A5 child12 0 A14 lowest_node_id0 0 1 dA16 mesh_offset_
data206 0 Z16 492 17 18 0 0 0 0 0 0 0 1e3 1e-8 12 0 0 1 0 1 1 19 0 20 21 22 0 0
 23 24 25 0 0 0 0 0 0 0 81 1 17 394 6 16 26 0 0 0 27 70 18 0 4 T16 0 0 7 20 1 28
 28 13 255 19 116 0 16 0 29 0 0 30 0 51 255 20 315 0 31 32 0 0 +.0585 .01465625
 .003 0 0 -1 .002 -1 0 0 31 255 21 415 0 33 34 0 0 +.04675 .02975014019012445 0
 0 0 1 1 0 0 .005 29 255 22 228 0 25 35 0 .0585 .01665625 0 19 9 CCCCCCI5 frame2
30 0 CA5 owner12 0 Z23 114 0 16 30 0 36 0 V0 16 255 24 103 0 ?37 0 38 34 0 0 16
 18 255 25 83 0 39 0 40 22 ?16 17 255 39 0 41 42 43 25 44 38 0 45 -18 40 81 0 42
 25 46 35 ?16 17 42 0 41 47 39 40 48 49 0 50 -18 46 66 0 51 40 52 53 ?16 29 35 2
27 0 40 54 22 .0585 .01665625 .003 29 54 226 0 52 55 35 .0565 .01124512565135992
 .003 18 52 71 0 56 46 57 54 ?16 29 55 225 0 57 58 54 .0565 .01465625 .003 18 57
 69 0 47 52 59 55 ?16 29 58 224 0 59 53 55 .0565 .01465625 0 18 59 67 0 43 57 60
 58 ?16 29 53 223 0 46 61 58 .0565 .01124512565135992 0 29 61 222 0 62 63 53 .05
35 .00824512565135993 0 18 62 61 0 64 60 65 61 ?16 29 63 221 0 65 66 61 .04 .008
24512565135993 0 18 65 59 0 67 62 68 63 ?16 29 66 220 0 60 69 63 .0535 .00824512
565135993 .003 18 60 57 0 70 59 62 66 ?16 29 69 219 0 68 71 66 .04 .008245125651
35993 .003 18 68 56 0 72 65 73 69 ?16 29 71 218 0 74 75 69 .037 .011245125651359
92 0 18 74 51 0 76 73 77 71 ?16 29 75 217 0 77 78 71 .037 .01465625 0 18 77 49 0
 79 74 80 75 ?16 29 78 216 0 80 81 75 .037 .01465625 .003 18 80 47 0 82 77 83 78
 ?16 29 81 215 0 73 84 78 .037 .01124512565135992 .003 18 73 46 0 85 68 74 81 ?1
6 29 84 214 0 83 86 81 .035 .01665625 .003 18 83 41 0 87 80 88 84 ?16 29 86 213
 0 88 89 84 .035 .01665625 0 18 88 39 0 90 83 91 86 ?16 29 89 212 0 91 92 86 .01
925 .01665625 .003 18 91 34 0 93 88 94 89 ?16 29 92 211 0 94 95 89 .01925 .01665
625 0 18 94 32 0 96 91 97 92 ?16 29 95 210 0 97 98 92 .014900956108544 .03389487
9152536 .003 18 97 27 0 99 94 100 95 ?16 29 98 209 0 100 101 95 .014900956108544
 .033894879152536 0 18 100 25 0 102 97 103 98 ?16 29 101 208 0 103 104 98 .04675
 .04165625 .003 18 103 20 0 105 100 106 101 ?16 29 104 207 0 106 107 101 .04675
 .04165625 0 18 106 18 0 108 103 109 104 ?16 29 107 206 0 110 111 104 .07425 .01
665625 .003 18 110 13 0 112 109 113 107 ?16 29 111 205 0 113 114 107 .0785990438
91456 .033894879152536 .003 18 113 11 0 115 110 116 111 ?16 29 114 204 0 116 117
 111 .078599043891456 .033894879152536 0 18 116 9 0 118 113 0 114 ?16 29 117 203
 0 109 0 114 .07425 .01665625 0 18 109 8 0 119 106 110 117 ?16 17 119 0 120 45 1
18 109 121 122 0 123 -15 255 120 99 0 124 125 126 17 45 0 120 44 119 25 123 127
 0 48 +17 118 0 120 119 108 116 128 129 0 130 -17 121 0 131 132 133 116 119 122
 0 0 +16 122 7 0 ?121 134 33 135 0 0 16 17 123 0 136 137 48 109 45 127 0 133 -15
 136 79 0 138 139 0 17 137 0 136 138 123 110 133 140 0 141 -17 48 0 136 123 138
 25 42 49 0 0 +16 127 84 0 ?45 142 49 143 0 0 16 17 133 0 131 121 141 109 137 14
0 0 0 +15 131 6 0 121 29 0 17 141 0 131 133 132 110 115 144 0 0 -16 140 14 0 ?13
3 129 144 145 0 0 16 16 129 17 0 ?128 146 140 147 0 0 16 16 144 12 0 ?115 140 13
4 148 0 0 16 30 255 145 323 0 140 148 147 0 +.07425 .01665625 .003 0 0 -1 31 148
 322 0 144 149 145 0 +.07425 .02582416338312375 .003 0 0 1 1 0 0 .00916791338312
348 31 147 324 0 129 145 150 0 +.0478009983934164 -.02325843492563205 0 0 0 1 1
 0 0 .0649231924401213 30 150 325 0 146 147 151 0 +.04675 .04165625 .003 0 0 -1
 16 146 19 0 ?152 153 129 150 0 0 16 31 151 326 0 153 150 154 0 +.04780099839341
64 -.02325843492563205 .003 0 0 1 1 0 0 .0649231924401213 16 153 21 0 ?105 155 1
46 151 0 0 16 31 154 327 0 155 151 156 0 +.0456990016065836 -.02325843492563105
 0 0 0 1 1 0 0 .0649231924401209 16 155 24 0 ?157 158 153 154 0 0 16 30 156 328
 0 158 154 159 0 +.014900956108544 .033894879152536 .003 0 0 -1 16 158 26 0 ?160
 161 155 156 0 0 16 31 159 329 0 161 156 162 0 +.0456990016065836 -.023258434925
63105 .003 0 0 1 1 0 0 .0649231924401209 16 161 28 0 ?99 163 158 159 0 0 16 31 1
62 330 0 163 159 164 0 +.01925 .02582416338312375 0 0 0 1 1 0 0 .009167913383123
51 16 163 31 0 ?165 166 161 162 0 0 16 30 164 331 0 166 162 167 0 +.01925 .01665
625 .003 0 0 -1 16 166 33 0 ?168 169 163 164 0 0 16 31 167 332 0 169 164 170 0 +
.01925 .02582416338312375 .003 0 0 1 1 0 0 .00916791338312351 16 169 35 0 ?93 17
1 166 167 0 0 16 30 170 333 0 171 167 172 0 +.028125 .01665625 0 -1 -31273888017
61005e-30 0 16 171 38 0 ?96 173 169 170 0 0 16 30 172 334 0 173 170 174 0 -.035
 .01665625 .003 0 0 -1 16 173 40 0 ?175 176 171 172 0 0 16 30 174 335 0 176 172
 177 0 +.028125 .01665625 .003 -1 -3127388801761005e-30 0 16 176 42 0 ?178 179 1
73 174 0 0 16 30 177 336 0 179 174 180 0 +.037 .01245068782567992 .003 0 1 0 16
 179 45 0 ?181 182 176 177 0 0 16 30 180 337 0 182 177 183 0 +.037 .01465625 0 0
 0 -1 16 182 48 0 ?184 185 179 180 0 0 16 30 183 338 0 185 180 186 0 +.037 .0124
5068782567992 0 0 1 0 16 185 50 0 ?187 188 182 183 0 0 16 30 186 339 0 188 183 1
89 0 -.037 .01124512565135992 .003 0 0 -1 16 188 52 0 ?190 191 185 186 0 0 16 30
 189 340 0 191 186 192 0 +.04675 .00824512565135993 .003 1 0 0 16 191 55 0 ?193
 194 188 189 0 0 16 30 192 341 0 194 189 195 0 +.04 .00824512565135993 0 0 0 -1
 16 194 58 0 ?196 197 191 192 0 0 16 30 195 342 0 197 192 198 0 +.04675 .0082451
2565135993 0 1 0 0 16 197 60 0 ?199 200 194 195 0 0 16 30 198 343 0 200 195 201
 0 -.0535 .00824512565135993 .003 0 0 -1 16 200 62 0 ?202 203 197 198 0 0 16 30
 201 344 0 203 198 204 0 +.0565 .01245068782567992 0 0 1 0 16 203 65 0 ?205 206
 200 201 0 0 16 30 204 345 0 206 201 207 0 -.0565 .01465625 .003 0 0 -1 16 206 6
8 0 ?208 209 203 204 0 0 16 30 207 346 0 209 204 210 0 +.0565 .01245068782567992
 .003 0 1 0 16 209 70 0 ?211 212 206 207 0 0 16 30 210 347 0 212 207 213 0 +.056
5 .01124512565135992 .003 0 0 -1 16 212 72 0 ?214 215 209 210 0 0 16 31 213 348
 0 215 210 216 0 +.04175 .01299512565135974 .003 0 0 1 1 0 0 .00165 16 215 75 0
 ?217 218 212 213 0 0 16 31 216 349 0 218 213 219 0 +.04175 .01299512565135974 0
 0 0 1 1 0 0 .00165 16 218 77 0 ?220 221 215 216 0 0 16 30 219 350 0 221 216 222
 0 +.04675 .01665625 .003 -1 0 0 16 221 80 0 ?138 49 218 219 0 0 16 30 222 351 0
 49 219 143 0 +.0585 .01665625 .003 0 0 -1 16 49 82 0 ?48 127 221 222 0 0 16 30
 143 352 0 127 222 223 0 +.04675 .01665625 0 -1 0 0 31 223 353 0 142 143 224 0 +
.05175 .01299512565135974 .003 0 0 1 1 0 0 .00165 16 142 87 0 ?225 226 127 223 0
 0 16 31 224 354 0 226 223 227 0 +.05175 .01299512565135974 0 0 0 1 1 0 0 .00165
 16 226 89 0 ?228 229 142 224 0 0 16 31 227 355 0 229 224 230 0 +.04 .0112451256
5135992 .003 0 0 1 1 0 0 .003 16 229 92 0 ?231 232 226 227 0 0 16 31 230 356 0 2
32 227 233 0 +.0535 .01124512565135992 .003 0 0 1 1 0 0 .003 16 232 93 0 ?234 23
5 229 230 0 0 16 31 233 357 0 235 230 236 0 -.0585 .01465625 .003 0 0 1 1 0 0 .0
02 16 235 94 0 ?50 237 232 233 0 0 16 31 236 358 0 237 233 238 0 -.035 .01465625
 .003 0 0 1 1 0 0 .002 16 237 95 0 ?239 240 235 236 0 0 16 31 238 359 0 240 236
 241 0 -.04 .01124512565135992 0 0 0 1 1 0 0 .003 16 240 100 0 ?242 243 237 238
 0 0 16 31 241 360 0 243 238 244 0 +.035 .01465625 0 0 0 1 1 0 0 .002 16 243 101
 0 ?245 38 240 241 0 0 16 31 244 361 0 38 241 34 0 +.0585 .01465625 0 0 0 1 1 0
 0 .002 16 38 102 0 ?44 24 243 244 0 0 16 31 34 362 0 24 244 21 0 -.0535 .011245
12565135992 0 0 0 1 1 0 0 .003 17 44 0 120 246 45 59 39 38 0 205 +17 246 0 120 3
7 44 46 205 203 0 214 -17 205 0 247 208 214 59 246 203 0 0 +15 247 64 0 205 248
 0 17 208 0 247 249 205 57 43 206 0 0 +17 214 0 247 205 249 46 56 212 0 0 +17 24
9 0 247 214 208 52 211 209 0 0 -17 56 0 250 70 51 52 214 212 0 234 -15 250 109 0
 70 251 0 17 70 0 250 64 56 60 234 232 0 193 -17 51 0 250 56 64 46 37 24 0 246 -
17 234 0 252 211 193 52 70 232 0 249 +15 252 91 0 253 254 255 17 211 0 252 50 23
4 57 249 209 0 208 +17 193 0 252 234 231 60 256 191 0 202 +17 231 0 252 193 253
 68 85 229 0 256 +17 256 0 257 196 202 68 193 191 0 0 -17 202 0 257 256 199 60 6
4 200 0 0 +15 257 54 0 256 258 0 17 199 0 257 202 196 62 124 197 0 0 +17 64 0 25
0 51 70 62 202 200 0 37 -17 37 0 120 124 246 62 51 24 0 199 +17 124 0 120 242 37
 65 199 197 0 196 -17 242 0 120 187 124 74 67 240 0 259 +17 196 0 257 199 256 65
 72 194 0 0 +17 72 0 260 85 67 68 196 194 0 231 -15 260 107 0 85 261 0 17 85 0 2
60 76 72 73 231 229 0 253 -17 67 0 260 72 76 65 242 240 0 124 -17 76 0 260 67 85
 74 190 188 0 242 -17 190 0 262 181 259 73 76 188 0 0 +15 262 44 0 181 263 0 17
 181 0 262 184 190 80 253 179 0 0 +17 259 0 262 190 184 74 187 185 0 0 -17 184 0
 262 259 181 77 82 182 0 0 +17 187 0 120 245 242 77 259 185 0 184 +17 245 0 120
 96 187 88 79 243 0 264 +17 96 0 120 102 245 94 264 171 0 168 +17 79 0 265 82 90
 77 245 243 0 187 -17 264 0 266 175 168 88 96 171 0 0 -15 266 37 0 264 267 0 17
 175 0 266 178 264 83 90 173 0 0 +17 168 0 266 264 178 94 268 166 0 165 +17 178
 0 266 168 175 91 269 176 0 268 +17 268 0 270 271 165 91 168 166 0 0 -17 165 0 2
70 268 160 94 102 163 0 0 +15 270 30 0 165 272 0 17 160 0 270 165 271 100 273 15
8 0 157 +17 102 0 120 108 96 100 165 163 0 160 -17 108 0 120 118 102 106 157 155
 0 152 -17 157 0 274 273 152 100 108 155 0 0 +17 152 0 274 157 275 106 276 146 0
 128 +15 274 23 0 157 277 0 17 275 0 274 152 273 103 99 161 0 276 -17 276 0 278
 279 128 103 152 146 0 0 -17 128 0 278 276 130 106 118 129 0 0 +15 278 16 0 128
 280 0 17 130 0 278 128 279 116 132 134 0 121 +17 279 0 278 130 276 113 105 153
 0 132 -17 132 0 131 141 121 113 130 134 0 0 -16 134 10 0 ?130 144 122 149 0 0 1
6 30 149 321 0 134 135 148 0 +.078599043891456 .033894879152536 .003 0 0 -1 31 1
35 320 0 122 281 149 0 +.07425 .02582416338312375 0 0 0 1 1 0 0 .009167913383123
48 31 281 453 0 282 0 135 0 +.04675 .02975014019012445 .003 0 0 1 1 0 0 .005 16
 282 431 283 ?284 33 0 281 0 0 16 81 2 283 433 285 282 0 0 0 0 286 0 17 284 0 28
7 284 284 0 288 282 0 0 +16 33 427 0 ?289 122 282 21 0 0 16 17 289 0 290 289 289
 0 291 33 0 0 +15 290 413 0 289 125 120 17 291 0 292 291 291 0 289 33 0 0 -15 29
2 437 0 291 293 0 14 255 293 438 294 ?0 31 287 19 295 -0 0 0 31 36 81 1 294 492
 296 293 297 0 298 0 299 14 31 112 298 ?293 300 41 19 20 -0 0 293 300 36 15 287
 436 0 284 293 292 51 295 450 0 293 0 301 0 +.04675 .02975014019012445 -.002 0 0
 1 .005 1 0 0 13 36 4 0 0 0 0 0 0 23 29 14 29 5 302 ?280 0 131 19 301 +0 0 280 0
 36 81 1 302 458 296 29 303 0 0 304 305 14 280 15 304 ?277 29 278 19 306 +0 0 27
7 29 36 51 301 229 0 29 295 306 0 +.07425 .02582416338312375 .003 0 0 -1 .009167
91338312348 -1 0 0 51 306 240 0 280 301 307 0 +.0478009983934164 -.0232584349256
3205 .003 0 0 -1 .0649231924401213 -1 0 0 51 307 245 0 277 306 308 0 +.045699001
6065836 -.02325843492563105 .003 0 0 -1 .0649231924401209 -1 0 0 14 277 22 309 ?
272 280 274 19 307 +0 0 272 280 36 51 308 250 0 272 307 310 0 +.01925 .025824163
38312375 .003 0 0 -1 .00916791338312351 -1 0 0 14 272 29 311 ?267 277 270 19 308
 +0 0 267 277 36 50 255 310 255 0 267 308 312 0 +.028125 .01665625 .003 31273888
01761005e-30 -1 0 1 3127388801761005e-30 0 14 267 36 313 ?263 272 266 19 310 +0
 0 263 272 36 50 312 260 0 263 310 314 0 +.037 .01245068782567992 .003 -1 0 0 0
 0 1 14 263 43 315 ?258 267 262 19 312 +0 0 258 267 36 50 314 265 0 258 312 316
 0 +.04675 .00824512565135993 .003 0 1 0 0 0 1 14 258 53 317 ?248 263 257 19 314
 -0 0 248 263 36 50 316 270 0 248 314 318 0 +.0565 .01245068782567992 .003 -1 0
 0 0 0 1 14 248 63 319 ?320 258 247 19 316 -0 0 320 258 36 51 318 275 0 320 316
 321 0 +.04175 .01299512565135974 .003 0 0 -1 .00165 -1 0 0 14 320 73 322 ?139 2
48 323 19 318 -0 0 139 248 36 50 321 280 0 139 318 324 0 +.04675 .01665625 .003
 0 -1 0 0 0 -1 14 139 78 325 ?326 320 136 19 321 +0 0 326 320 36 51 324 285 0 32
6 321 327 0 +.05175 .01299512565135974 .003 0 0 -1 .00165 -1 0 0 14 326 85 328 ?
254 139 329 19 324 -0 0 254 139 36 50 327 290 0 254 324 330 0 +-.045 -.206 .003
 0 0 1 1 0 0 14 254 90 331 ?125 326 332 19 327 +0 0 125 326 36 50 330 295 0 125
 327 333 0 +-.045 -.206 0 0 0 1 1 0 0 14 125 98 334 ?261 254 290 19 330 -0 0 261
 254 36 51 333 300 0 261 330 335 0 +.04 .01124512565135992 .003 0 0 1 .003 1 0 0
 14 261 106 336 ?251 125 260 19 333 +0 0 251 125 36 51 335 305 0 251 333 32 0 +.
0535 .01124512565135992 .003 0 0 -1 .003 -1 0 0 14 251 108 337 ?300 261 250 19 3
35 +0 0 300 261 36 51 32 310 0 300 335 20 0 +.035 .01465625 .003 0 0 1 .002 1 0
 0 14 300 110 338 ?31 251 265 19 32 -0 0 31 251 36 81 1 338 488 296 300 339 0 33
7 298 340 15 265 111 0 87 300 0 17 87 0 265 90 82 83 239 237 0 269 -17 90 0 265
 79 87 88 175 173 0 245 -17 82 0 265 87 79 80 184 182 0 239 -17 239 0 252 253 26
9 80 87 237 0 181 +17 269 0 252 239 93 83 178 176 0 175 -17 93 0 252 269 99 91 2
71 169 0 178 +17 99 0 252 93 105 97 275 161 0 271 +17 271 0 270 160 268 97 93 16
9 0 273 -17 273 0 274 275 157 97 160 158 0 0 -17 105 0 252 99 115 103 279 153 0
 275 +17 115 0 252 105 112 113 141 144 0 279 +17 112 0 252 115 50 110 138 221 0
 137 -17 50 0 252 112 211 40 47 235 0 138 +17 138 0 136 48 137 40 112 221 0 0 +1
7 47 0 41 43 42 57 50 235 0 211 -15 41 113 0 47 31 0 17 43 0 41 39 47 59 208 206
 0 44 -17 253 0 252 231 239 73 181 179 0 190 -80 7 CCCCCDI12 legal_owners0 16 1
 lCZ1 296 341 342 8015 0 0 0 0 3 5 0 0 0 FFFFTFFFFFFFFFFF2 81 1 339 487 343 300
 344 338 345 346 347 81 1 337 486 296 251 345 0 336 338 348 81 1 298 490 296 31
 346 0 338 294 349 83 255 1 340 0 81 1 346 489 343 31 350 298 339 297 351 83 1 3
49 0 80 1 343 0 352 8001 0 0 0 0 3 5 0 0 0 FFFFTFTFFFFFFFFF2 81 1 350 377 353 31
 0 346 354 344 355 81 1 297 491 343 293 0 294 346 0 356 83 3 351 .71764705882352
9 .717647058823529 .717647058823529 83 3 356 .717647058823529 .717647058823529 .
717647058823529 80 1 353 357 358 9000 0 0 0 0 3 6 0 0 0 TFTTTTTTFFFFTTFF3 81 1 3
54 375 353 16 359 26 0 350 360 81 1 344 378 353 300 0 339 350 361 362 84 255 12
 355 {65}@1e@{10}81 1 361 379 353 29 0 303 344 363 364 84 11 362 {65}@1e@{f}81 1
 303 457 343 29 361 302 0 365 366 81 1 363 380 353 280 0 365 361 367 368 84 11 3
64 {65}@1e@{0}81 1 365 459 343 280 363 304 303 369 370 81 1 367 381 353 277 0 36
9 363 371 372 84 11 368 {65}@1e@{1}81 1 369 461 343 277 367 309 365 373 374 81 1
 371 382 353 272 0 373 367 375 376 84 11 372 {65}@1e@{2}81 1 373 463 343 272 371
 311 369 377 378 81 1 375 383 353 267 0 377 371 379 380 84 11 376 {65}@1e@{3}81
 1 377 465 343 267 375 313 373 381 382 81 1 379 384 353 263 0 381 375 383 384 84
 11 380 {65}@1e@{4}81 1 381 467 343 263 379 315 377 385 386 81 1 383 385 353 258
 0 385 379 387 388 84 11 384 {65}@1e@{5}81 1 385 469 343 258 383 317 381 389 390
 81 1 387 386 353 248 0 389 383 391 392 84 11 388 {65}@1e@{6}81 1 389 471 343 24
8 387 319 385 393 394 81 1 391 387 353 320 0 393 387 395 396 84 11 392 {65}@1e@{
7}81 1 393 473 343 320 391 322 389 397 398 81 1 395 388 353 139 0 397 391 399 40
0 84 11 396 {65}@1e@{8}81 1 397 475 343 139 395 325 393 401 402 81 1 399 389 353
 326 0 401 395 403 404 84 11 400 {65}@1e@{9}81 1 401 477 343 326 399 328 397 405
 406 81 1 403 390 353 254 0 405 399 407 408 84 11 404 {65}@1e@{a}81 1 405 479 34
3 254 403 331 401 409 410 81 1 407 391 353 125 0 409 403 411 412 84 11 408 {65}@
1e@{b}81 1 409 481 343 125 407 334 405 413 414 81 1 411 392 353 261 0 413 407 41
5 416 84 11 412 {65}@1e@{c}81 1 413 483 343 261 411 336 409 345 417 81 1 415 393
 353 251 0 345 411 0 418 84 11 416 {65}@1e@{d}81 1 345 485 343 251 415 337 413 3
39 419 84 11 418 {65}@1e@{e}83 3 419 .717647058823529 .717647058823529 .71764705
8823529 81 1 336 484 296 261 413 0 334 337 420 83 3 417 .717647058823529 .717647
058823529 .717647058823529 81 1 334 482 296 125 409 0 331 336 421 83 1 420 0 81
 1 331 480 296 254 405 0 328 334 422 83 1 421 0 81 1 328 478 296 326 401 0 325 3
31 423 83 1 422 0 81 1 325 476 296 139 397 0 322 328 424 83 1 423 0 81 1 322 474
 296 320 393 0 319 325 425 83 1 424 0 81 1 319 472 296 248 389 0 317 322 426 83
 1 425 0 81 1 317 470 296 258 385 0 315 319 427 83 1 426 0 81 1 315 468 296 263
 381 0 313 317 428 83 1 427 0 81 1 313 466 296 267 377 0 311 315 429 83 1 428 0
 81 1 311 464 296 272 373 0 309 313 430 83 1 429 0 81 1 309 462 296 277 369 0 30
4 311 431 83 1 430 0 81 1 304 460 296 280 365 0 302 309 432 83 1 431 0 83 1 432
 0 83 3 414 .717647058823529 .717647058823529 .717647058823529 83 3 410 .7176470
58823529 .717647058823529 .717647058823529 83 3 406 .717647058823529 .7176470588
23529 .717647058823529 83 3 402 .717647058823529 .717647058823529 .7176470588235
29 83 3 398 .717647058823529 .717647058823529 .717647058823529 83 3 394 .7176470
58823529 .717647058823529 .717647058823529 83 3 390 .717647058823529 .7176470588
23529 .717647058823529 83 3 386 .717647058823529 .717647058823529 .7176470588235
29 83 3 382 .717647058823529 .717647058823529 .717647058823529 83 3 378 .7176470
58823529 .717647058823529 .717647058823529 83 3 374 .717647058823529 .7176470588
23529 .717647058823529 83 3 370 .717647058823529 .717647058823529 .7176470588235
29 83 3 366 .717647058823529 .717647058823529 .717647058823529 81 1 359 374 433
 16 0 354 0 0 434 81 1 26 376 357 16 354 17 0 0 435 84 3 360 10180 1 357 436 437
 9000 0 0 0 0 3 6 0 0 0 TFTTTTTTFFFFTTFF3 84 26 435 Shifters-1/Paddle-1-solid179
 255 21 437 H3DX_BRIDGE/PART_NAME80 1 433 438 439 8017 0 0 0 0 0 0 0 0 0 TTTTTTT
TTTTTTFTF3 84 26 434 Shifters-1/Paddle-1-solid179 13 439 SDL/TYSA_NAME79 25 358
 H3DX_BRIDGE/PERSISTENT_ID79 15 352 SDL/TYSA_COLOUR83 1 348 0 83 3 347 .71764705
8823529 .717647058823529 .717647058823529 79 21 342 SDL/TYSA_TRANSLUCENCY15 332
 421 0 288 254 252 17 288 0 332 288 288 0 284 282 0 0 -15 329 86 0 225 326 440 1
7 225 0 329 225 225 0 441 142 0 0 +15 440 88 0 442 326 0 17 442 0 440 442 442 0
 228 226 0 0 -17 228 0 443 228 228 0 442 226 0 0 +15 443 105 0 228 125 0 17 441
 0 444 441 441 0 225 142 0 0 -15 444 97 0 441 254 0 15 323 74 0 217 320 445 17 2
17 0 323 217 217 0 446 215 0 0 +15 445 76 0 447 320 0 17 447 0 445 447 447 0 220
 218 0 0 -17 220 0 126 220 220 0 447 218 0 0 +15 126 104 0 220 125 443 17 446 0
 255 446 446 0 217 215 0 0 -15 255 96 0 446 254 444 83 1 305 0 83 1 299 0 80 2 2
85 448 449 9000 0 0 0 0 3 6 0 0 0 FFFFFFTFFFFFFFFF1 1 82 255 1 286 9693 79 29 44
9 imprint_parent_body_attribute19 30 115 0 16 0 23 19 0 S0 74 4 CI16 index_map_o
ffset0 0 1 dCCZ20 28 7 0 0 359 415 26 17 283 297 294 0 0 0 0 0 0 0 0 0 0 0 0 0 8
0 1 6 433 450 8038 0 0 0 0 0 0 0 0 0 TTTTTTTTTTTTTFTF10 98 255 26 27 83 104 105
 102 116 101 114 115 45 49 47 80 97 100 100 108 101 45 49 45 115 111 108 105 100
 49 79 14 450 SDL/TYSA_UNAME74 20 15 2 0 0 13 10 0 0 0 0 0 0 0 0 0 0 0 0 0 0 0 0
 0 0 81 1 13 1 433 4 0 10 0 0 451 84 13 451 Paddle.SLDPRT98 13 14 80 97 100 100
 108 101 46 83 76 68 80 82 84 74 20 9 2 0 0 7 2 0 0 0 0 0 0 0 0 0 0 0 0 0 0 0 0
 0 0 81 1 7 1 433 1 0 2 0 0 452 84 4 452 root98 4 8 114 111 111 116 1 0 
