**ABCDEFGHIJKLMNOPQRSTUVWXYZabcdefghijklmnopqrstuvwxyz**************************
**PARASOLID !"#$%&'()*+,-./:;<=>?@[\]^_`{|}~0123456789**************************
**PART1;
MC=unknown;
MC_MODEL=unknown;
MC_ID=unknown;
OS=iOS;
OS_RELEASE=unknown;
FRU=Shapr3D Zrt.;
APPL=Shapr3D;
SITE=Budapest, Hungary;
USER=unknown;
FORMAT=text;
GUISE=transmit;
KEY=/var/folders/85/2_5hrtnx6kqc2y0z1ld2btzc0000gn/T/com.shapr3d.shapr/export/temp_export;
FILE=/var/folders/85/2_5hrtnx6kqc2y0z1ld2btzc0000gn/T/com.shapr3d.shapr/export/temp_export;
DATE=2022-10-26 01:34 (UTC);
**PART2;
SCH=SCH_3401244_34101;
USFLD_SIZE=16;
**PART3;
**END_OF_HEADER*****************************************************************
T51 : TRANSMIT FILE created by modeller version 340124423 SCH_3401244_34101_1300
6231 0 10 21 CCCCI7 lattice222 0 CCCI4 mesh1006 0 I8 polyline1008 0 CCCCCCCCCCA1
6 mesh_offset_data206 0 Z1 3 2 3 0 0 0 0 0 0 0 0 1e3 1e-8 0 0 4 1 0 1 5 0 81 255
 1 2 2 6 1 7 0 0 0 8 70 11 CI9 list_type0 0 1 uI10 notransmit0 0 1 lCCCDCCDI12 f
inger_index0 0 1 dI12 finger_block1012 0 CZ3 0 4 T1 0 0 2 20 1 9 9 11 255 5 3 0
 1 4 0 1 0 0 0 0 10 4 3 10 11 0 0 0 0 0 0 0 0 1e3 1e-8 5 1 0 1 0 1 12 0 81 1 10
 2 6 4 13 0 0 0 14 70 11 0 4 T4 0 0 2 20 1 15 15 11 12 3 0 1 16 0 4 0 0 0 0 12 3
6 CCCI7 lattice222 0 CCCI4 mesh1006 0 I8 polyline1008 0 CCCCCCCDI5 owner1040 0 C
CCI16 boundary_lattice222 0 CCCI13 boundary_mesh1006 0 I17 boundary_polyline1008
 0 CCCA16 index_map_offset0 0 1 dA9 index_map82 0 A17 node_id_index_map82 0 A20
 schema_embedding_map82 0 A5 child12 0 A14 lowest_node_id0 0 1 dA16 mesh_offset_
data206 0 Z16 582 17 18 0 0 0 0 0 0 0 1e3 1e-8 12 0 0 1 0 1 1 19 0 20 21 22 0 0
 23 24 25 0 0 0 0 0 0 0 81 1 17 509 6 16 26 0 0 0 27 70 18 0 4 T16 0 0 6 20 1 28
 28 13 255 19 131 0 16 0 29 0 0 30 0 124 255 20 534 0 16 31 0 32 +33 34 38 12 CC
CCCCCCCCCA17 intersection_data204 0 Z21 542 0 35 36 0 0 +37 31 38 39 40 41 29 25
5 22 538 0 42 43 0 .311099167519027 .470381831059773 .01305364132109646 19 9 CCC
CCCI5 frame230 0 CA5 owner12 0 Z23 129 0 16 30 0 44 0 V0 16 255 24 124 0 ?45 0 4
6 36 0 0 16 18 255 25 110 0 47 0 48 49 ?16 17 255 47 0 50 51 52 25 53 54 0 55 +1
8 48 109 0 52 25 56 57 ?16 29 49 266 0 25 57 58 .28 .484148561418078 .0020000002
88247985 29 57 265 0 48 59 49 .28 .486155096647716 2882484251287565e-25 29 58 53
5 0 60 49 61 .3154497806436665 .471100670499796 .01308466509312162 18 60 21 0 62
 63 64 58 ?16 29 61 536 0 63 58 43 .297003268172882 .468052805678219 .0131307454
1941686 18 63 9 0 65 66 60 61 ?16 29 43 537 0 67 61 22 .3013538812975215 .468771
645118242 .01308619066392146 18 67 61 0 45 42 68 43 ?16 17 45 0 69 70 65 67 71 2
4 0 72 +18 42 63 0 73 74 67 22 ?16 18 68 57 0 75 67 76 77 ?16 17 75 0 78 79 80 6
8 81 82 0 83 +18 76 52 0 84 68 85 86 ?16 29 77 253 0 68 86 87 .297946667468384 .
471409784973831 .00300000028824843 29 86 252 0 76 88 77 .287023930087319 .480361
444569162 .002000000288248425 29 87 254 0 74 77 89 .3115009767698235 .4832239293
66766 .00300000028824843 18 74 58 0 79 90 42 87 ?16 29 89 257 0 90 87 91 .289375
040931191 .482224849463388 .00300000028824843 18 90 69 0 80 92 74 89 ?16 29 91 2
58 0 93 89 94 .3122233075220275 .483915477112351 2882484251287565e-25 18 93 74 0
 95 96 92 91 ?16 29 94 259 0 92 91 97 .29716296385376 .470788650009088 288248425
1287565e-25 18 92 76 0 98 93 90 94 ?16 29 97 260 0 96 94 99 .288591337316567 .48
1603714498646 2882484251287565e-25 18 96 81 0 100 101 93 97 ?16 29 99 261 0 101
 97 102 .28 .508528223743838 .00300000028824843 18 101 86 0 103 104 96 99 ?16 29
 102 262 0 104 99 105 .28 .487157613011194 .00300000028824843 18 104 91 0 106 10
7 101 102 ?16 29 105 263 0 107 102 59 .28 .512027065284086 .002000000288248425 1
8 107 99 0 108 56 104 105 ?16 29 59 264 0 56 105 57 .28 .509697194466837 2882484
251287565e-25 18 56 100 0 109 48 107 59 ?16 17 109 0 50 52 108 56 110 111 0 112
 +15 255 50 120 0 113 114 0 17 52 0 50 47 109 48 112 115 0 116 -17 108 0 50 109
 117 107 118 119 0 120 -17 110 0 121 122 123 107 109 111 0 0 -16 111 98 0 ?109 1
24 125 126 0 0 16 17 112 0 127 95 116 56 52 115 0 123 +15 127 117 0 116 128 0 17
 95 0 127 98 112 93 123 129 0 130 +17 116 0 127 112 100 48 131 132 0 53 +16 115
 118 0 ?112 46 133 134 0 0 16 17 123 0 121 110 130 56 95 129 0 0 -15 121 97 0 11
0 135 0 17 130 0 121 123 122 93 136 137 0 138 -16 129 102 0 ?95 119 124 139 0 0
 16 16 119 105 0 ?118 54 129 140 0 0 16 16 124 101 0 ?120 129 111 141 0 0 16 31
 255 139 449 0 129 141 140 0 -.1992943559318515 .3757991306253525 28824853615105
9e-24 0 0 1 1 0 0 .1563396702214545 31 141 448 0 124 126 139 0 +.199294355931851
5 .3757991306253525 .00200000028824854 0 0 1 1 0 0 .1583396702214545 30 255 140
 450 0 119 139 142 0 -.28 .512027065284086 .02500000028824845 0 0 -1 38 142 455
 0 54 140 143 0 +144 145 146 147 148 149 16 54 108 0 ?47 132 119 142 0 0 16 31 1
43 458 0 132 142 150 0 +.2791085235796165 .474087981425266 2882484251287565e-25
 0 0 1 1 0 0 .0121 54 255 144 451 0 16 145 31 151 +.2791085235796165 .4740879814
25266 .002000000288248425 0 0 1 .0121 .002 1 0 0 50 255 145 441 0 16 152 144 153
 +.28 .0899999996565098 288248536151059e-24 1 0 0 0 1 0 40 255 20 146 0 1 20 .00
01136730883472808 .338251515416523 ??.28 .484336132245784 .00115590635210605 .28
 .484158495072072 .001801300073069 .28 .484204578600484 .002469132889743485 .28
 .484468852000166 .003083745687525675 .28 .484922074104962 .003577606513684885 .
28 .485514909834504 .00389539191234267 .28 .486181386979909 .003999828421397345
 .28 .486845570866197 .00387768340293393 .28 .487431207938354 .00354257544387781
5 .28 .487871631696862 .003033208261005615 .28 .488117628920074 .002407998232138
885 .28 .488142466832676 .00173773916034503 .28 .487944139960283 .00109752329268
9528 .28 .487545080191756 .000558697039822143 .28 .486989585538541 .000181439042
4421665 .28 .486339269496873 845271708904694e-20 .28 .485666861402312 6016150314
23641e-19 .28 .485048619119753 .000331761742263459 .28 .484555574094856 .0007927
20847524797 .28 .484336132245784 .00115590635210605 41 3 CI8 term_use0 0 1 cCZ1
 147 H?.28 .484336132245784 .00115590635210605 41 1 148 H?.28 .484336132245784 .
00115590635210605 204 2 17 INTERSECTION_DATA17 Intersection data7 uv_type0 0 1 u
6 values0 1 1 fT80 149 4 1.484025750912346 -2.70589060083804 .394336132589274 .0
01155906063857514 1.482503049512424 -3.04207837748549 .3941584954155625 .0018012
99784820465 1.482903173718156 2.90482025621758 .394204578943974 .002469132601494
95 1.48512966099214 2.568928957929325 .394468852343656 .00308374539927714 1.4886
9692051806 2.23273337587482 .394922074448452 .00357760622543635 1.49293862641377
4 1.895655099604095 .3955149101779945 .003895391624094135 1.497213506034668 1.55
768643309929 .396181387323399 .00399982813314881 1.50103160763673 1.219250579152
124 .396845571209687 .003877683114685395 1.50408431199155 .880861624570358 .3974
31208281844 .00354257515562928 1.506209915474475 .542879917499664 .3978716320403
52 .00303320797275708 1.507339315308125 .2054410673720465 .3981176292635645 .002
40799794389035 1.507451160248685 -.131509305231595 .398142467176166 .00173773887
2096495 1.50654695966597 -.46815267568735 .3979441403037735 .001097523004440992
 1.504647168254135 -.804741751767857 .3975450805352465 .000558696751573607 1.501
80787666619 -1.141552275579272 .396989585882031 .0001814387541936305 1.498158415
219358 -1.478826825388964 .396339269840363 845242884051079e-20 1.493956322343396
 -1.81669320000047 .3956668617458025 60161214893828e-18 1.489640610948258 -2.155
0585243416 .395048619463243 .000331761454014923 1.4858359691164 -2.4935340896822
8 .394555574438346 .000792720559276261 1.484025750912346 -2.70589060083804 .3943
36132589274 .001155906063857514 54 152 440 0 16 154 145 155 +.1992943559318515 .
3757991306253525 .00200000028824854 0 0 1 .1563396702214545 .002 1 0 0 141 255 1
53 142 156 156 145 141 156 126 153 153 145 38 126 445 0 111 157 141 0 +152 145 1
58 159 160 161 30 157 439 0 125 162 126 0 +.28 .32199999965651 .0030000002882485
4 0 1 0 40 20 158 0 1 20 .000176426982151094 .398031360187118 ??.28 .50755097351
6268 .001202620599670134 .28 .507373198115548 .00176158387846259 .28 .5073924090
68038 .00234872864636415 .28 .507598528446961 .002884836088257625 .28 .507977261
455405 .00335559010804132 .28 .508537553666323 .003736629320807315 .28 .50927966
2974444 .0039677986994211 .28 .510151871095781 .0039616889736529 .28 .5110104300
78882 .003652786039403775 .28 .511654552000569 .003085759100189265 .28 .51197436
8610254 .00242342259286832 .28 .512015207461198 .001798250211861975 .28 .5118528
8172781 .001240469471161854 .28 .511515938354499 .000749021795951599 .28 .511001
676752476 .0003421180657126045 .28 .510306827359274 694415679145521e-19 .28 .509
464123825379 998208554781055e-20 .28 .508585536682906 .0002405831341807385 .28 .
507864535902014 .000756838776262758 .28 .507550973516268 .001202620599670134 41
 1 159 H?.28 .507550973516268 .001202620599670134 41 1 160 H?.28 .50755097351626
8 .001202620599670134 204 80 161 4 1.02119414455961 -2.73150485944209 .417550973
859758 .001202620311421598 1.02059253605892 -3.022100291189555 .4173731984590385
 .001761583590214055 1.020657604640518 2.966332634850925 .4173924094115285 .0023
48728358115615 1.02135487480478 2.68329965280015 .4175985287904515 .002884835800
00909 1.022631943625996 2.396833279143745 .417977261798895 .003355589819792785 1
.024511472996606 2.08979856371965 .4185375540098135 .00373662903255878 1.0269831
54233542 1.75048598601916 .419279663317934 .003967798411172565 1.029862537381674
 1.37474976004506 .4201518714392715 .003961688685404365 1.0326701561511 .9726713
39999721 .4210104304223725 .00365278575115524 1.034759335810812 .573861961974462
 .421654552344059 .00308575881194073 1.035791216576824 .2133254686129685 .421974
368953744 .002423422304619785 1.035922724008858 -.1010469066185876 .422015207804
688 .00179824992361344 1.03539966465607 -.3895426935915435 .4218528820713005 .00
1240469182913318 1.034310985685298 -.675758426962835 .421515938697989 .000749021
507703063 1.032641664018772 -.977211902254404 .421001677095966 .0003421177774640
685 1.030371217702794 -1.306510717592966 .4203068277027645 69441279666016e-18 1.
02759440382572 -1.670746871519795 .419464124168869 99817972992744e-19 1.02467189
6322122 -2.066343660865215 .418585537026396 .0002405828459322025 1.0222523960590
08 -2.470833618818695 .417864536245504 .000756838488014222 1.02119414455961 -2.7
3150485944209 .417550973859758 .001202620311421598 16 125 95 0 ?103 111 163 157
 0 0 16 30 162 438 0 163 164 157 0 -.28 .487157613011194 .02500000028824845 0 0
 -1 16 163 92 0 ?165 125 166 162 0 0 16 31 164 437 0 166 167 162 0 +.27910852357
9615 .474087981425263 .00300000028824843 0 0 1 1 0 0 .01310000000000234 16 166 9
0 0 ?168 163 169 164 0 0 16 31 167 436 0 169 170 164 0 +.1992943559318525 .37579
91306253565 .00300000028824854 0 0 1 1 0 0 .1553396702214505 16 169 87 0 ?171 16
6 172 167 0 0 16 30 170 435 0 172 173 167 0 -.28 .508528223743838 .0250000002882
4845 0 0 -1 16 172 85 0 ?113 169 174 170 0 0 16 30 173 434 0 174 175 170 0 -.058
1807047880493 .772319349280801 2882484251287565e-25 .621134964742154 -.783703614
624026 0 16 174 82 0 ?100 172 176 173 0 0 16 31 175 433 0 176 177 173 0 +.288591
337316567 .481603714498646 .002000000288248425 -.621134964742166 .78370361462401
6 0 -.783703614624016 -.621134964742166 0 .002 16 176 80 0 ?178 174 179 175 0 0
 16 31 177 432 0 179 180 175 0 -.305 .47699999965651 2882484251287565e-25 0 0 1
 1 0 0 .01 16 179 77 0 ?98 176 181 177 0 0 16 31 180 431 0 181 182 177 0 +.29716
296385376 .470788650009088 .002000000288248425 -.621134964742183 .78370361462400
3 0 -.783703614624003 -.621134964742183 0 .002 16 181 75 0 ?183 179 137 180 0 0
 16 31 182 430 0 137 184 180 0 +.3122233075220275 .483915477112351 .002000000288
248425 .691547745584054 -.722330752202627 0 .722330752202627 .691547745584054 0
 .002 16 137 73 0 ?136 181 185 182 0 0 16 30 184 429 0 185 186 182 0 +.289375040
931191 .482224849463388 .02500000028824845 0 0 -1 16 185 70 0 ?187 137 82 184 0
 0 16 30 186 428 0 82 188 184 0 +.2936608541997875 .476817317218609 .00300000028
824843 .621134964742157 -.783703614624023 0 16 82 68 0 ?75 185 189 186 0 0 16 30
 188 427 0 189 190 186 0 +.3115009767698235 .483223929366766 .02500000028824845
 0 0 -1 16 189 65 0 ?191 82 192 188 0 0 16 30 190 426 0 192 193 188 0 -.31109916
7519027 .470381831059773 .02500000028824845 0 0 -1 16 192 64 0 ?194 189 35 190 0
 0 16 30 193 418 0 195 196 190 0 +.3013538812975215 .468771645118242 .0250000002
8824845 0 0 -1 16 195 60 0 ?197 35 198 193 0 0 16 30 196 417 0 198 199 193 0 +.2
97946667468384 .471409784973831 .02500000028824845 0 0 -1 16 198 59 0 ?83 195 20
0 196 0 0 16 31 199 416 0 200 201 196 0 +.305 .47699999965651 .00300000028824843
 0 0 1 1 0 0 .00899999999999954 16 200 56 0 ?79 198 202 199 0 0 16 30 201 415 0
 202 203 199 0 +.2913097433559155 .474953912324383 .002000000288248425 .62113496
4742154 -.783703614624026 0 16 202 53 0 ?204 200 205 201 0 0 16 30 203 414 0 205
 206 201 0 +.287023930087319 .480361444569162 .02500000028824845 0 0 -1 16 205 5
1 0 ?207 202 208 203 0 0 16 31 206 413 0 208 209 203 0 +.1992943559318525 .37579
91306253565 .02500000028824845 0 0 1 1 0 0 .1553396702214505 16 208 48 0 ?210 20
5 211 206 0 0 16 30 209 412 0 211 212 206 0 +.28 .32199999965651 .02500000028824
845 0 1 0 16 211 46 0 ?117 208 213 209 0 0 16 31 212 411 0 213 214 209 0 +.19929
43559318515 .3757991306253525 .02500000028824845 0 0 1 1 0 0 .1583396702214545 1
6 213 44 0 ?215 211 216 212 0 0 16 30 214 410 0 216 217 212 0 +-.512044864964377
 .3343760823486955 .02500000028824845 .986623267215758 .1630169579783155 0 16 21
6 43 0 ?218 213 219 214 0 0 16 31 217 409 0 219 220 214 0 +.305 .47699999965651
 .02500000028824845 0 0 1 1 0 0 .00899999999999954 16 219 40 0 ?221 216 222 217
 0 0 16 30 220 408 0 222 223 217 0 +.2913097433559155 .474953912324383 .02500000
028824845 .621134964742154 -.783703614624026 0 16 222 37 0 ?224 219 225 220 0 0
 16 31 223 407 0 225 226 220 0 +.2791085235796165 .474087981425266 .025000000288
24845 0 0 1 1 0 0 .0101 16 225 35 0 ?227 222 228 223 0 0 16 30 226 406 0 228 229
 223 0 +.28 .32199999965651 .02500000028824845 0 1 0 16 228 33 0 ?230 225 231 22
6 0 0 16 31 229 405 0 231 232 226 0 +.279108523579615 .474087981425263 .02500000
028824845 0 0 1 1 0 0 .01310000000000234 16 231 31 0 ?233 228 234 229 0 0 16 30
 232 404 0 234 235 229 0 +.2936608541997875 .476817317218609 .02500000028824845
 .621134964742157 -.783703614624023 0 16 234 29 0 ?236 231 237 232 0 0 16 31 235
 403 0 237 238 232 0 +.305 .47699999965651 .02500000028824845 0 0 1 1 0 0 .00899
999999999954 16 237 27 0 ?239 234 240 235 0 0 16 30 238 402 0 240 241 235 0 +-.5
12044864964377 .3343760823486955 .02500000028824845 .986623267215758 .1630169579
783155 0 16 240 25 0 ?242 237 243 238 0 0 16 30 241 385 0 244 245 238 0 -.315449
7806436665 .471100670499796 .02500000028824845 0 0 -1 16 244 20 0 ?246 243 247 2
41 0 0 16 31 245 384 0 247 248 241 0 +.305 .47699999965651 .02500000028824845 0
 0 1 1 0 0 .012 16 247 18 0 ?249 244 250 245 0 0 16 30 248 383 0 250 251 245 0 +
.313667969026432 .485298572603518 .02500000028824845 0 0 -1 16 250 16 0 ?252 247
 253 248 0 0 16 31 251 382 0 253 254 248 0 +.305 .47699999965651 .00200000028824
8425 0 0 1 1 0 0 .012 16 253 14 0 ?255 250 256 251 0 0 16 30 254 381 0 256 257 2
51 0 +.295595556624512 .469546380079604 .02500000028824845 0 0 -1 16 256 12 0 ?2
58 253 259 254 0 0 16 31 257 380 0 259 260 254 0 +.305 .47699999965651 .02500000
028824845 0 0 1 1 0 0 .012 16 259 10 0 ?261 256 262 257 0 0 16 30 260 379 0 262
 0 257 0 +.2970032681728825 .468052805678219 .02500000028824845 0 0 -1 16 262 7
 0 ?65 259 0 260 0 0 16 17 65 0 69 45 263 63 264 262 0 71 +15 69 126 0 65 265 0
 17 263 0 69 65 70 266 242 240 0 261 -17 264 0 267 268 269 266 65 262 0 0 -17 71
 0 270 271 72 63 45 24 0 269 -15 270 122 0 272 273 0 17 271 0 270 272 71 60 269
 243 0 274 -17 72 0 270 71 272 67 275 35 0 197 +17 269 0 267 264 274 63 271 243
 0 0 +15 267 6 0 264 29 0 17 274 0 267 269 276 60 246 244 0 0 -16 243 22 0 ?269
 240 244 277 0 0 16 38 277 540 0 243 278 36 0 +279 31 280 281 281 282 38 278 539
 0 46 134 277 0 +31 154 283 284 285 286 38 36 541 0 24 277 21 0 +31 154 287 288
 289 290 51 255 279 267 0 29 0 291 292 +.305 .47699999965651 .02500000028824845
 0 0 -1 .012 -1 0 0 60 255 31 533 0 273 144 20 293 +VF20 -.003 ?40 20 280 0 1 20
 .001242929424106786 .3953620782223365 ??.306568954206062 .465103009167345 .0101
275636924298 .3028193877204005 .465199790756407 .01082389286888742 .299407083394
6575 .466383065831451 .01198414558430182 .296267727135942 .468769118134605 .0135
7610863548506 .294023117930912 .472151488540579 .01563587562205165 .293034181076
0605 .476094915417523 .0182062929457326 .293515712542708 .480480106206378 .02131
32297466296 .2959974517014945 .484934363155429 .02446544269890115 .2984597509175
405 .487061070272469 .0257371126430895 .301624003280665 .488515321890427 .026229
06710275265 .304625728741012 .488994161612425 .02590463043313345 .30756897428706
6 .488721790096217 .0250033779600297 .311323655607587 .487198596606902 .02309432
2538126 .314294942245208 .484589732765008 .0208567779618229 .316454143437059 .48
057807150084 .01823711523728485 .316950151708077 .47590735417233 .01569371595651
98 .315656656553332 .471483146286671 .01330233362474362 .3127627341832415 .46784
9045717148 .01118338893307064 .309995311254331 .466089139677922 .010273703539546
1 .306568954206062 .465103009167345 .01012756369242984 41 1 281 H?.3065689542060
62 .465103009167345 .0101275636924298 204 80 282 4 4.5812673933248 .014872436595
81866 .2910893783632265 .543472288270465 4.89512192311834 .01417610741936102 .18
3351304345073 .622194650912752 5.19723980640444 .01301585470394664 .113906991509
2576 .783619372973331 ??.0842420075320114 1.034992768217202 ??.102000887322737 1
.354503372319682 ??.1576444853902115 1.708487720817335 ??.245050419449737 2.0885
43907607335 ??.3631354438466835 2.457831221204235 ??.440214757252746 2.622352926
17885 ??.519828590878367 2.71968269608602 ??.584141390326137 2.73035544117724 ??
.640248081245769 2.6725476670086 ??.704300072595715 2.48950703602265 ??.74859692
6669995 2.213653719400685 ??.769975639192094 1.8155387841451 ??.74590058771803 1
.373905201305936 ??.664381673765448 .977321393144774 4.00888395577604 .013816611
3551778 .527738529837831 .683046655796172 4.28304332337426 .01472629674870234 .4
134671897096595 .568981079543191 ??.2910893783632215 .543472288270467 14 255 273
 121 294 ?265 114 270 19 31 +0 0 265 114 44 141 293 278 295 296 31 141 295 21 29
7 293 31 141 296 277 293 297 31 141 297 36 296 295 31 81 1 294 578 298 273 299 0
 300 301 302 14 265 125 301 ?303 273 69 19 154 +303 303 303 273 44 14 114 119 30
0 ?273 128 50 19 304 -0 0 273 128 44 13 44 4 0 0 0 0 0 0 23 29 14 29 5 305 ?306
 0 267 19 279 +0 0 306 0 44 81 1 305 544 298 29 307 0 0 308 309 14 306 23 308 ?3
10 29 311 19 291 +310 310 310 29 44 81 1 308 546 298 306 312 0 305 313 314 14 31
0 38 313 ?315 306 316 19 291 +306 306 315 306 44 15 311 24 0 261 306 0 50 291 27
8 0 310 279 317 0 +-.51 .32199999965651 .02500000028824845 0 0 1 1 0 0 50 317 28
7 0 315 291 37 0 +.2913097433559155 .474953912324383 .02500000028824845 .7837036
14624026 .621134964742154 0 -.621134964742154 .783703614624026 0 14 315 49 318 ?
319 310 320 19 317 -0 0 319 310 44 51 37 292 0 319 317 321 322 +.305 .4769999996
5651 .02500000028824845 0 0 -1 .00899999999999954 -1 0 0 14 319 54 323 ?324 315
 325 19 37 -0 0 324 315 44 50 321 297 0 324 37 326 0 +.2936608541997875 .4768173
17218609 .02500000028824845 .783703614624023 .621134964742157 0 -.62113496474215
7 .783703614624023 0 141 322 21 322 322 37 14 324 66 327 ?328 319 329 19 321 +0
 0 328 319 44 54 326 302 0 328 321 330 0 +.305 .47699999965651 .0020000002882484
25 0 0 1 .01 .002 1 0 0 14 328 71 331 ?332 324 333 19 326 +0 0 332 324 44 51 330
 307 0 332 326 334 0 +.2928771505851635 .476196182253867 .002000000288248425 .62
1134964742154 -.783703614624026 0 .002 .783703614624026 .621134964742154 0 14 33
2 78 335 ?336 328 337 19 330 +0 0 336 328 44 51 334 312 0 336 330 338 0 +.199294
3559318525 .3757991306253565 .02500000028824845 0 0 -1 .1553396702214505 -1 0 0
 14 336 83 339 ?340 332 341 19 334 -0 0 340 332 44 51 338 317 0 340 334 342 0 +.
279108523579615 .474087981425263 .02500000028824845 0 0 -1 .01310000000000234 -1
 0 0 14 340 88 343 ?344 336 345 19 338 +0 0 344 336 44 50 342 322 0 344 338 346
 0 +-.84 .32199999965651 .00300000028824854 0 0 1 1 0 0 14 344 93 347 ?135 340 7
8 19 342 +0 0 135 340 44 54 346 327 0 135 342 348 0 +.1992943559318515 .37579913
06253525 .00200000028824854 0 0 1 .1563396702214545 .002 1 0 0 14 135 96 349 ?35
0 344 121 19 346 +0 0 350 344 44 51 348 332 0 350 346 351 0 +.1992943559318515 .
3757991306253525 .02500000028824845 0 0 -1 .1583396702214545 -1 0 0 14 350 103 3
52 ?353 135 354 19 348 +0 0 353 135 44 54 351 337 0 353 348 355 0 +.279108523579
6165 .474087981425266 .002000000288248425 0 0 1 .0121 .002 1 0 0 14 353 106 356
 ?357 350 358 19 351 +0 0 357 350 44 51 355 342 0 357 351 359 0 +.27910852357961
65 .474087981425266 .02500000028824845 0 0 -1 .0101 -1 0 0 14 357 113 360 ?128 3
53 361 19 355 -0 0 128 353 44 50 359 347 0 128 355 304 0 +-.51 .32199999965651 2
88248536151059e-24 0 0 1 1 0 0 14 128 116 362 ?114 357 127 19 359 -0 0 114 357 4
4 50 304 352 0 114 359 154 0 +.28 .0899999996565098 288248536151059e-24 1 0 0 0
 1 0 50 154 370 0 303 304 152 363 +.3103245723858145 .470253846907689 .016000000
28824845 .1630169579783155 -.986623267215758 0 .986623267215758 .163016957978315
5 0 14 303 127 364 ?0 265 365 19 154 +265 265 0 265 44 141 363 278 366 366 154 1
41 366 36 363 363 154 81 1 364 582 298 303 367 0 301 0 368 15 365 128 0 246 303
 0 17 246 0 365 369 62 64 274 244 0 218 +17 369 0 365 73 246 370 218 216 0 194 -
17 62 0 365 246 73 60 272 46 0 271 +18 64 19 0 246 60 371 372 ?16 17 218 0 316 2
49 373 64 369 216 0 276 +15 316 39 0 373 310 0 17 249 0 316 215 218 371 276 247
 0 374 +17 373 0 316 218 375 370 221 219 0 0 -17 276 0 267 274 374 64 249 247 0
 0 -17 374 0 267 276 255 371 252 250 0 0 -17 255 0 267 374 258 376 377 253 0 0 +
18 371 17 0 378 64 376 379 ?16 17 252 0 354 120 378 376 374 250 0 122 +15 354 10
4 0 120 350 0 17 120 0 354 118 252 107 122 124 0 110 +17 378 0 354 252 118 371 2
15 213 0 249 -18 376 15 0 252 371 380 381 ?16 17 122 0 121 130 110 376 120 124 0
 136 -17 136 0 333 377 138 376 130 137 0 255 +15 333 72 0 136 328 0 17 377 0 333
 382 136 380 255 253 0 204 -17 138 0 333 136 382 93 98 179 0 0 -17 382 0 333 138
 377 92 183 181 0 0 -17 98 0 127 100 95 92 138 179 0 383 +17 100 0 127 116 98 96
 383 174 0 131 +17 383 0 337 183 384 92 100 174 0 382 -15 337 79 0 183 332 0 17
 183 0 337 385 383 380 382 181 0 377 +17 384 0 337 383 385 96 178 176 0 0 -17 38
5 0 337 384 183 76 204 202 0 207 -17 178 0 358 386 131 76 384 176 0 385 +15 358
 107 0 53 353 0 17 386 0 358 53 178 25 84 387 0 0 -17 131 0 358 178 53 96 116 13
2 0 384 -17 53 0 358 131 386 48 47 54 0 0 -16 132 111 0 ?116 387 54 143 0 0 16 1
6 387 112 0 ?84 133 132 150 0 0 16 17 84 0 361 388 55 76 386 387 0 178 +16 133 1
15 0 ?51 115 387 389 0 0 16 31 150 459 0 387 143 389 0 -.2791085235796165 .47408
7981425266 .002000000288248425 0 0 1 1 0 0 .0101 30 389 460 0 133 150 134 0 -.28
 .484148561418084 .02500000028824845 0 0 -1 30 134 461 0 115 389 278 0 +.28 .321
99999965651 288248536151059e-24 0 1 0 17 51 0 50 230 47 390 55 133 0 227 +17 230
 0 50 106 51 391 392 228 0 165 +18 390 34 0 51 393 391 394 ?16 17 55 0 361 84 22
7 25 51 133 0 386 -17 227 0 361 55 388 390 395 225 0 392 +15 361 114 0 55 357 0
 17 388 0 361 227 84 393 207 205 0 396 -17 395 0 311 224 392 393 227 225 0 0 -17
 392 0 311 395 233 390 230 228 0 0 -17 233 0 311 392 397 391 398 231 0 0 +17 397
 0 311 233 399 400 236 234 0 0 -18 391 32 0 230 390 400 401 ?16 17 398 0 345 187
 165 400 233 231 0 402 -15 345 89 0 168 340 0 17 187 0 345 168 398 90 402 185 0
 81 +17 165 0 345 398 168 391 106 163 0 233 +18 400 30 0 398 391 403 404 ?16 17
 402 0 329 236 81 400 187 185 0 397 -15 329 67 0 81 324 0 17 236 0 329 83 402 40
3 397 234 0 405 +17 81 0 329 402 83 90 75 82 0 0 -17 83 0 329 81 236 68 405 198
 0 406 +17 405 0 325 239 406 403 83 198 0 399 -17 406 0 325 405 191 68 79 200 0
 0 -15 325 55 0 406 319 0 17 191 0 325 406 221 74 407 189 0 0 +17 79 0 78 171 75
 74 406 200 0 408 +15 78 94 0 409 344 0 17 171 0 78 409 79 101 408 169 0 410 +17
 408 0 341 407 410 74 171 169 0 191 -15 341 84 0 410 336 0 17 407 0 341 210 408
 85 191 189 0 221 -17 410 0 341 408 210 101 113 172 0 0 -17 210 0 341 410 407 41
1 375 208 0 412 +17 113 0 50 117 103 411 410 172 0 210 +17 117 0 50 108 113 413
 412 211 0 118 +17 103 0 50 113 106 101 409 125 0 171 +18 411 47 0 113 85 413 88
 ?16 18 85 42 0 407 76 411 414 ?16 18 413 45 0 117 411 370 415 ?16 29 88 251 0 4
11 415 86 .28 .508528223743838 .02500000028824845 29 415 250 0 413 414 88 .28 .5
12027065284086 .02500000028824845 29 414 249 0 85 416 415 .3115009767698235 .483
223929366766 .02500000028824845 29 416 248 0 370 417 414 .311099167519027 .47038
1831059773 .02500000028824845 18 370 41 0 369 413 393 416 ?16 29 417 247 0 393 3
94 416 .287023930087319 .480361444569162 .02500000028824845 18 393 36 0 388 370
 390 417 ?16 29 394 246 0 390 401 417 .28 .484148561418084 .02500000028824845 29
 401 245 0 391 404 394 .28 .487157613011194 .02500000028824845 29 404 244 0 400
 418 401 .289375040931191 .482224849463388 .02500000028824845 29 418 243 0 403 4
19 404 .297946667468384 .471409784973831 .02500000028824845 18 403 28 0 236 400
 66 418 ?16 29 419 242 0 66 372 418 .3013538812975215 .468771645118242 .02500000
028824845 18 66 26 0 70 403 63 419 ?16 29 372 240 0 64 379 419 .3154497806436665
 .471100670499796 .02500000028824845 29 379 239 0 371 381 372 .313667969026432 .
485298572603518 .02500000028824845 29 381 238 0 376 420 379 .313667969026432 .48
5298572603518 .002000000288248425 29 420 237 0 380 421 381 .295595556624512 .469
546380079604 .002000000288248425 18 380 13 0 183 376 422 420 ?16 29 421 236 0 42
2 423 420 .295595556624512 .469546380079604 .02500000028824845 18 422 11 0 424 3
80 266 421 ?16 29 423 234 0 266 0 421 .2970032681728825 .468052805678219 .025000
00028824845 18 266 8 0 263 422 0 423 ?16 17 424 0 320 396 204 422 258 256 0 224
 -15 320 50 0 207 315 0 17 396 0 320 207 424 393 224 222 0 395 -17 204 0 320 424
 207 380 385 202 0 258 +17 258 0 267 255 268 380 424 256 0 0 +17 224 0 311 261 3
95 422 396 222 0 268 +17 261 0 311 242 224 266 268 259 0 264 +17 268 0 267 258 2
64 422 261 259 0 0 -17 242 0 311 399 261 66 263 240 0 0 +17 399 0 311 397 242 40
3 239 237 0 0 -17 239 0 325 197 405 66 399 237 0 242 +17 197 0 325 275 239 67 70
 195 0 0 +17 275 0 325 194 197 42 72 35 0 0 -17 70 0 69 263 45 66 197 195 0 239
 -17 194 0 325 221 275 370 73 192 0 373 +16 35 62 0 ?72 192 195 21 0 0 16 17 221
 0 325 191 194 85 373 219 0 375 +17 73 0 365 62 369 42 194 192 0 272 -17 272 0 2
70 72 271 42 62 46 0 275 -16 46 123 0 ?62 24 115 278 0 0 16 17 375 0 316 373 412
 85 210 208 0 0 -17 412 0 316 375 215 411 117 211 0 0 -17 215 0 316 412 249 413
 378 213 0 0 +17 207 0 320 204 396 76 388 205 0 0 +17 106 0 50 103 230 104 165 1
63 0 409 -17 409 0 78 80 171 104 103 125 0 168 -17 80 0 78 75 409 90 168 166 0 1
87 -17 168 0 345 165 187 104 80 166 0 0 +17 118 0 354 378 120 413 108 119 0 215
 +80 7 CCCCCDI12 legal_owners0 16 1 lCZ1 298 425 426 8015 0 0 0 0 3 5 0 0 0 FFFF
TFFFFFFFFFFF2 81 1 367 581 427 303 428 364 429 0 430 81 1 301 580 298 265 429 0
 294 364 431 83 255 1 368 0 81 1 429 579 427 265 432 301 299 367 433 83 1 431 0
 80 1 427 0 434 8001 0 0 0 0 3 5 0 0 0 FFFFTFTFFFFFFFFF2 81 1 432 504 435 265 0
 429 428 436 437 81 1 299 577 427 273 438 294 439 429 440 83 3 433 .717647058823
529 .717647058823529 .717647058823529 81 1 438 502 435 273 0 299 441 428 442 81
 1 439 575 427 114 441 300 443 299 444 83 3 440 .717647058823529 .71764705882352
9 .717647058823529 81 1 441 501 435 114 0 439 445 438 446 81 1 300 576 298 114 4
39 0 362 294 447 81 1 443 573 427 128 445 362 448 439 449 83 3 444 .717647058823
529 .717647058823529 .717647058823529 81 1 445 500 435 128 0 443 450 441 451 81
 1 362 574 298 128 443 0 360 300 452 81 1 448 571 427 357 450 360 453 443 454 83
 3 449 .717647058823529 .717647058823529 .717647058823529 81 1 450 499 435 357 0
 448 455 445 456 81 1 360 572 298 357 448 0 356 362 457 81 1 453 569 427 353 458
 356 459 448 460 83 3 454 .717647058823529 .717647058823529 .717647058823529 81
 1 458 497 435 353 0 453 461 455 462 81 1 356 570 298 353 453 0 352 360 463 81 1
 459 567 427 350 461 352 464 453 465 83 3 460 .717647058823529 .717647058823529
 .717647058823529 81 1 461 496 435 350 0 459 466 458 467 81 1 352 568 298 350 45
9 0 349 356 468 81 1 464 565 427 135 455 349 469 459 470 83 3 465 .7176470588235
29 .717647058823529 .717647058823529 81 1 455 498 435 135 0 464 458 450 471 81 1
 349 566 298 135 464 0 347 352 472 81 1 469 563 427 344 473 347 474 464 475 83 3
 470 .717647058823529 .717647058823529 .717647058823529 81 1 473 508 435 344 0 4
69 476 0 477 81 1 347 564 298 344 469 0 343 349 478 81 1 474 561 427 340 476 343
 479 469 480 83 3 475 .717647058823529 .717647058823529 .717647058823529 81 1 47
6 507 435 340 0 474 481 473 482 81 1 343 562 298 340 474 0 339 347 483 81 1 479
 559 427 336 481 339 484 474 485 83 3 480 .717647058823529 .717647058823529 .717
647058823529 81 1 481 506 435 336 0 479 436 476 486 81 1 339 560 298 336 479 0 3
35 343 487 81 1 484 557 427 332 436 335 488 479 489 83 3 485 .717647058823529 .7
17647058823529 .717647058823529 81 1 436 505 435 332 0 484 432 481 490 81 1 335
 558 298 332 484 0 331 339 491 81 1 488 555 427 328 492 331 493 484 494 83 3 489
 .717647058823529 .717647058823529 .717647058823529 81 1 492 490 435 328 0 488 4
95 496 497 81 1 331 556 298 328 488 0 327 335 498 81 1 493 553 427 324 495 327 4
99 488 500 83 3 494 .717647058823529 .717647058823529 .717647058823529 81 1 495
 489 435 324 0 493 501 492 502 81 1 327 554 298 324 493 0 323 331 503 81 1 499 5
51 427 319 496 323 504 493 505 83 3 500 .717647058823529 .717647058823529 .71764
7058823529 81 1 496 491 435 319 0 499 492 506 507 81 1 323 552 298 319 499 0 318
 327 508 81 1 504 549 427 315 466 318 509 499 510 83 3 505 .717647058823529 .717
647058823529 .717647058823529 81 1 466 495 435 315 0 504 511 461 512 81 1 318 55
0 298 315 504 0 313 323 513 81 1 509 547 427 310 511 313 312 504 514 83 3 510 .7
17647058823529 .717647058823529 .717647058823529 81 1 511 494 435 310 0 509 515
 466 516 81 1 313 548 298 310 509 0 308 318 517 81 1 312 545 427 306 515 308 307
 509 518 83 3 514 .717647058823529 .717647058823529 .717647058823529 81 1 515 49
3 435 306 0 312 506 511 519 81 1 307 543 427 29 506 305 0 312 520 83 3 518 .7176
47058823529 .717647058823529 .717647058823529 81 1 506 492 435 29 0 307 496 515
 521 83 3 520 .717647058823529 .717647058823529 .717647058823529 80 1 435 522 52
3 9000 0 0 0 0 3 6 0 0 0 TFTTTTTTFFFFTTFF3 84 255 11 521 {65}@1e@{0}79 255 25 52
3 H3DX_BRIDGE/PERSISTENT_ID84 11 519 {65}@1e@{1}83 1 517 0 84 11 516 {65}@1e@{2}
83 1 513 0 84 11 512 {65}@1e@{3}83 1 508 0 84 11 507 {65}@1e@{4}83 1 503 0 81 1
 501 487 435 16 524 26 0 495 525 84 11 502 {65}@1e@{5}81 1 524 486 526 16 0 501
 0 0 527 81 1 26 488 522 16 501 17 0 0 528 84 3 525 10180 1 522 529 530 9000 0 0
 0 0 3 6 0 0 0 TFTTTTTTFFFFTTFF3 84 33 528 Wiring Cover-1/Right Ear-1-solid179 2
1 530 H3DX_BRIDGE/PART_NAME80 1 526 531 532 8017 0 0 0 0 0 0 0 0 0 TTTTTTTTTTTTT
FTF3 84 33 527 Wiring Cover-1/Right Ear-1-solid179 13 532 SDL/TYSA_NAME83 1 498
 0 84 11 497 {65}@1e@{6}83 1 491 0 84 11 490 {65}@1e@{7}83 1 487 0 84 11 486 {65
}@1e@{8}83 1 483 0 84 11 482 {65}@1e@{9}83 1 478 0 84 11 477 {65}@1e@{a}83 1 472
 0 84 11 471 {65}@1e@{b}83 1 468 0 84 11 467 {65}@1e@{c}83 1 463 0 84 11 462 {65
}@1e@{d}83 1 457 0 84 11 456 {65}@1e@{e}83 1 452 0 84 11 451 {65}@1e@{f}83 1 447
 0 84 12 446 {65}@1e@{10}81 1 428 503 435 303 0 367 438 432 533 84 12 442 {65}@1
e@{11}84 12 533 {65}@1e@{13}84 12 437 {65}@1e@{12}79 15 434 SDL/TYSA_COLOUR83 3
 430 .717647058823529 .717647058823529 .717647058823529 79 21 426 SDL/TYSA_TRANS
LUCENCY83 1 314 0 83 1 309 0 83 1 302 0 141 292 277 292 292 279 40 3 287 .027656
6895433306 .999869568412789 3 .000607966039431938 .03964934672893085 ??.28273159
2340474 .465694737247482 .01311628128669958 .2991548673398865 .468408308292691 .
0131082506251484 .311621510862512 .470468136365663 .0130559731026938 41 1 288 L?
.282731592340474 .465694737247482 .01311628128669958 41 1 289 L?.311621510862512
 .470468136365663 .0130559731026938 204 12 290 4 -.324621179066196 1.04470881487
695 ??.1518055138982455 .954652875266728 -.01132114497709842 -.00289174966310005
 .534569121259446 .93774313046813 ??40 3 283 0 1 3 872567319416777e-19 .01540408
765064995 ??.3025615685753365 .46897118785432 .01307544357401968 .31329142557484
45 .470744051626871 .01306614494861706 .324020494957825 .472516785263781 .013168
20710640696 41 1 284 L?.3025615685753365 .46897118785432 .01307544357401968 41 1
 285 L?.324020494957825 .472516785263781 .01316820710640696 204 12 286 4 .255190
7693638765 .944434577176871 -.00786825535990586 -.002924556714228775 .5864997314
69149 .939897603195584 .0030070780688177 -.002933855339631395 .919626934466893 .
988050615842031 ??141 155 126 155 155 152 141 151 142 151 151 144 19 30 130 0 16
 0 23 19 0 S0 40 5 38 0 1 5 .000490142252260993 .3646374264008445 ??.31109916751
9027 .470381831059773 .01305364132109646 .3089870981299825 .468931353642346 .012
30382686279568 .3064441186672095 .468116615094587 .01205982699044024 .3039774343
109815 .468058279496964 .01233145143289594 .3013538812975215 .468771645118243 .0
1308619066392182 41 1 39 L?.311099167519027 .470381831059773 .01305364132109646
 41 1 40 L?.3013538812975215 .468771645118243 .01308619066392182 204 20 41 4 3.9
6777870123864 .011946358967152 .518344079650897 .937302946438115 4.2534346346321
95 .01269617342545278 .434350497925259 .837830837119547 4.55123470772492 .012940
1732978082 .346863183302431 .806130716471216 4.826253274056 .0126685488553525 .2
760967576524145 .842120620865748 5.1295037639195 .01191380962432664 .21840113361
7496 .947563582071391 141 32 31 32 32 20 126 255 33 FF3 1 34 3 1 1 17 3 FFF2 3 5
34 535 536 537 538 125 255 34 0 1 0 1.04798203539439 0 1 0 1.04798203539439 2 BB
BBBBBB????0 0 0 0 45 255 306 534 .3046130812249285 .456869514151388 .01079193046
760762 .294052100626751 .466551626443675 .01600000028824845 .29354536328189 .467
016193898376 .0162498940787189 .3050438069435965 .45695349893087 .01056701045987
64 .294734667628557 .466664405049195 .01600000028824845 .294240014141057 .467130
354090276 .01626068619849075 .3054822719375355 .457038992748005 .010357475604631
96 .2954172346303635 .466777183654716 .01600000028824845 .294934293654045 .46724
4441875479 .01627074010733145 .306372528632611 .457212578881775 .009970204506811
96 .2967823686339755 .467002740865757 .01600000028824845 .2963222132374835 .4674
72492764589 .0162893221628543 .306824319896297 .457300671113115 .009792468461460
76 .297464935635782 .467115519471278 .01600000028824845 .297015853328924 .467586
45587259 .01629785030007325 .3077390105206535 .457479021481 .00946966784163472 .
298830069639394 .467341076682319 .01600000028824845 .298402600522703 .4678142781
6405 .01631333893083895 .30820190951353 .45756927954583 .00932460339695684 .2995
126366412005 .46745385528784 .01600000028824845 .2990957076426885 .4679281373509
51 .01632029941815805 .309136542600179 .457751518382002 .00906785832475276 .3008
777706448125 .467679412498881 .01600000028824845 .300481497956536 .4681557730657
89 .0163326185692999 .309608276318139 .457843499080067 .00895617780046287 .30156
03376466185 .467792191104402 .01600000028824845 .30117418116843 .468269549597241
 .0163379772281692 .310558262475277 .458028731524895 .00876674898850383 .3029254
71650231 .468017748315443 .01600000028824845 .3025592348107055 .468497041672642
 .01634706640812935 .311036514532468 .458121983197176 .00868900077700341 .303608
038652037 .468130526920964 .01600000028824845 .3032516052594155 .468610757220165
 .0163507969255654 .3119971889790735 .458309299691307 .00856781839034504 .304973
172655649 .468356084132005 .01600000028824845 .304636146055808 .468838149298638
 .01635661150313115 .3124796109822035 .458403364437838 .00852438426391422 .30565
5739657455 .468468862737526 .01600000028824845 .3053283164220245 .46895182583320
3 .01635869556092295 .313446256453828 .458591845188473 .008472043352593 .3070208
736610675 .468694419948567 .01600000028824845 .3067125707164825 .46917916204828
 .0163612069843825 .3139304795336375 .458686261116791 .00846313658874875 .307703
4406628735 .468807198554088 .01600000028824845 .3074046546633745 .46929282173242
8 .0163616343490406 .3148983494459065 .458874980614204 .00847989416586725 .30906
8574666486 .469032755765129 .01600000028824845 .3087888502066785 .46952014649194
9 .01636083028638215 .3153819958891885 .458969284107416 .00850555850009194 .3097
51141668292 .46914553437065 .01600000028824845 .3094809618217645 .46963381157096
2 .016359598859389 .3163463376452735 .459157315669547 .00859133227979048 .311116
275671904 .469371091581691 .01600000028824845 .310865326653183 .469861169339018
 .0163554832588556 .316827032570318 .459251043662858 .00865144169077503 .3117988
4267371 .469483870187211 .01600000028824845 .3115575798881215 .469974862031688 .
0163525990869702 .317783110897934 .45943746398566 .00880581049228513 .3131639766
773225 .469709427398253 .01600000028824845 .3129423412156575 .470202297110286 .0
163451921576724 .3182584939160695 .459530156240192 .00890006982073965 .313846543
679129 .469822206003773 .01600000028824845 .3136348493267015 .47031603949981 .01
63406694032382 .319201614119401 .459714049931396 .00912227563653678 .31521167768
2741 .470047763214815 .01600000028824845 .315020232411416 .470543595811335 .0163
3000751591975 .319669350925371 .459805251294127 .00925022203453107 .315894244684
547 .470160541820335 .01600000028824845 .3157131074032825 .470657409736883 .0163
238683873226 .320594881937752 .459985715368154 .00953917375242952 .3172593786881
595 .470386099031377 .01600000028824845 .3170993344531795 .470885130608421 .0163
100038957672 .32105267577201 .460074978006888 .00970017895614694 .31794194568996
55 .470498877636897 .01600000028824845 .3177926865290665 .470999037557892 .01630
227853838375 .321956072896165 .46025112631884 .01005445771706182 .31930707969357
75 .470724434847938 .01600000028824845 .3191799756079715 .471226965508478 .01628
527952233805 .3224016758228085 .460338011921229 .01024773113180488 .319989646695
3835 .470837213453459 .01600000028824845 .319873912628419 .471340986512991 .0162
7600587051105 .323278503046984 .460508979518183 .01066559729687144 .321354780698
996 .4710627706645 .01600000028824845 .321262476585206 .471569163044828 .0162559
558013886 .3237097269919455 .460593061444002 .01089018987917222 .322037347700802
 .471175549270021 .01600000028824845 .3219571035384615 .47168331857545 .01624517
93921554 .324555678772357 .46075800881225 .01136959157201166 .3234024817044145 .
471401106481062 .01600000028824845 .3233471489618835 .471911783970113 .016222176
7231614 .324970406267652 .460838874188355 .0116244004897843 .3240850487062205 .4
71513885086583 .01600000028824845 .324042567448371 .472026093837337 .01620995047
265005 .3257813286702865 .460996991375723 .01216298367197066 .3254501827098325 .
471739442297624 .01600000028824845 .3254342936526375 .472254886957981 .016184108
15533955 .326177523180338 .461074243109522 .01244675766491376 .3261327497116395
 .471852220903145 .01600000028824845 .3261306013894795 .472369370215118 .0161704
921015662 .326563478800537 .461149498419915 .01274431773494854 .326815316713445
 .471964999508666 .01600000028824845 .3268274004090955 .472483949264714 .0161562
145637538 127 255 17 535 4 2 2 2 2 2 2 2 2 2 2 2 2 2 2 2 4 127 3 536 2 1 2 128 2
55 17 537 0 .0625 .125 .1875 .25 .3125 .375 .4375 .5 .5625 .625 .6875 .75 .8125
 .875 .9375 1 128 3 538 0 1 1.04798203539439 74 4 CI16 index_map_offset0 0 1 dCC
Z20 28 6 0 0 524 473 26 17 367 364 0 0 0 0 0 0 0 0 0 0 0 0 0 0 80 1 6 526 539 80
38 0 0 0 0 0 0 0 0 0 TTTTTTTTTTTTTFTF10 98 255 33 27 87 105 114 105 110 103 32 6
7 111 118 101 114 45 49 47 82 105 103 104 116 32 69 97 114 45 49 45 115 111 108
 105 100 49 79 14 539 SDL/TYSA_UNAME74 20 15 2 0 0 13 10 0 0 0 0 0 0 0 0 0 0 0 0
 0 0 0 0 0 0 81 1 13 1 526 4 0 10 0 0 540 84 16 540 Right Ear.SLDPRT98 16 14 82
 105 103 104 116 32 69 97 114 46 83 76 68 80 82 84 74 20 9 2 0 0 7 2 0 0 0 0 0 0
 0 0 0 0 0 0 0 0 0 0 0 0 81 1 7 1 526 1 0 2 0 0 541 84 4 541 root98 4 8 114 111
 111 116 1 0 
