**ABCDEFGHIJKLMNOPQRSTUVWXYZabcdefghijklmnopqrstuvwxyz**************************
**PARASOLID !"#$%&'()*+,-./:;<=>?@[\]^_`{|}~0123456789**************************
**PART1;
MC=unknown;
MC_MODEL=unknown;
MC_ID=unknown;
OS=iOS;
OS_RELEASE=unknown;
FRU=Shapr3D Zrt.;
APPL=Shapr3D;
SITE=Budapest, Hungary;
USER=unknown;
FORMAT=text;
GUISE=transmit;
KEY=/var/folders/85/2_5hrtnx6kqc2y0z1ld2btzc0000gn/T/com.shapr3d.shapr/export/temp_export;
FILE=/var/folders/85/2_5hrtnx6kqc2y0z1ld2btzc0000gn/T/com.shapr3d.shapr/export/temp_export;
DATE=2022-10-26 01:18 (UTC);
**PART2;
SCH=SCH_3401244_34101;
USFLD_SIZE=16;
**PART3;
**END_OF_HEADER*****************************************************************
T51 : TRANSMIT FILE created by modeller version 340124423 SCH_3401244_34101_1300
6231 0 10 21 CCCCI7 lattice222 0 CCCI4 mesh1006 0 I8 polyline1008 0 CCCCCCCCCCA1
6 mesh_offset_data206 0 Z1 3 2 3 0 0 0 0 0 0 0 0 1e3 1e-8 0 0 4 1 0 1 5 0 81 255
 1 2 2 6 1 7 0 0 0 8 70 11 CI9 list_type0 0 1 uI10 notransmit0 0 1 lCCCDCCDI12 f
inger_index0 0 1 dI12 finger_block1012 0 CZ3 0 4 T1 0 0 2 20 1 9 9 11 255 5 3 0
 1 4 0 1 0 0 0 0 10 4 3 10 11 0 0 0 0 0 0 0 0 1e3 1e-8 5 1 0 1 0 1 12 0 81 1 10
 2 6 4 13 0 0 0 14 70 11 0 4 T4 0 0 2 20 1 15 15 11 12 3 0 1 16 0 4 0 0 0 0 12 3
6 CCCI7 lattice222 0 CCCI4 mesh1006 0 I8 polyline1008 0 CCCCCCCDI5 owner1040 0 C
CCI16 boundary_lattice222 0 CCCI13 boundary_mesh1006 0 I17 boundary_polyline1008
 0 CCCA16 index_map_offset0 0 1 dA9 index_map82 0 A17 node_id_index_map82 0 A20
 schema_embedding_map82 0 A5 child12 0 A14 lowest_node_id0 0 1 dA16 mesh_offset_
data206 0 Z16 1001 17 18 0 0 0 0 0 0 0 1e3 1e-8 12 0 0 1 0 1 1 19 0 20 21 22 0 0
 23 24 25 0 0 0 0 0 0 0 81 1 17 818 6 16 26 0 0 0 27 70 18 0 4 T16 0 0 6 20 1 28
 28 13 255 19 237 0 16 0 29 0 0 30 0 51 255 20 933 0 31 32 0 0 +.229179899062358
 .284275249351234 0 0 0 1 .0028 1 0 0 31 255 21 929 0 33 34 0 0 +.26299995471048
4 .240999994823955 .011 0 0 1 1 0 0 .00155 29 255 22 891 0 35 36 0 .251991459185
3095 .2685978079633385 .011 19 9 CCCCCCI5 frame230 0 CA5 owner12 0 Z23 235 0 16
 30 0 37 0 V0 16 255 24 230 0 ?38 0 39 40 0 0 16 18 255 25 130 0 41 0 42 43 ?16
 17 255 41 0 44 45 46 25 47 48 0 49 +18 42 133 0 45 25 35 36 ?16 29 43 889 0 25
 50 36 .2519946194704305 .268528345153186 .011 29 50 888 0 51 52 43 .24408580504
25565 .323067147675689 .011 29 36 890 0 42 43 22 .251992945577697 .2685978229704
62 .011 18 51 76 0 53 54 55 50 ?16 29 52 887 0 54 56 50 .233886755994039 .309666
7753024105 .011 18 54 78 0 57 58 51 52 ?16 29 56 886 0 58 59 52 .222297188694196
 .3069735229643215 .011 18 58 80 0 60 61 54 56 ?16 29 59 885 0 61 62 56 .2218489
426169095 .3070091595438325 .011 18 61 82 0 63 64 58 59 ?16 29 62 884 0 64 65 59
 .2196388113226545 .302866857681896 .011 18 64 84 0 66 67 61 62 ?16 29 65 883 0
 67 68 62 .2265399535768175 .2833421428013845 .011 18 67 86 0 69 70 64 65 ?16 29
 68 882 0 71 72 65 .2265399535768175 .2833421428013845 0 18 71 53 0 73 74 75 68
 ?16 29 72 881 0 75 76 68 .229439216547838 .281487283346828 0 18 75 51 0 77 71 7
8 72 ?16 29 76 880 0 78 79 72 .2410066041880495 .28103089868958 0 18 78 49 0 80
 75 81 76 ?16 29 79 879 0 82 83 76 .2410066041880495 .28103089868958 .011 18 82
 90 0 84 85 70 79 ?16 29 83 878 0 85 86 79 .251962068777601 .2690485538360755 .0
11 18 85 92 0 87 88 82 83 ?16 29 86 877 0 88 89 83 .2456304119854575 .2199700851
172635 .011 18 88 94 0 90 91 85 86 ?16 29 89 876 0 92 93 86 .2456304119854575 .2
199700851172635 0 18 92 45 0 94 81 95 89 ?16 29 93 875 0 95 96 89 .2474221728292
7 .214664929186719 0 18 95 43 0 97 92 98 93 ?16 29 96 874 0 98 99 93 .2676373372
1149 .2108537721258135 0 18 98 41 0 100 95 101 96 ?16 29 99 873 0 102 103 96 .26
76373338661925 .210853771170853 .011 18 102 98 0 104 105 91 99 ?16 29 103 872 0
 105 106 99 .267972328875184 .214865818419319 .011 18 105 100 0 107 108 102 103
 ?16 29 106 871 0 108 109 103 .271310114177364 .224104859044254 .011 18 108 102
 0 110 111 105 106 ?16 29 109 870 0 111 112 106 .2742050189424845 .2333618465872
97 .011 18 111 104 0 113 114 108 109 ?16 29 112 869 0 114 115 109 .2784173274066
795 .2504108972061535 .011 18 114 106 0 116 117 111 112 ?16 29 115 868 0 117 118
 112 .2806677067100965 .263215287622438 .011 18 117 108 0 119 120 114 115 ?16 29
 118 867 0 120 121 115 .2821042652978255 .2753735305633935 .011 18 120 110 0 122
 123 117 118 ?16 29 121 866 0 123 124 118 .2828749913297185 .2876115662041185 .0
11 18 123 112 0 125 126 120 121 ?16 29 124 865 0 126 127 121 .282798712571645 .3
021931519656335 .011 18 126 114 0 128 129 123 124 ?16 29 127 864 0 129 130 124 .
281369292150972 .313774348193976 .011 18 129 116 0 131 132 126 127 ?16 29 130 86
3 0 132 133 127 .2779256795734535 .329805085532804 .011 18 132 118 0 134 135 129
 130 ?16 29 133 862 0 135 136 130 .2748152467205905 .3399649964011785 .011 18 13
5 120 0 137 138 132 133 ?16 29 136 861 0 138 139 133 .2421599319669945 .33456945
15667475 .011 18 138 122 0 140 141 135 136 ?16 29 139 860 0 141 142 136 .2429446
57750368 .333 .011 18 141 124 0 143 144 138 139 ?16 29 142 859 0 144 145 139 .24
3791893760379 .3302736199934415 .011 18 144 126 0 146 147 141 142 ?16 29 145 858
 0 147 148 142 .2440778303631305 .32950372291948 .011 18 147 75 0 149 35 144 145
 ?16 29 148 857 0 91 150 145 .2474221700081205 .214664931334721 .011 18 91 96 0
 151 102 88 148 ?16 29 150 856 0 70 152 148 .229439212158324 .2814872829385455 .
011 18 70 88 0 153 82 67 150 ?16 29 152 455 0 154 155 150 .251992945577697 .2685
97822970462 0 18 154 70 0 38 55 156 152 ?16 29 155 454 0 55 157 152 .25199145918
53095 .2685978079633385 0 18 55 68 0 158 51 154 155 ?16 29 157 453 0 156 159 155
 .2519946194704305 .2685283451531855 0 18 156 67 0 46 154 160 157 ?16 29 159 452
 0 161 162 157 .222297188694196 .3069735229643215 0 18 161 59 0 163 160 164 159
 ?16 29 162 451 0 164 165 159 .2218489426169095 .3070091595438325 0 18 164 57 0
 166 161 74 162 ?16 29 165 450 0 74 167 162 .2196388113226545 .302866857681896 0
 18 74 55 0 168 164 71 165 ?16 29 167 446 0 81 169 165 .2519620687776015 .269048
5538360755 0 18 81 47 0 170 78 92 167 ?16 29 169 442 0 101 171 167 .267972328875
184 .214865818419319 0 18 101 39 0 172 98 173 169 ?16 29 171 441 0 173 174 169 .
271310114177364 .224104859044254 0 18 173 37 0 175 101 176 171 ?16 29 174 440 0
 176 177 171 .2742050189424845 .233361846587297 0 18 176 35 0 178 173 179 174 ?1
6 29 177 439 0 179 180 174 .2784173274066795 .2504108972061535 0 18 179 33 0 181
 176 182 177 ?16 29 180 438 0 182 183 177 .2806677067100965 .263215287622438 0 1
8 182 31 0 184 179 185 180 ?16 29 183 437 0 185 186 180 .2821042652978255 .27537
35305633935 0 18 185 29 0 187 182 188 183 ?16 29 186 436 0 188 189 183 .28287499
13297185 .2876115662041185 0 18 188 27 0 190 185 191 186 ?16 29 189 435 0 191 19
2 186 .282798712571645 .3021931519656335 0 18 191 25 0 193 188 194 189 ?16 29 19
2 434 0 194 195 189 .281369292150972 .313774348193976 0 18 194 23 0 196 191 197
 192 ?16 29 195 433 0 197 198 192 .2779256795734535 .329805085532804 0 18 197 21
 0 199 194 200 195 ?16 29 198 432 0 200 201 195 .2748152467205905 .3399649964011
785 0 18 200 19 0 202 197 203 198 ?16 29 201 431 0 203 204 198 .2421599319669945
 .3345694515667475 0 18 203 17 0 205 200 206 201 ?16 29 204 430 0 206 207 201 .2
42944657750368 .333 0 18 206 15 0 208 203 209 204 ?16 29 207 429 0 209 210 204 .
243791893760379 .3302736199934415 0 18 209 13 0 211 206 212 207 ?16 29 210 428 0
 212 213 207 .2440778303631305 .3295037229194795 0 18 212 11 0 214 209 215 210 ?
16 29 213 427 0 160 216 210 .233886755994039 .3096667753024105 0 18 160 9 0 217
 156 161 213 ?16 29 216 426 0 215 0 213 .2440858050425565 .323067147675689 0 18
 215 8 0 218 212 0 216 ?16 17 218 0 219 53 214 215 220 221 0 222 -15 255 219 234
 0 214 223 0 17 53 0 219 149 218 51 222 224 0 225 +17 214 0 219 218 149 212 226
 227 0 228 -17 220 0 229 230 231 212 218 221 0 0 +16 221 10 0 ?220 232 233 234 0
 0 16 17 222 0 235 236 225 215 53 224 0 231 -15 235 205 0 222 237 0 17 236 0 235
 238 222 160 231 233 0 239 +17 225 0 235 222 238 51 240 241 0 242 -16 224 206 0
 ?53 243 227 244 0 0 16 17 231 0 229 220 239 215 236 233 0 0 -15 229 6 0 231 29
 245 17 239 0 229 231 246 160 247 248 0 0 +16 233 7 0 ?236 221 0 249 0 0 16 31 2
49 668 0 233 0 234 0 +.2235675412961115 .3281021934074525 0 0 0 -1 1 0 0 .021127
01665379275 31 234 669 0 221 249 250 0 -.226075924345659 .3262631266595485 0 0 0
 -1 1 0 0 .0182912570476104 31 250 670 0 232 234 251 0 +.114617208390163 .281860
627426595 0 0 0 1 1 0 0 .1379489658887364 16 232 12 0 ?230 252 221 250 0 0 16 31
 251 671 0 252 250 253 0 +.226075924345614 .326263126659525 0 0 0 1 1 0 0 .01816
424039386925 16 252 14 0 ?254 255 232 251 0 0 16 30 255 253 672 0 255 251 256 0
 +.239543447979542 .339802419541653 0 -.4472135954999625 .894427190999914 0 16 2
55 16 0 ?257 258 252 253 0 0 16 30 256 673 0 258 253 259 0 +.2584875893437925 .3
37267223983963 0 .986623267215758 .1630169579783155 0 16 258 18 0 ?260 261 255 2
56 0 0 16 31 259 674 0 261 256 262 0 +.1252855434859472 .2886307476241675 0 0 0
 -1 1 0 0 .1580959747967685 16 261 20 0 ?263 264 258 259 0 0 16 30 262 675 0 264
 259 265 0 +.279647485862213 .32178971686339 0 -.2100220595660655 .9776966474810
21 0 16 264 22 0 ?266 267 261 262 0 0 16 30 265 676 0 267 262 268 0 +.2820840023
613085 .307983750079805 0 -.1224964467226186 .992468951927632 0 16 267 24 0 ?269
 270 264 265 0 0 16 30 268 677 0 270 265 271 0 +.2828368519506745 .2949023590863
09 0 -.00523109870577377 .999986317709563 0 16 270 26 0 ?272 273 267 268 0 0 16
 30 271 678 0 273 268 274 0 +.2824896283137915 .2814925483851845 0 .062853398385
4271 .99802277043733 0 16 273 28 0 ?275 276 270 271 0 0 16 30 274 679 0 276 271
 277 0 +.281385986004036 .269294409093549 0 .1173388909659446 .993091931629133 0
 16 276 30 0 ?278 279 273 274 0 0 16 30 277 680 0 279 274 280 0 +.27954251705848
05 .2568130924149305 0 .173097588501963 .984904678055092 0 16 279 32 0 ?281 282
 276 277 0 0 16 30 280 681 0 282 277 283 0 +.276311173174573 .241886371896729 0
 .239857530149107 .970808099075595 0 16 282 34 0 ?284 285 279 280 0 0 16 30 283
 682 0 285 280 286 0 +.2727575665599245 .2287333528157765 0 .2984718782052785 .9
54418429160195 0 16 285 36 0 ?287 288 282 283 0 0 16 30 286 683 0 288 283 289 0
 +.2696412215262735 .2194853387317865 0 -.3397763961857775 -.940506246972877 0 1
6 288 38 0 ?290 291 285 286 0 0 16 31 289 684 0 291 286 292 0 +.267046618609072
 .212923103493905 0 0 0 1 1 0 0 .00215199460459615 16 291 40 0 ?293 294 288 289
 0 0 16 31 292 685 0 294 289 295 0 +.2613336572224415 .232936033768429 0 0 0 1 1
 0 0 .0229643780812208 16 294 42 0 ?296 297 291 292 0 0 16 31 295 686 0 297 292
 298 0 +.2504510997054885 .218643069704413 0 0 0 1 1 0 0 .005 16 297 44 0 ?299 3
00 294 295 0 0 16 31 298 687 0 300 295 301 0 +.0750647212061616 .266922576901193
 0 0 0 1 1 0 0 .176910122253472 16 300 46 0 ?302 303 297 298 0 0 16 31 301 688 0
 303 298 304 0 +.238741197292559 .267960169778011 0 0 0 1 1 0 0 .013265595451462
32 16 303 48 0 ?305 306 300 301 0 0 16 31 304 689 0 306 301 307 0 +.233506604188
05 .2377581131110135 0 0 0 1 1 0 0 .0439179231263113 16 306 50 0 ?308 309 303 30
4 0 0 16 31 307 690 0 309 304 310 0 +.2291798990623585 .284275249351234 0 0 0 -1
 1 0 0 .0028 16 309 52 0 ?311 312 306 307 0 0 16 30 310 691 0 312 307 313 0 +.22
3089382449736 .29310450024164 0 .333252339232023 -.942837673407456 0 16 312 54 0
 ?314 315 309 310 0 0 16 134 255 313 692 0 315 310 316 0 +317 318 16 315 56 0 ?3
19 320 312 313 0 0 16 31 316 697 0 320 313 321 0 +.222944657750368 .317954451150
1035 0 0 0 1 1 0 0 .011 136 255 317 3 23 3 21 1 FFF1 322 323 324 135 255 318 2 0
 45 255 69 322 .219638811322655 .302866857681896 0 .2196077643642025 .3029546957
512135 0 .219552668308561 .3031196540321085 0 .219484232658669 .303357419055799
 0 .219434605681891 .303571625719914 0 .219400542494777 .3037706410513215 0 .219
378493014708 .303963909395662 0 .219368467112759 .3041487170107325 0 .2193692112
489 .3043246736340175 0 .219379898294988 .3045022334398905 0 .219402379429115 .3
04687272408585 0 .2194497551174985 .3049342184338155 0 .219536259966623 .3052278
529685375 0 .2196771206839725 .3055471608651835 0 .2198592426216045 .30585158678
90465 0 .2200781077332015 .306129713265574 0 .22033986562818 .3063827403331065 0
 .2206161188659885 .3065879072234045 0 .22092225602099 .306760443212432 0 .22124
81246455985 .3068927869011525 0 .2215660853156115 .306973556990678 0 .2217658900
358935 .307001459996332 0 .2218489394496465 .307009159250207 0 127 255 21 323 4
 1 1 1 1 1 1 1 1 1 1 1 1 1 1 1 1 1 1 1 4 128 255 21 324 .0715110269942997 .11826
37125860208 .1606814651759325 .1964907403112555 .2300827102917465 .2629800628760
66 .295253778900462 .323934545028806 .3522705996505065 .385493791647824 .4184862
578679425 .479822894654804 .540526831650405 .595249561177704 .65954583413437 .71
9724341417803 .779613583699674 .833823441941128 .897764316295703 .95766742541378
2 1 16 320 58 0 ?246 248 315 316 0 0 16 31 321 698 0 248 316 325 0 +.22353326598
3252 .327937113137178 0 0 0 1 1 0 0 .021 16 248 60 0 ?239 326 320 321 0 0 16 31
 325 699 0 326 321 327 0 +.262999954710484 .240999994823955 0 0 0 1 1 0 0 .00155
 16 326 62 0 ?328 329 248 325 0 0 16 31 327 700 0 329 325 330 0 +.26800006999285
35 .297000003450977 0 0 0 1 1 0 0 .00155 16 329 64 0 ?331 332 326 327 0 0 16 31
 330 701 0 332 327 333 0 +.2387411972926895 .2679601697780135 0 0 0 1 1 0 0 .013
26559545133194 16 332 66 0 ?334 335 329 330 0 0 16 30 333 702 0 335 330 336 0 +.
251992945577697 .268597822970462 0 .0240854881058085 -.999709902553088 0 16 335
 69 0 ?46 337 332 333 0 0 16 30 336 703 0 337 333 338 0 -.2519674127918045 .2685
97565182759 0 .999949035849395 .0100958260616162 0 16 337 71 0 ?339 340 335 336
 0 0 16 30 338 740 0 341 336 342 0 +.2519914591853095 .2685978079633385 0 0 0 1
 16 341 141 0 ?343 48 33 338 0 0 16 30 342 741 0 48 338 344 0 +.2519946194704305
 .268528345153186 0 0 0 1 16 48 142 0 ?41 345 341 342 0 0 16 30 344 742 0 345 34
2 346 0 +.251962068777601 .2690485538360755 0 0 0 -1 16 345 145 0 ?347 348 48 34
4 0 0 16 30 346 746 0 349 344 350 0 +.267972328875184 .214865818419319 0 0 0 1 1
6 349 155 0 ?351 352 353 346 0 0 16 30 350 747 0 352 346 354 0 +.271310114177364
 .224104859044254 0 0 0 1 16 352 158 0 ?355 356 349 350 0 0 16 30 354 748 0 356
 350 357 0 +.2742050189424845 .233361846587297 0 0 0 1 16 356 161 0 ?358 359 352
 354 0 0 16 30 357 749 0 359 354 360 0 +.2784173274066795 .2504108972061535 0 0
 0 1 16 359 164 0 ?361 362 356 357 0 0 16 30 360 750 0 362 357 363 0 +.280667706
7100965 .263215287622438 0 0 0 1 16 362 167 0 ?364 365 359 360 0 0 16 30 363 751
 0 365 360 366 0 +.2821042652978255 .2753735305633935 0 0 0 1 16 365 170 0 ?367
 368 362 363 0 0 16 30 366 752 0 368 363 369 0 +.2828749913297185 .2876115662041
185 0 0 0 1 16 368 173 0 ?370 371 365 366 0 0 16 30 369 753 0 371 366 372 0 +.28
2798712571645 .3021931519656335 0 0 0 1 16 371 176 0 ?373 374 368 369 0 0 16 30
 372 754 0 374 369 375 0 +.281369292150972 .313774348193976 0 0 0 1 16 374 179 0
 ?376 377 371 372 0 0 16 30 375 755 0 377 372 378 0 +.2779256795734535 .32980508
5532804 0 0 0 1 16 377 182 0 ?379 380 374 375 0 0 16 30 378 756 0 380 375 381 0
 +.2748152467205905 .3399649964011785 0 0 0 1 16 380 185 0 ?382 383 377 378 0 0
 16 30 381 757 0 383 378 384 0 +.2421599319669945 .3345694515667475 0 0 0 1 16 3
83 188 0 ?385 386 380 381 0 0 16 30 384 758 0 386 381 387 0 +.242944657750368 .3
33 0 0 0 1 16 386 191 0 ?388 389 383 384 0 0 16 30 387 759 0 389 384 390 0 +.243
791893760379 .3302736199934415 0 0 0 1 16 389 194 0 ?391 227 386 387 0 0 16 30 3
90 760 0 227 387 244 0 -.2440778303631305 .32950372291948 0 0 0 -1 16 227 197 0
 ?226 224 389 390 0 0 16 30 244 761 0 224 390 392 0 +.2440858050425565 .32306714
7675689 .0045 0 0 1 30 392 762 0 243 244 393 0 +.233886755994039 .30966677530241
05 0 0 0 1 16 243 207 0 ?238 394 224 392 0 0 16 30 393 763 0 394 392 395 0 +.222
297188694196 .3069735229643215 0 0 0 1 16 394 210 0 ?396 397 243 393 0 0 16 30 3
95 764 0 397 393 398 0 +.2218489426169095 .3070091595438325 0 0 0 1 16 397 213 0
 ?399 400 394 395 0 0 16 30 398 765 0 400 395 40 0 +.2196388113226545 .302866857
681896 0 0 0 1 16 400 216 0 ?401 402 397 398 0 0 16 30 40 769 0 24 398 403 0 -.2
51992945577697 .268597822970462 0 0 0 1 31 403 892 0 404 40 405 0 -.229179899062
358 .284275249351234 .011 0 0 1 1 0 0 .0028 16 404 87 0 ?69 406 407 403 0 0 16 3
1 405 893 0 406 403 408 0 +.2335066041880495 .2377581131110135 .011 0 0 1 1 0 0
 .0439179231263113 16 406 89 0 ?153 409 404 405 0 0 16 31 408 894 0 410 405 411
 0 +.2504510997054885 .218643069704413 .011 0 0 1 1 0 0 .005 16 410 95 0 ?412 41
3 414 408 0 0 16 31 411 895 0 413 408 415 0 +.261333657222442 .232936033768429 .
011 0 0 1 1 0 0 .0229643780812208 16 413 97 0 ?416 417 410 411 0 0 16 30 415 896
 0 418 411 419 0 -.24742217282927 .214664929186719 0 0 0 -1 16 418 149 0 ?420 35
3 348 415 0 0 16 30 419 897 0 421 415 422 0 -.229439216547838 .281487283346828 0
 0 0 -1 16 421 222 0 ?423 39 402 419 0 0 16 31 422 898 0 340 419 424 0 -.2260759
24345659 .3262631266595485 .011 0 0 1 1 0 0 .0182912570476104 16 340 74 0 ?242 2
41 337 422 0 0 16 31 424 899 0 425 422 426 0 +.114617208390163 .281860627426595
 .011 0 0 1 1 0 0 .1379489658887364 16 425 127 0 ?146 427 428 424 0 0 16 31 426
 900 0 428 424 429 0 +.226075924345614 .326263126659525 .011 0 0 1 1 0 0 .018164
24039386925 16 428 125 0 ?143 425 430 426 0 0 16 30 429 901 0 430 426 431 0 +.24
11557262002945 .3365778631001485 .011 -.447213595499962 .894427190999914 0 16 43
0 123 0 ?140 428 432 429 0 0 16 30 431 902 0 432 429 433 0 +-.0674348575865352 .
2834159845079615 .011 .986623267215758 .1630169579783155 0 16 432 121 0 ?137 430
 434 431 0 0 16 31 433 903 0 434 431 435 0 -.1252855434859472 .2886307476241675
 .011 0 0 1 1 0 0 .1580959747967685 16 434 119 0 ?134 432 436 433 0 0 16 30 435
 904 0 436 433 437 0 +.292080177751044 .2639129338055085 .011 -.2100220595660655
 .977696647481021 0 16 436 117 0 ?438 434 439 435 0 0 16 30 437 905 0 439 435 44
0 0 +.291414692139025 .2323862927476645 .011 -.1224964467226186 .992468951927632
 0 16 439 115 0 ?441 436 442 437 0 0 16 30 440 906 0 442 437 443 0 +.28337643642
9872 .1917544112469195 .011 -.00523109870577377 .999986317709563 0 16 442 113 0
 ?444 439 445 440 0 0 16 30 443 907 0 445 440 446 0 +.275428963114974 .169379204
8927155 .011 .0628533983854271 .99802277043733 0 16 445 111 0 ?447 442 448 443 0
 0 16 30 446 908 0 448 443 449 0 +.2675557461247005 .15224285420328 .011 .117338
8909659446 .993091931629133 0 16 448 109 0 ?450 445 451 446 0 0 16 30 449 909 0
 451 446 452 0 +.258217978185007 .1354790040800522 .011 .173097588501963 .984904
678055092 0 16 451 107 0 ?453 448 454 449 0 0 16 30 452 910 0 454 449 455 0 +.24
53408607023005 .1165360017820474 .011 .239857530149107 .970808099075595 0 16 454
 105 0 ?456 451 457 452 0 0 16 30 455 911 0 457 452 458 0 +.232792532294227 .100
9378450628932 .011 .2984718782052785 .954418429160195 0 16 457 103 0 ?459 454 46
0 455 0 0 16 30 458 912 0 460 455 461 0 +.223085997372481 .0906197682054447 .011
 -.3397763961857775 -.940506246972877 0 16 460 101 0 ?107 457 417 458 0 0 16 31
 461 913 0 417 458 462 0 +.267046618609072 .212923103493905 .011 0 0 1 1 0 0 .00
215199460459615 16 417 99 0 ?463 460 413 461 0 0 16 30 462 914 0 353 461 464 0 +
.26763733721149 .2108537721258135 0 0 0 1 16 353 152 0 ?465 349 418 462 0 0 16 3
0 464 915 0 348 462 466 0 +.2456304119854575 .2199700851172635 0 0 0 1 16 348 14
6 0 ?467 418 345 464 0 0 16 31 466 916 0 414 464 468 0 +.0750647212061616 .26692
2576901193 .011 0 0 1 1 0 0 .176910122253472 16 414 93 0 ?469 410 409 466 0 0 16
 31 468 917 0 409 466 470 0 +.238741197292559 .267960169778011 .011 0 0 1 1 0 0
 .01326559545146232 16 409 91 0 ?84 414 406 468 0 0 16 30 470 918 0 39 468 471 0
 +.2410066041880495 .28103089868958 0 0 0 1 16 39 225 0 ?472 24 421 470 0 0 16 3
0 471 919 0 402 470 473 0 -.2265399535768175 .2833421428013845 0 0 0 -1 16 402 2
19 0 ?474 421 400 471 0 0 16 30 473 920 0 407 471 475 0 +.2249344763244135 .2878
843597918285 .011 .333252339232023 -.942837673407456 0 16 407 85 0 ?476 404 477
 473 0 0 16 38 12 CCCCCCCCCCCA17 intersection_data204 0 Z475 921 0 477 473 478 0
 +479 480 481 482 483 484 16 477 83 0 ?63 407 485 475 0 0 16 31 478 922 0 485 47
5 486 0 +.222944657750368 .3179544511501035 .011 0 0 1 1 0 0 .011 124 255 479 62
2 0 487 488 489 490 +491 492 50 255 480 855 0 493 494 495 496 +-.052 .19 .011 0
 0 1 1 0 0 40 255 7 481 .0238155413291788 1.004571265009336 7 .00022597956577712
35 .339246018911445 ??.2196710414474285 .3027756721978715 .011 .2193835459976215
 .303928901268257 .011 .2194518459284465 .3049232703523715 .011 .219688797454961
 .3055543721908845 .011 .2202422929538425 .3062853367171165 .011 .22100725620440
95 .3067913614190795 .011 .2218922692359005 .307012823820204 .011 41 3 CI8 term_
use0 0 1 cCZ1 482 L?.2196710414474285 .3027756721978715 .011 41 1 483 L?.2218922
692359005 .307012823820204 .011 204 2 17 INTERSECTION_DATA17 Intersection data7
 uv_type0 0 1 u6 values0 1 1 fT28 484 4 1.01617812678204 1.222222222222222 ??.81
4720826810534 1.222222222222222 .2713835459976215 .113928901268257 .645305513270
503 1.222222222222222 .2714518459284465 .1149232703523716 .530984195343925 1.222
22222222222 .271688797454961 .1155543721908844 .375138428095397 1.22222222222222
2 .2722422929538425 .1162853367171164 .2192256661217865 1.222222222222222 .27300
72562044095 .1167913614190794 .0641534148204196 1.222222222222222 ??14 255 493 7
2 497 ?498 29 499 19 480 +0 0 498 29 37 51 494 663 0 223 500 480 0 +.22607592434
5659 .3262631266595485 0 0 0 1 .0182912570476104 1 0 0 51 495 930 0 501 480 502
 0 +.2504510997054885 .218643069704413 0 0 0 -1 .005 -1 0 0 141 255 496 475 496
 496 480 14 501 147 503 ?504 505 506 19 495 +0 0 504 505 37 51 502 931 0 507 495
 32 0 +.2335066041880495 .2377581131110135 0 0 0 -1 .0439179231263113 -1 0 0 14
 507 223 508 ?509 31 510 19 502 -0 0 509 31 37 51 32 932 0 504 502 20 0 +.261333
657222442 .232936033768429 0 0 0 -1 .0229643780812208 -1 0 0 14 504 150 511 ?512
 501 513 19 32 +0 0 512 501 37 81 1 511 945 514 504 515 0 503 516 517 14 512 153
 516 ?518 504 519 19 520 +0 0 518 504 37 15 513 151 0 465 504 0 13 37 4 0 0 0 0
 0 0 23 29 14 29 5 521 ?493 0 229 19 522 -0 0 493 0 37 81 1 521 935 514 29 523 0
 0 497 524 50 522 486 0 29 0 525 0 +-.052 .19 0 0 0 1 1 0 0 51 525 502 0 498 522
 526 0 +.2387411972926895 .2679601697780135 0 0 0 1 .01326559545133194 1 0 0 14
 498 139 527 ?505 493 528 19 525 +0 0 505 493 37 51 526 507 0 505 525 520 0 +.07
50647212061616 .266922576901193 0 0 0 1 .176910122253472 1 0 0 14 505 143 529 ?5
01 498 530 19 526 -0 0 501 498 37 51 520 522 0 512 526 531 0 +.267046618609072 .
212923103493905 0 0 0 1 .00215199460459615 1 0 0 50 531 527 0 518 520 532 0 +.26
96412215262735 .2194853387317865 0 -.940506246972877 .3397763961857775 0 -.33977
63961857775 -.940506246972877 0 14 518 156 533 ?534 512 535 19 531 -0 0 534 512
 37 50 532 532 0 534 531 536 0 +.2727575665599245 .2287333528157765 0 .954418429
160195 -.2984718782052785 0 .2984718782052785 .954418429160195 0 14 534 159 537
 ?538 518 539 19 532 +0 0 538 518 37 50 536 537 0 538 532 540 0 +.27631117317457
3 .241886371896729 0 .970808099075595 -.239857530149107 0 .239857530149107 .9708
08099075595 0 14 538 162 541 ?542 534 543 19 536 +0 0 542 534 37 50 540 542 0 54
2 536 544 0 +.2795425170584805 .2568130924149305 0 .984904678055092 -.1730975885
01963 0 .173097588501963 .984904678055092 0 14 542 165 545 ?546 538 547 19 540 +
0 0 546 538 37 50 544 547 0 546 540 548 0 +.281385986004036 .269294409093549 0 .
993091931629133 -.1173388909659446 0 .1173388909659446 .993091931629133 0 14 546
 168 549 ?550 542 551 19 544 +0 0 550 542 37 50 548 552 0 550 544 552 0 +.282489
6283137915 .2814925483851845 0 .99802277043733 -.0628533983854271 0 .06285339838
54271 .99802277043733 0 14 550 171 553 ?554 546 555 19 548 +0 0 554 546 37 50 55
2 557 0 554 548 556 0 +.2828368519506745 .294902359086309 0 .999986317709563 .00
523109870577377 0 -.00523109870577377 .999986317709563 0 14 554 174 557 ?558 550
 559 19 552 +0 0 558 550 37 50 556 562 0 558 552 560 0 +.2820840023613085 .30798
3750079805 0 .992468951927632 .1224964467226186 0 -.1224964467226186 .9924689519
27632 0 14 558 177 561 ?562 554 563 19 556 +0 0 562 554 37 50 560 567 0 562 556
 564 0 +.279647485862213 .32178971686339 0 .977696647481021 .2100220595660655 0
 -.2100220595660655 .977696647481021 0 14 562 180 565 ?566 558 567 19 560 +0 0 5
66 558 37 51 564 572 0 566 560 568 0 +.1252855434859472 .2886307476241675 0 0 0
 1 .1580959747967685 1 0 0 14 566 183 569 ?570 562 571 19 564 +0 0 570 562 37 50
 568 577 0 570 564 572 0 +.2584875893437925 .337267223983963 0 .1630169579783155
 -.986623267215758 0 .986623267215758 .1630169579783155 0 14 570 186 573 ?574 56
6 575 19 568 -0 0 574 566 37 50 572 582 0 574 568 576 0 +.239543447979542 .33980
2419541653 0 .894427190999914 .447213595499962 0 -.447213595499962 .894427190999
914 0 14 574 189 577 ?578 570 579 19 572 -0 0 578 570 37 51 576 587 0 578 572 58
0 0 +.226075924345614 .326263126659525 0 0 0 1 .01816424039386925 1 0 0 14 578 1
92 581 ?582 574 583 19 576 -0 0 582 574 37 51 580 592 0 582 576 584 0 +.11461720
8390163 .281860627426595 0 0 0 1 .1379489658887364 1 0 0 14 582 195 585 ?586 578
 587 19 580 -0 0 586 578 37 51 584 597 0 586 580 588 0 +.262999954710484 .240999
994823955 0 0 0 1 .00155 1 0 0 14 586 198 589 ?590 582 591 19 584 -0 0 590 582 3
7 51 588 602 0 590 584 592 0 +.2680000699928535 .297000003450977 0 0 0 1 .00155
 1 0 0 14 590 201 593 ?237 586 594 19 588 -0 0 237 586 37 51 592 607 0 237 588 5
95 0 +.2235675412961115 .3281021934074525 0 0 0 1 .02112701665379275 1 0 0 14 23
7 204 596 ?597 590 235 19 592 -0 0 597 590 37 51 595 612 0 597 592 488 0 +.22353
3265983252 .327937113137178 0 0 0 1 .021 1 0 0 14 597 208 598 ?599 237 600 19 59
5 -0 0 599 237 37 51 488 617 0 599 595 479 0 +.222944657750368 .3179544511501035
 0 0 0 1 .011 1 0 0 14 599 211 601 ?487 597 602 19 488 -0 0 487 597 37 81 1 601
 985 514 599 603 0 598 604 605 14 487 214 604 ?606 599 607 19 479 +0 0 606 599 3
7 15 602 212 0 60 599 0 17 60 0 602 163 399 58 608 485 0 396 +17 163 0 602 609 6
0 161 396 394 0 247 -17 399 0 602 60 609 61 166 397 0 608 +17 608 0 499 610 611
 61 60 485 0 0 -16 485 81 0 ?60 477 612 478 0 0 16 17 396 0 600 57 247 58 163 39
4 0 611 +15 600 209 0 57 597 0 17 57 0 600 217 396 54 611 612 0 238 +17 247 0 60
0 396 217 161 239 248 0 246 -17 611 0 499 608 240 58 57 612 0 0 -15 499 73 0 242
 493 613 17 240 0 499 611 242 54 225 241 0 0 +16 612 79 0 ?57 485 241 486 0 0 16
 16 241 77 0 ?240 612 340 614 0 0 16 31 486 923 0 612 478 614 0 +.22353326598325
2 .327937113137178 .011 0 0 1 1 0 0 .021 31 614 924 0 241 486 615 0 -.2235675412
961115 .3281021934074525 .011 0 0 1 1 0 0 .02112701665379275 31 615 925 0 427 61
4 616 0 +.2387411972926895 .2679601697780135 .011 0 0 1 1 0 0 .01326559545133194
 16 427 129 0 ?617 618 425 615 0 0 16 30 616 926 0 619 615 620 0 +.2536580640174
375 .199484197960262 .011 .0240854881058085 -.999709902553088 0 16 619 134 0 ?62
1 622 618 616 0 0 16 30 620 927 0 618 616 34 0 +.2519674127918045 .2685975651827
59 .011 .999949035849395 .0100958260616162 0 16 618 132 0 ?623 619 427 620 0 0 1
6 31 34 928 0 622 620 21 0 +.2680000699928535 .297000003450977 .011 0 0 1 1 0 0
 .00155 16 622 136 0 ?624 33 619 34 0 0 16 17 624 0 625 624 624 0 626 622 0 0 +1
6 33 138 0 ?627 341 622 21 0 0 16 17 627 0 628 627 627 0 629 33 0 0 +15 628 200
 0 627 586 0 17 629 0 630 629 629 0 627 33 0 0 -15 630 137 0 629 493 0 15 625 20
3 0 624 590 0 17 626 0 631 626 626 0 624 622 0 0 -15 631 135 0 626 493 630 17 62
3 0 613 621 617 42 632 618 0 0 +15 613 128 0 617 493 631 17 621 0 613 617 623 25
 45 619 0 0 +17 617 0 613 623 621 35 49 427 0 0 +17 632 0 633 158 634 35 623 618
 0 343 -15 633 229 0 635 636 0 17 158 0 633 635 632 55 343 341 0 334 -17 634 0 6
33 632 635 42 38 24 0 623 -18 35 131 0 632 42 147 22 ?16 17 343 0 528 49 334 35
 158 341 0 617 +15 528 140 0 334 498 0 17 49 0 528 47 343 25 617 427 0 621 -17 3
34 0 528 343 47 55 637 332 0 339 +17 47 0 528 334 49 156 41 48 0 637 -17 637 0 6
38 639 339 156 334 332 0 0 -17 339 0 638 637 639 55 635 337 0 0 +15 638 65 0 637
 29 0 17 639 0 638 339 637 154 46 335 0 0 -17 635 0 633 634 158 154 339 337 0 63
9 -17 46 0 44 41 38 156 639 335 0 47 +15 44 232 0 46 640 0 17 38 0 44 46 45 154
 634 24 0 635 +17 45 0 44 38 41 42 621 619 0 634 -14 640 231 641 ?223 636 44 19
 500 -0 0 223 636 37 81 1 641 999 514 640 642 0 643 644 645 14 223 233 644 ?0 64
0 219 19 494 -0 0 0 640 37 14 636 228 643 ?640 509 633 19 646 -0 0 640 509 37 50
 500 658 0 640 646 494 0 +.2536580640174375 .199484197960262 .009 .9997099025530
88 .0240854881058085 0 -.0240854881058085 .999709902553088 0 50 646 653 0 636 64
7 500 0 +.2519674127918045 .268597565182759 0 -.0100958260616162 .99994903584939
4 0 0 0 1 51 647 648 0 509 489 646 0 +.238741197292559 .267960169778011 0 0 0 1
 .01326559545146232 1 0 0 14 509 226 648 ?636 507 649 19 647 -0 0 636 507 37 50
 489 633 0 606 479 647 0 +.223089382449736 .29310450024164 0 -.942837673407456 -
.333252339232023 0 .333252339232023 -.942837673407456 0 14 606 217 650 ?31 487 6
51 19 489 +0 0 31 487 37 81 1 650 989 514 606 652 0 604 653 654 14 31 220 653 ?5
07 606 655 19 20 +0 0 507 606 37 15 651 218 0 66 606 0 17 66 0 651 168 474 64 47
6 407 0 401 -17 168 0 651 314 66 74 401 400 0 656 -17 474 0 651 66 314 67 73 402
 0 476 +17 476 0 499 657 610 67 66 407 0 0 +17 401 0 607 63 656 64 168 400 0 610
 +15 607 215 0 63 487 0 17 63 0 607 166 401 61 610 477 0 399 +17 656 0 607 401 1
66 74 319 315 0 658 -17 610 0 499 476 608 64 63 477 0 0 -17 166 0 607 656 63 164
 399 397 0 609 -17 319 0 229 246 658 164 656 315 0 0 +17 658 0 229 319 311 74 31
4 312 0 0 -17 311 0 229 658 308 71 659 309 0 0 +17 314 0 651 474 168 71 658 312
 0 311 +17 308 0 229 311 305 75 660 306 0 0 +17 659 0 655 423 73 75 311 309 0 30
8 -15 655 221 0 69 31 0 17 423 0 655 69 659 70 77 421 0 657 +17 73 0 655 659 69
 71 474 402 0 314 -17 69 0 655 73 423 67 657 404 0 474 +17 657 0 499 661 476 70
 69 404 0 0 -17 661 0 499 662 657 82 153 406 0 0 -17 662 0 499 663 661 85 84 409
 0 0 -17 153 0 510 77 472 70 661 406 0 423 +15 510 224 0 153 507 0 17 77 0 510 6
60 153 75 423 421 0 659 -17 472 0 510 153 660 82 80 39 0 661 +17 660 0 510 472 7
7 78 308 306 0 305 -17 80 0 649 170 84 78 472 39 0 660 -15 649 227 0 87 509 0 17
 170 0 649 87 80 81 305 303 0 347 -17 84 0 649 80 87 82 662 409 0 472 +17 87 0 6
49 84 170 85 347 345 0 469 -17 347 0 530 664 469 81 87 345 0 302 +17 469 0 530 3
47 467 85 663 414 0 662 +15 530 144 0 469 505 0 17 467 0 530 469 664 88 94 348 0
 663 +17 663 0 499 412 662 88 469 414 0 0 -17 412 0 499 416 663 91 90 410 0 0 +1
7 416 0 499 463 412 102 151 413 0 0 +17 90 0 506 94 420 88 412 410 0 467 -15 506
 148 0 90 501 0 17 94 0 506 299 90 92 467 348 0 664 -17 420 0 506 90 299 91 97 4
18 0 412 +17 299 0 506 420 94 95 665 297 0 666 +17 97 0 513 296 151 95 420 418 0
 299 -17 296 0 513 465 97 98 666 294 0 667 +17 151 0 513 97 465 91 416 413 0 420
 -17 465 0 513 151 296 102 100 353 0 416 +17 100 0 519 293 104 98 465 353 0 296
 -15 519 154 0 104 512 0 17 293 0 519 351 100 101 667 291 0 290 +17 104 0 519 10
0 351 102 463 417 0 465 -17 351 0 519 104 293 105 172 349 0 463 +17 463 0 499 66
8 416 105 104 417 0 0 +17 668 0 499 459 463 108 107 460 0 0 -17 459 0 499 456 66
8 111 110 457 0 0 +17 107 0 535 172 355 105 668 460 0 351 +15 535 157 0 107 518
 0 17 172 0 535 669 107 101 351 349 0 293 -17 355 0 535 107 669 108 175 352 0 66
8 +17 669 0 535 355 172 173 290 288 0 670 -17 175 0 539 287 110 173 355 352 0 66
9 -15 539 160 0 110 534 0 17 287 0 539 358 175 176 670 285 0 671 +17 110 0 539 1
75 358 108 459 457 0 355 -17 358 0 539 110 287 111 178 356 0 459 +17 178 0 543 2
84 113 176 358 356 0 287 -15 543 163 0 113 538 0 17 284 0 543 361 178 179 671 28
2 0 672 +17 113 0 543 178 361 111 456 454 0 358 -17 361 0 543 113 284 114 181 35
9 0 456 +17 456 0 499 453 459 114 113 454 0 0 +17 453 0 499 450 456 117 116 451
 0 0 +17 450 0 499 447 453 120 119 448 0 0 +17 116 0 547 181 364 114 453 451 0 3
61 -15 547 166 0 116 542 0 17 181 0 547 281 116 179 361 359 0 284 -17 364 0 547
 116 281 117 184 362 0 453 +17 281 0 547 364 181 182 672 279 0 673 +17 184 0 551
 278 119 182 364 362 0 281 -15 551 169 0 119 546 0 17 278 0 551 367 184 185 673
 276 0 674 +17 119 0 551 184 367 117 450 448 0 364 -17 367 0 551 119 278 120 187
 365 0 450 +17 187 0 555 275 122 185 367 365 0 278 -15 555 172 0 122 550 0 17 27
5 0 555 370 187 188 674 273 0 675 +17 122 0 555 187 370 120 447 445 0 367 -17 37
0 0 555 122 275 123 190 368 0 447 +17 447 0 499 444 450 123 122 445 0 0 +17 444
 0 499 441 447 126 125 442 0 0 +17 441 0 499 438 444 129 128 439 0 0 +17 125 0 5
59 190 373 123 444 442 0 370 -15 559 175 0 125 554 0 17 190 0 559 272 125 188 37
0 368 0 275 -17 373 0 559 125 272 126 193 371 0 444 +17 272 0 559 373 190 191 67
5 270 0 676 +17 193 0 563 269 128 191 373 371 0 272 -15 563 178 0 128 558 0 17 2
69 0 563 376 193 194 676 267 0 677 +17 128 0 563 193 376 126 441 439 0 373 -17 3
76 0 563 128 269 129 196 374 0 441 +17 196 0 567 266 131 194 376 374 0 269 -15 5
67 181 0 131 562 0 17 266 0 567 379 196 197 677 264 0 263 +17 131 0 567 196 379
 129 438 436 0 376 -17 379 0 567 131 266 132 199 377 0 438 +17 438 0 499 678 441
 132 131 436 0 0 +17 678 0 499 679 438 135 134 434 0 0 -17 679 0 499 680 678 138
 137 432 0 0 -17 134 0 571 199 382 132 678 434 0 379 +15 571 184 0 134 566 0 17
 199 0 571 681 134 197 379 377 0 266 -17 382 0 571 134 681 135 202 380 0 678 +17
 681 0 571 382 199 200 263 261 0 260 -17 202 0 575 682 137 200 382 380 0 681 -15
 575 187 0 137 570 0 17 682 0 575 385 202 203 260 258 0 257 -17 137 0 575 202 38
5 135 679 432 0 382 +17 385 0 575 137 682 138 205 383 0 679 +17 205 0 579 683 14
0 203 385 383 0 682 -15 579 190 0 140 574 0 17 683 0 579 388 205 206 257 255 0 2
54 -17 140 0 579 205 388 138 680 430 0 385 +17 388 0 579 140 683 141 208 386 0 6
80 +17 680 0 499 684 679 141 140 430 0 0 -17 684 0 499 685 680 144 143 428 0 0 -
17 685 0 499 242 684 147 146 425 0 0 -17 143 0 583 208 391 141 684 428 0 388 +15
 583 193 0 143 578 0 17 208 0 583 686 143 206 388 386 0 683 -17 391 0 583 143 68
6 144 211 389 0 684 +17 686 0 583 391 208 209 254 252 0 230 -17 211 0 587 228 14
6 209 391 389 0 686 -15 587 196 0 146 582 0 17 228 0 587 226 211 212 230 232 0 2
20 -17 146 0 587 211 226 144 685 425 0 391 +17 226 0 587 146 228 147 214 227 0 6
85 +17 230 0 229 254 220 209 228 232 0 0 +17 254 0 229 257 230 206 686 252 0 0 +
17 257 0 229 260 254 203 683 255 0 0 +17 260 0 229 263 257 200 682 258 0 0 +17 2
63 0 229 677 260 197 681 261 0 0 +17 677 0 229 676 263 194 266 264 0 0 -17 676 0
 229 675 677 191 269 267 0 0 -17 675 0 229 674 676 188 272 270 0 0 -17 674 0 229
 673 675 185 275 273 0 0 -17 673 0 229 672 674 182 278 276 0 0 -17 672 0 229 671
 673 179 281 279 0 0 -17 671 0 229 670 672 176 284 282 0 0 -17 670 0 229 290 671
 173 287 285 0 0 -17 290 0 229 667 670 101 669 288 0 0 +17 667 0 229 666 290 98
 293 291 0 0 -17 666 0 229 665 667 95 296 294 0 0 -17 665 0 229 302 666 92 299 2
97 0 0 -17 302 0 229 305 665 81 664 300 0 0 +17 305 0 229 308 302 78 170 303 0 0
 +17 664 0 530 467 347 92 302 300 0 665 -17 242 0 499 240 685 51 149 340 0 0 +17
 149 0 219 214 53 147 242 340 0 226 -17 246 0 229 239 319 161 609 320 0 0 +17 60
9 0 602 399 163 164 246 320 0 319 -81 1 653 991 514 31 687 0 650 508 688 80 7 CC
CCCDI12 legal_owners0 16 1 lCZ1 514 689 690 8015 0 0 0 0 3 5 0 0 0 FFFFTFFFFFFFF
FFF2 81 1 687 990 691 31 692 653 652 693 694 81 1 508 993 514 507 693 0 653 648
 695 83 255 1 688 0 81 1 693 992 691 507 696 508 687 697 698 81 1 648 995 514 50
9 697 0 508 643 699 83 1 695 0 81 1 697 994 691 509 700 648 693 701 702 81 1 643
 997 514 636 701 0 648 641 703 83 1 699 0 81 1 701 996 691 636 704 643 697 642 7
05 83 1 703 0 80 1 691 0 706 8001 0 0 0 0 3 5 0 0 0 FFFFTFTFFFFFFFFF2 81 1 704 8
08 707 636 0 701 700 696 708 81 1 642 998 691 640 709 641 701 710 711 83 3 705 .
494117647058824 .494117647058824 .52156862745098 81 1 709 810 707 640 0 642 696
 712 713 81 1 710 1000 691 223 712 644 642 0 714 83 3 711 .494117647058824 .4941
17647058824 .52156862745098 81 1 712 811 707 223 0 710 709 715 716 81 1 644 1001
 514 223 710 0 641 0 717 83 3 714 .494117647058824 .494117647058824 .52156862745
098 83 1 717 0 80 1 707 718 719 9000 0 0 0 0 3 6 0 0 0 TFTTTTTTFFFFTTFF3 81 1 71
5 812 707 599 0 603 712 720 721 84 255 12 716 {65}@1e@{21}81 1 603 984 691 599 7
15 601 722 723 724 81 1 720 813 707 487 0 723 715 725 726 84 12 721 {65}@1e@{19}
81 1 723 986 691 487 720 604 603 652 727 81 1 725 814 707 597 0 722 720 728 729
 84 12 726 {65}@1e@{1a}81 1 722 982 691 597 725 598 730 603 731 81 1 728 815 707
 606 0 652 725 692 732 84 12 729 {65}@1e@{18}81 1 652 988 691 606 728 650 723 68
7 733 81 1 692 816 707 31 0 687 728 734 735 84 12 732 {65}@1e@{1b}81 1 734 817 7
07 237 0 730 692 0 736 84 12 735 {65}@1e@{1c}81 1 730 980 691 237 734 596 737 72
2 738 84 12 736 {65}@1e@{17}81 1 596 981 514 237 730 0 593 598 739 81 1 737 978
 691 590 740 593 741 730 742 83 3 738 .494117647058824 .494117647058824 .5215686
2745098 81 1 740 786 707 590 0 737 743 744 745 81 1 593 979 514 590 737 0 589 59
6 746 81 1 741 976 691 586 743 589 747 737 748 83 3 742 .494117647058824 .494117
647058824 .52156862745098 81 1 743 785 707 586 0 741 749 740 750 81 1 589 977 51
4 586 741 0 585 593 751 81 1 747 974 691 582 744 585 752 741 753 83 3 748 .49411
7647058824 .494117647058824 .52156862745098 81 1 744 787 707 582 0 747 740 754 7
55 81 1 585 975 514 582 747 0 581 589 756 81 1 752 972 691 578 757 581 758 747 7
59 83 3 753 .494117647058824 .494117647058824 .52156862745098 81 1 757 806 707 5
78 0 752 760 700 761 81 1 581 973 514 578 752 0 577 585 762 81 1 758 970 691 574
 760 577 763 752 764 83 3 759 .494117647058824 .494117647058824 .52156862745098
 81 1 760 805 707 574 0 758 765 757 766 81 1 577 971 514 574 758 0 573 581 767 8
1 1 763 968 691 570 765 573 768 758 769 83 3 764 .494117647058824 .4941176470588
24 .52156862745098 81 1 765 804 707 570 0 763 770 760 771 81 1 573 969 514 570 7
63 0 569 577 772 81 1 768 966 691 566 770 569 773 763 774 83 3 769 .494117647058
824 .494117647058824 .52156862745098 81 1 770 803 707 566 0 768 775 765 776 81 1
 569 967 514 566 768 0 565 573 777 81 1 773 964 691 562 775 565 778 768 779 83 3
 774 .494117647058824 .494117647058824 .52156862745098 81 1 775 802 707 562 0 77
3 780 770 781 81 1 565 965 514 562 773 0 561 569 782 81 1 778 962 691 558 780 56
1 783 773 784 83 3 779 .494117647058824 .494117647058824 .52156862745098 81 1 78
0 801 707 558 0 778 785 775 786 81 1 561 963 514 558 778 0 557 565 787 81 1 783
 960 691 554 785 557 788 778 789 83 3 784 .494117647058824 .494117647058824 .521
56862745098 81 1 785 800 707 554 0 783 790 780 791 81 1 557 961 514 554 783 0 55
3 561 792 81 1 788 958 691 550 790 553 793 783 794 83 3 789 .494117647058824 .49
4117647058824 .52156862745098 81 1 790 799 707 550 0 788 795 785 796 81 1 553 95
9 514 550 788 0 549 557 797 81 1 793 956 691 546 795 549 798 788 799 83 3 794 .4
94117647058824 .494117647058824 .52156862745098 81 1 795 798 707 546 0 793 800 7
90 801 81 1 549 957 514 546 793 0 545 553 802 81 1 798 954 691 542 800 545 803 7
93 804 83 3 799 .494117647058824 .494117647058824 .52156862745098 81 1 800 797 7
07 542 0 798 805 795 806 81 1 545 955 514 542 798 0 541 549 807 81 1 803 952 691
 538 805 541 808 798 809 83 3 804 .494117647058824 .494117647058824 .52156862745
098 81 1 805 796 707 538 0 803 810 800 811 81 1 541 953 514 538 803 0 537 545 81
2 81 1 808 950 691 534 810 537 813 803 814 83 3 809 .494117647058824 .4941176470
58824 .52156862745098 81 1 810 795 707 534 0 808 815 805 816 81 1 537 951 514 53
4 808 0 533 541 817 81 1 813 948 691 518 815 533 818 808 819 83 3 814 .494117647
058824 .494117647058824 .52156862745098 81 1 815 794 707 518 0 813 820 810 821 8
1 1 533 949 514 518 813 0 516 537 822 81 1 818 946 691 512 820 516 515 813 823 8
3 3 819 .494117647058824 .494117647058824 .52156862745098 81 1 820 793 707 512 0
 818 824 815 825 81 1 516 947 514 512 818 0 511 533 826 81 1 515 944 691 504 824
 511 827 818 828 83 3 823 .494117647058824 .494117647058824 .52156862745098 81 1
 824 792 707 504 0 515 829 820 830 81 1 827 942 691 501 829 503 831 515 832 83 3
 828 .494117647058824 .494117647058824 .52156862745098 81 1 829 791 707 501 0 82
7 833 824 834 81 1 503 943 514 501 827 0 529 511 835 81 1 831 940 691 505 833 52
9 836 827 837 83 3 832 .494117647058824 .494117647058824 .52156862745098 81 1 83
3 790 707 505 0 831 838 829 839 81 1 529 941 514 505 831 0 527 503 840 81 1 836
 938 691 498 838 527 841 831 842 83 3 837 .494117647058824 .494117647058824 .521
56862745098 81 1 838 789 707 498 0 836 754 833 843 81 1 527 939 514 498 836 0 49
7 529 844 81 1 841 936 691 493 749 497 523 836 845 83 3 842 .494117647058824 .49
4117647058824 .52156862745098 81 1 749 784 707 493 0 841 846 743 847 81 1 497 93
7 514 493 841 0 521 527 848 81 1 523 934 691 29 754 521 0 841 849 83 3 845 .4941
17647058824 .494117647058824 .52156862745098 81 1 754 788 707 29 0 523 744 838 8
50 83 3 849 .494117647058824 .494117647058824 .52156862745098 84 11 850 {65}@1e@
{0}83 1 848 0 81 1 846 782 707 16 851 26 0 749 852 84 11 847 {65}@1e@{1}81 1 851
 781 853 16 0 846 0 0 854 81 1 26 783 718 16 846 17 0 0 855 84 3 852 10180 1 718
 856 857 9000 0 0 0 0 3 6 0 0 0 TFTTTTTTFFFFTTFF3 84 33 855 Grips-1/Spacers-1/Sp
acer-1-solid179 255 21 857 H3DX_BRIDGE/PART_NAME80 1 853 858 859 8017 0 0 0 0 0
 0 0 0 0 TTTTTTTTTTTTTFTF3 84 33 854 Grips-1/Spacers-1/Spacer-1-solid179 13 859
 SDL/TYSA_NAME83 1 844 0 84 11 843 {65}@1e@{2}83 1 840 0 84 11 839 {65}@1e@{3}83
 1 835 0 84 11 834 {65}@1e@{4}84 11 830 {65}@1e@{5}83 1 826 0 84 11 825 {65}@1e@
{6}83 1 822 0 84 11 821 {65}@1e@{7}83 1 817 0 84 11 816 {65}@1e@{8}83 1 812 0 84
 11 811 {65}@1e@{9}83 1 807 0 84 11 806 {65}@1e@{a}83 1 802 0 84 11 801 {65}@1e@
{b}83 1 797 0 84 11 796 {65}@1e@{c}83 1 792 0 84 11 791 {65}@1e@{d}83 1 787 0 84
 11 786 {65}@1e@{e}83 1 782 0 84 11 781 {65}@1e@{f}83 1 777 0 84 12 776 {65}@1e@
{10}83 1 772 0 84 12 771 {65}@1e@{11}83 1 767 0 84 12 766 {65}@1e@{12}83 1 762 0
 81 1 700 807 707 509 0 697 757 704 860 84 12 761 {65}@1e@{13}84 12 860 {65}@1e@
{1e}83 1 756 0 84 12 755 {65}@1e@{14}83 1 751 0 84 12 750 {65}@1e@{15}83 1 746 0
 84 12 745 {65}@1e@{16}81 1 598 983 514 597 722 0 596 601 861 83 1 739 0 83 1 86
1 0 83 3 733 .494117647058824 .494117647058824 .52156862745098 83 3 731 .4941176
47058824 .494117647058824 .52156862745098 81 1 604 987 514 487 723 0 601 650 862
 83 3 727 .494117647058824 .494117647058824 .52156862745098 83 1 862 0 83 3 724
 .494117647058824 .494117647058824 .52156862745098 79 25 719 H3DX_BRIDGE/PERSIST
ENT_ID81 1 696 809 707 507 0 693 704 709 863 84 12 713 {65}@1e@{20}84 12 863 {65
}@1e@{1d}84 12 708 {65}@1e@{1f}79 15 706 SDL/TYSA_COLOUR83 3 702 .49411764705882
4 .494117647058824 .52156862745098 83 3 698 .494117647058824 .494117647058824 .5
2156862745098 83 3 694 .494117647058824 .494117647058824 .52156862745098 79 21 6
90 SDL/TYSA_TRANSLUCENCY83 1 654 0 83 1 645 0 17 217 0 600 247 57 160 238 243 0
 236 -17 238 0 235 225 236 54 217 243 0 240 +83 1 605 0 15 594 202 0 864 590 625
 17 864 0 594 864 864 0 331 329 0 0 -17 331 0 865 331 331 0 864 329 0 0 +15 865
 63 0 331 29 638 15 591 199 0 866 586 628 17 866 0 591 866 866 0 328 326 0 0 -17
 328 0 245 328 328 0 866 326 0 0 +15 245 61 0 328 29 865 83 1 524 0 83 1 517 0 1
41 490 475 490 490 479 126 255 491 FF3 1 24 3 6 5 22 3 FFF11 3 867 868 869 870 8
71 125 255 492 0 1 0 1 0 1 0 1.222222222222222 2 BBBBBBBB????0 0 0 0 45 216 867
 .2222711304578675 .307015049663646 0 .2222711304578675 .307015049663646 .009 .2
222711304578675 .307015049663646 .011 .2221646550965375 .30702183643135 0 .22216
46550965375 .30702183643135 .009 .2221646550965375 .30702183643135 .011 .2219402
759893575 .3070231401933215 0 .2219402759893575 .3070231401933215 .009 .22194027
59893575 .3070231401933215 .011 .2215994977392035 .306982044595276 0 .2215994977
392035 .306982044595276 .009 .2215994977392035 .306982044595276 .011 .2212481246
455985 .3068927869011525 0 .2212481246455985 .3068927869011525 .009 .22124812464
55985 .3068927869011525 .011 .22092225602099 .306760443212432 0 .22092225602099
 .306760443212432 .009 .22092225602099 .306760443212432 .011 .2206161188659885 .
3065879072234045 0 .2206161188659885 .3065879072234045 .009 .2206161188659885 .3
065879072234045 .011 .22033986562818 .3063827403331065 0 .22033986562818 .306382
7403331065 .009 .22033986562818 .3063827403331065 .011 .2200781077332015 .306129
713265574 0 .2200781077332015 .306129713265574 .009 .2200781077332015 .306129713
265574 .011 .2198592426216045 .3058515867890465 0 .2198592426216045 .30585158678
90465 .009 .2198592426216045 .3058515867890465 .011 .2196771206839725 .305547160
8651835 0 .2196771206839725 .3055471608651835 .009 .2196771206839725 .3055471608
651835 .011 .219536259966623 .3052278529685375 0 .219536259966623 .3052278529685
375 .009 .219536259966623 .3052278529685375 .011 .2194497551174985 .304934218433
8155 0 .2194497551174985 .3049342184338155 .009 .2194497551174985 .3049342184338
155 .011 .219402379429115 .304687272408585 0 .219402379429115 .304687272408585 .
009 .219402379429115 .304687272408585 .011 .219379898294988 .3045022334398905 0
 .219379898294988 .3045022334398905 .009 .219379898294988 .3045022334398905 .011
 .2193692112489 .3043246736340175 0 .2193692112489 .3043246736340175 .009 .21936
92112489 .3043246736340175 .011 .219368467112759 .3041487170107325 0 .2193684671
12759 .3041487170107325 .009 .219368467112759 .3041487170107325 .011 .2193784930
14708 .303963909395662 0 .219378493014708 .303963909395662 .009 .219378493014708
 .303963909395662 .011 .219400542494777 .3037706410513215 0 .219400542494777 .30
37706410513215 .009 .219400542494777 .3037706410513215 .011 .219434605681891 .30
3571625719914 0 .219434605681891 .303571625719914 .009 .219434605681891 .3035716
25719914 .011 .219484232658669 .303357419055799 0 .219484232658669 .303357419055
799 .009 .219484232658669 .303357419055799 .011 .219552668308561 .30311965403210
85 0 .219552668308561 .3031196540321085 .009 .219552668308561 .3031196540321085
 .011 .2196077643642025 .3029546957512135 0 .2196077643642025 .3029546957512135
 .009 .2196077643642025 .3029546957512135 .011 .219638811322655 .302866857681896
 0 .219638811322655 .302866857681896 .009 .219638811322655 .302866857681896 .011
 127 22 868 4 1 1 1 1 1 1 1 1 1 1 1 1 1 1 1 1 1 1 1 1 4 127 3 869 2 1 2 128 22 8
70 0 .0540486108132518 .1138436015805176 .173746710698597 .237687585053172 .2918
97443294626 .3517866855764965 .4119651928599295 .476261465816596 .53098419534389
5 .591688132339496 .653024769126357 .686017235346476 .719240427343793 .747576481
965494 .776257248093838 .808530964118234 .841428316702553 .875020286683044 .9108
29561818367 .953247314408279 1 128 3 871 0 1 1.222222222222222 19 30 236 0 16 0
 23 19 0 S0 74 4 CI16 index_map_offset0 0 1 dCCZ20 28 6 0 0 851 734 26 17 710 64
4 0 0 0 0 0 0 0 0 0 0 0 0 0 0 80 1 6 853 872 8038 0 0 0 0 0 0 0 0 0 TTTTTTTTTTTT
TFTF10 98 255 33 27 71 114 105 112 115 45 49 47 83 112 97 99 101 114 115 45 49 4
7 83 112 97 99 101 114 45 49 45 115 111 108 105 100 49 79 14 872 SDL/TYSA_UNAME7
4 20 15 2 0 0 13 10 0 0 0 0 0 0 0 0 0 0 0 0 0 0 0 0 0 0 81 1 13 1 853 4 0 10 0 0
 873 84 13 873 Spacer.SLDPRT98 13 14 83 112 97 99 101 114 46 83 76 68 80 82 84 7
4 20 9 2 0 0 7 2 0 0 0 0 0 0 0 0 0 0 0 0 0 0 0 0 0 0 81 1 7 1 853 1 0 2 0 0 874
 84 4 874 root98 4 8 114 111 111 116 1 0 
